<mxfile host="65bd71144e">
    <diagram name="Hub-Spoke with AzFW + ARS" id="6jfIVGP5fNh-bk4MxDeE">
        <mxGraphModel dx="9393" dy="4240" grid="1" gridSize="13" guides="1" tooltips="1" connect="1" arrows="1" fold="0" page="1" pageScale="1" pageWidth="850" pageHeight="1100" math="0" shadow="0">
            <root>
                <mxCell id="bhTP2_UY_HiaFr0e0wly-0"/>
                <mxCell id="bhTP2_UY_HiaFr0e0wly-56" value="Hub-Spoke" style="" parent="bhTP2_UY_HiaFr0e0wly-0"/>
                <UserObject label="" tags="" id="bhTP2_UY_HiaFr0e0wly-57">
                    <mxCell style="rounded=0;whiteSpace=wrap;html=1;fillColor=#dae8fc;strokeColor=#007FFF;strokeWidth=5;fontFamily=Comic Sans MS;disableMultiStrokeFill=1;disableMultiStroke=1;sketch=1;curveFitting=1;jiggle=2;" parent="bhTP2_UY_HiaFr0e0wly-56" vertex="1">
                        <mxGeometry x="-2575" y="-909" width="300" height="250" as="geometry"/>
                    </mxCell>
                </UserObject>
                <UserObject label="" tags="" id="bhTP2_UY_HiaFr0e0wly-58">
                    <mxCell style="rounded=0;whiteSpace=wrap;html=1;fillColor=#dae8fc;strokeColor=#007FFF;strokeWidth=5;fontFamily=Comic Sans MS;disableMultiStrokeFill=1;disableMultiStroke=1;sketch=1;curveFitting=1;jiggle=2;" parent="bhTP2_UY_HiaFr0e0wly-56" vertex="1">
                        <mxGeometry x="-2155" y="-909" width="290" height="250" as="geometry"/>
                    </mxCell>
                </UserObject>
                <UserObject label="" tags="" id="bhTP2_UY_HiaFr0e0wly-60">
                    <mxCell style="rounded=0;whiteSpace=wrap;html=1;fillColor=#dae8fc;strokeColor=#007FFF;strokeWidth=5;fontFamily=Comic Sans MS;disableMultiStroke=1;disableMultiStrokeFill=1;sketch=1;curveFitting=1;jiggle=2;" parent="bhTP2_UY_HiaFr0e0wly-56" vertex="1">
                        <mxGeometry x="-2424" y="-465" width="480" height="413" as="geometry"/>
                    </mxCell>
                </UserObject>
                <UserObject label="&lt;span style=&quot;font-size: 30px;&quot;&gt;HUB&lt;/span&gt;" tags="" id="bhTP2_UY_HiaFr0e0wly-59">
                    <mxCell style="text;html=1;align=center;verticalAlign=middle;resizable=0;points=[];autosize=1;strokeColor=none;fillColor=none;fontSize=30;fontFamily=Comic Sans MS;fontColor=#000000;sketch=1;curveFitting=1;jiggle=2;fontStyle=1" parent="bhTP2_UY_HiaFr0e0wly-56" vertex="1">
                        <mxGeometry x="-2408" y="-464" width="91" height="52" as="geometry"/>
                    </mxCell>
                </UserObject>
                <UserObject label="" tags="" id="bhTP2_UY_HiaFr0e0wly-37">
                    <mxCell style="aspect=fixed;html=1;points=[];align=center;image;fontSize=12;image=img/lib/azure2/compute/Kubernetes_Services.svg;rounded=0;glass=0;labelBackgroundColor=default;fillStyle=hachure;strokeWidth=0;fontFamily=Comic Sans MS;fontColor=#000000;fillColor=none;opacity=70;sketch=1;curveFitting=1;jiggle=2;" parent="bhTP2_UY_HiaFr0e0wly-56" vertex="1">
                        <mxGeometry x="-2541" y="-754" width="68" height="60" as="geometry"/>
                    </mxCell>
                </UserObject>
                <UserObject label="" tags="" id="bhTP2_UY_HiaFr0e0wly-32">
                    <mxCell style="aspect=fixed;html=1;points=[];align=center;image;fontSize=12;image=img/lib/azure2/networking/Virtual_Networks.svg;rounded=0;glass=0;labelBackgroundColor=#66B2FF;fillStyle=hachure;fontFamily=Comic Sans MS;fontColor=#000000;opacity=70;sketch=1;curveFitting=1;jiggle=2;" parent="bhTP2_UY_HiaFr0e0wly-56" vertex="1">
                        <mxGeometry x="-2372" y="-887" width="67" height="40" as="geometry"/>
                    </mxCell>
                </UserObject>
                <UserObject label="" tags="" id="bhTP2_UY_HiaFr0e0wly-38">
                    <mxCell style="aspect=fixed;html=1;points=[];align=center;image;fontSize=12;image=img/lib/azure2/compute/Virtual_Machine.svg;rounded=0;glass=0;labelBackgroundColor=default;fillStyle=hachure;strokeWidth=0;fontFamily=Comic Sans MS;fontColor=#000000;fillColor=none;opacity=70;sketch=1;curveFitting=1;jiggle=2;" parent="bhTP2_UY_HiaFr0e0wly-56" vertex="1">
                        <mxGeometry x="-2554" y="-897" width="69" height="64" as="geometry"/>
                    </mxCell>
                </UserObject>
                <UserObject label="" tags="" id="bhTP2_UY_HiaFr0e0wly-33">
                    <mxCell style="aspect=fixed;html=1;points=[];align=center;image;fontSize=12;image=img/lib/azure2/networking/Virtual_Networks.svg;rounded=0;glass=0;labelBackgroundColor=#66B2FF;fillStyle=hachure;fontFamily=Comic Sans MS;fontColor=#000000;opacity=70;sketch=1;curveFitting=1;jiggle=2;" parent="bhTP2_UY_HiaFr0e0wly-56" vertex="1">
                        <mxGeometry x="-1965" y="-891" width="67" height="40" as="geometry"/>
                    </mxCell>
                </UserObject>
                <UserObject label="&lt;font face=&quot;Comic Sans MS&quot; style=&quot;font-size: 30px;&quot;&gt;&lt;b&gt;Spoke1&lt;/b&gt;&lt;/font&gt;" tags="" id="FSkTQp5Yen9cZjWhmWpK-7">
                    <mxCell style="text;html=1;align=center;verticalAlign=middle;resizable=0;points=[];autosize=1;strokeColor=none;fillColor=none;sketch=1;curveFitting=1;jiggle=2;" parent="bhTP2_UY_HiaFr0e0wly-56" vertex="1">
                        <mxGeometry x="-2502" y="-850" width="130" height="52" as="geometry"/>
                    </mxCell>
                </UserObject>
                <UserObject label="&lt;font face=&quot;Comic Sans MS&quot; style=&quot;font-size: 30px;&quot;&gt;Spoke2&lt;/font&gt;" tags="" id="FSkTQp5Yen9cZjWhmWpK-6">
                    <mxCell style="text;html=1;align=center;verticalAlign=middle;resizable=0;points=[];autosize=1;strokeColor=none;fillColor=none;sketch=1;curveFitting=1;jiggle=2;fontSize=30;fontStyle=1" parent="bhTP2_UY_HiaFr0e0wly-56" vertex="1">
                        <mxGeometry x="-2066" y="-837" width="130" height="52" as="geometry"/>
                    </mxCell>
                </UserObject>
                <UserObject label="" tags="" id="bhTP2_UY_HiaFr0e0wly-31">
                    <mxCell style="aspect=fixed;html=1;points=[];align=center;image;fontSize=12;image=img/lib/azure2/networking/Virtual_Networks.svg;rounded=0;glass=0;labelBackgroundColor=#66B2FF;fillStyle=hachure;fontFamily=Comic Sans MS;fontColor=#000000;opacity=70;sketch=1;curveFitting=1;jiggle=2;" parent="bhTP2_UY_HiaFr0e0wly-56" vertex="1">
                        <mxGeometry x="-2034" y="-442" width="67" height="40" as="geometry"/>
                    </mxCell>
                </UserObject>
                <UserObject label="" tags="" id="bhTP2_UY_HiaFr0e0wly-35">
                    <mxCell style="aspect=fixed;html=1;points=[];align=center;image;fontSize=12;image=img/lib/azure2/networking/Virtual_Network_Gateways.svg;rounded=0;glass=0;labelBackgroundColor=#66B2FF;fillStyle=hachure;fontFamily=Comic Sans MS;fontColor=#000000;opacity=70;sketch=1;curveFitting=1;jiggle=2;" parent="bhTP2_UY_HiaFr0e0wly-56" vertex="1">
                        <mxGeometry x="-2342" y="-130" width="52" height="69" as="geometry"/>
                    </mxCell>
                </UserObject>
                <UserObject label="&lt;b&gt;VPN GW&lt;/b&gt;" tags="" id="bhTP2_UY_HiaFr0e0wly-36">
                    <mxCell style="text;html=1;align=center;verticalAlign=middle;resizable=0;points=[];autosize=1;strokeColor=none;fillColor=none;fontSize=30;fontFamily=Comic Sans MS;fontColor=rgb(0, 0, 0);sketch=1;curveFitting=1;jiggle=2;disableMultiStroke=1;disableMultiStrokeFill=1;strokeWidth=25;fontStyle=1;" parent="bhTP2_UY_HiaFr0e0wly-56" vertex="1">
                        <mxGeometry x="-2374" y="-166" width="117" height="39" as="geometry"/>
                    </mxCell>
                </UserObject>
                <UserObject label="" tags="" id="bhTP2_UY_HiaFr0e0wly-42">
                    <mxCell style="aspect=fixed;html=1;points=[];align=center;image;fontSize=12;image=img/lib/azure2/networking/Virtual_Network_Gateways.svg;rounded=0;glass=0;labelBackgroundColor=default;fillStyle=auto;strokeColor=#000000;strokeWidth=4;fontFamily=Comic Sans MS;fontColor=#000000;fillColor=none;gradientColor=none;opacity=70;sketch=1;curveFitting=1;jiggle=2;" parent="bhTP2_UY_HiaFr0e0wly-56" vertex="1">
                        <mxGeometry x="-2112" y="-130" width="52" height="69" as="geometry"/>
                    </mxCell>
                </UserObject>
                <UserObject label="&lt;b&gt;ER GW&lt;/b&gt;" tags="" id="bhTP2_UY_HiaFr0e0wly-46">
                    <mxCell style="text;html=1;align=center;verticalAlign=middle;resizable=0;points=[];autosize=1;strokeColor=none;fillColor=none;fontSize=30;fontFamily=Comic Sans MS;fontColor=rgb(0, 0, 0);sketch=1;curveFitting=1;jiggle=2;disableMultiStroke=1;disableMultiStrokeFill=1;strokeWidth=25;fontStyle=1;" parent="bhTP2_UY_HiaFr0e0wly-56" vertex="1">
                        <mxGeometry x="-2131" y="-164" width="91" height="39" as="geometry"/>
                    </mxCell>
                </UserObject>
                <UserObject label="&lt;font style=&quot;font-size: 30px;&quot;&gt;&lt;b style=&quot;font-size: 30px;&quot;&gt;Gateway Subnet&lt;/b&gt;&lt;/font&gt;" tags="" tooltip="While you can create a gateway subnet as small as /29, we recommend that you create a gateway subnet of /27 or larger (/27, /26 etc.) if you have the available address space to do so. This will accommodate most configurations." id="bhTP2_UY_HiaFr0e0wly-47">
                    <mxCell style="text;html=1;align=center;verticalAlign=middle;resizable=0;points=[];autosize=1;strokeColor=none;fillColor=none;fontSize=30;fontFamily=Comic Sans MS;fontColor=#000000;sketch=1;curveFitting=1;jiggle=2;" parent="bhTP2_UY_HiaFr0e0wly-56" vertex="1">
                        <mxGeometry x="-2788" y="-130" width="260" height="52" as="geometry"/>
                    </mxCell>
                </UserObject>
                <UserObject label="&lt;font style=&quot;font-size: 30px;&quot;&gt;&lt;b&gt;Internet&lt;/b&gt;&lt;/font&gt;" tags="" id="bhTP2_UY_HiaFr0e0wly-45">
                    <mxCell style="ellipse;shape=cloud;whiteSpace=wrap;html=1;rounded=0;glass=0;labelBackgroundColor=default;fillStyle=auto;strokeColor=#000000;strokeWidth=4;fontFamily=Comic Sans MS;fontSize=25;fontColor=#000000;fillColor=none;gradientColor=none;opacity=70;sketch=1;curveFitting=1;jiggle=2;disableMultiStroke=1;disableMultiStrokeFill=1;" parent="bhTP2_UY_HiaFr0e0wly-56" vertex="1">
                        <mxGeometry x="-2318" y="-1105" width="300" height="80" as="geometry"/>
                    </mxCell>
                </UserObject>
                <UserObject label="" tags="" id="FSkTQp5Yen9cZjWhmWpK-11">
                    <mxCell style="edgeStyle=none;shape=connector;rounded=0;orthogonalLoop=1;jettySize=auto;html=1;exitX=0.5;exitY=1;exitDx=0;exitDy=0;entryX=0.634;entryY=0.001;entryDx=0;entryDy=0;entryPerimeter=0;labelBackgroundColor=default;strokeColor=#3399FF;strokeWidth=4;fontFamily=Comic Sans MS;fontSize=25;fontColor=default;startArrow=diamond;startFill=1;endArrow=diamond;endFill=1;sketch=1;curveFitting=1;jiggle=2;" parent="bhTP2_UY_HiaFr0e0wly-56" source="bhTP2_UY_HiaFr0e0wly-58" target="bhTP2_UY_HiaFr0e0wly-60" edge="1">
                        <mxGeometry relative="1" as="geometry"/>
                    </mxCell>
                </UserObject>
                <UserObject label="" tags="" id="FSkTQp5Yen9cZjWhmWpK-10">
                    <mxCell style="edgeStyle=none;shape=connector;rounded=0;orthogonalLoop=1;jettySize=auto;html=1;exitX=0.5;exitY=1;exitDx=0;exitDy=0;entryX=0.267;entryY=0.001;entryDx=0;entryDy=0;entryPerimeter=0;labelBackgroundColor=default;strokeColor=#3399FF;strokeWidth=4;fontFamily=Comic Sans MS;fontSize=25;fontColor=default;startArrow=diamond;startFill=1;endArrow=diamond;endFill=1;sketch=1;curveFitting=1;jiggle=2;" parent="bhTP2_UY_HiaFr0e0wly-56" source="bhTP2_UY_HiaFr0e0wly-57" target="bhTP2_UY_HiaFr0e0wly-60" edge="1">
                        <mxGeometry relative="1" as="geometry"/>
                    </mxCell>
                </UserObject>
                <UserObject label="" tags="" id="I4nSlObdzHv6P_rm0cAF-8">
                    <mxCell style="edgeStyle=none;jumpStyle=none;jumpSize=2;orthogonalLoop=1;jettySize=auto;html=1;exitX=0;exitY=0.5;exitDx=0;exitDy=0;entryX=1;entryY=0.5;entryDx=0;entryDy=0;shadow=0;strokeColor=#3399FF;strokeWidth=5;fontFamily=Comic Sans MS;fontSize=25;fontColor=#000000;startArrow=none;startFill=0;endArrow=none;endFill=0;rounded=0;sketch=1;curveFitting=1;jiggle=2;disableMultiStroke=1;" parent="bhTP2_UY_HiaFr0e0wly-56" edge="1">
                        <mxGeometry relative="1" as="geometry">
                            <mxPoint x="-2424" y="-377" as="sourcePoint"/>
                            <mxPoint x="-1944" y="-377" as="targetPoint"/>
                        </mxGeometry>
                    </mxCell>
                </UserObject>
                <UserObject label="" tags="" id="I4nSlObdzHv6P_rm0cAF-6">
                    <mxCell style="edgeStyle=none;jumpStyle=none;jumpSize=2;orthogonalLoop=1;jettySize=auto;html=1;exitX=0;exitY=0.5;exitDx=0;exitDy=0;entryX=1;entryY=0.5;entryDx=0;entryDy=0;shadow=0;strokeColor=#3399FF;strokeWidth=5;fontFamily=Comic Sans MS;fontSize=25;fontColor=#000000;startArrow=none;startFill=0;endArrow=none;endFill=0;rounded=0;sketch=1;curveFitting=1;jiggle=2;" parent="bhTP2_UY_HiaFr0e0wly-56" edge="1">
                        <mxGeometry relative="1" as="geometry">
                            <mxPoint x="-2424" y="-283" as="sourcePoint"/>
                            <mxPoint x="-1944" y="-283" as="targetPoint"/>
                        </mxGeometry>
                    </mxCell>
                </UserObject>
                <UserObject label="" tags="" id="bhTP2_UY_HiaFr0e0wly-62">
                    <mxCell style="edgeStyle=none;jumpStyle=none;jumpSize=2;orthogonalLoop=1;jettySize=auto;html=1;exitX=0;exitY=0.5;exitDx=0;exitDy=0;entryX=1;entryY=0.5;entryDx=0;entryDy=0;shadow=0;strokeColor=#3399FF;strokeWidth=5;fontFamily=Comic Sans MS;fontSize=25;fontColor=#000000;startArrow=none;startFill=0;endArrow=none;endFill=0;rounded=0;sketch=1;curveFitting=1;jiggle=2;disableMultiStroke=1;" parent="bhTP2_UY_HiaFr0e0wly-56" edge="1">
                        <mxGeometry relative="1" as="geometry">
                            <mxPoint x="-2425" y="-191.5" as="sourcePoint"/>
                            <mxPoint x="-1945" y="-191.5" as="targetPoint"/>
                        </mxGeometry>
                    </mxCell>
                </UserObject>
                <mxCell id="0gOJhNK2u26gjlsnal8y-0" value="&lt;b&gt;&lt;font style=&quot;font-size: 30px;&quot;&gt;Internet&lt;/font&gt;&lt;/b&gt;" style="ellipse;shape=cloud;whiteSpace=wrap;html=1;rounded=0;glass=0;labelBackgroundColor=default;fillStyle=auto;strokeColor=#000000;strokeWidth=4;fontFamily=Comic Sans MS;fontSize=25;fontColor=#000000;fillColor=none;gradientColor=none;opacity=70;sketch=1;curveFitting=1;jiggle=2;disableMultiStrokeFill=1;disableMultiStroke=1;" parent="bhTP2_UY_HiaFr0e0wly-56" vertex="1">
                    <mxGeometry x="-1700" y="-715" width="300" height="80" as="geometry"/>
                </mxCell>
                <UserObject label="" tags="" id="ff7anAwrImGbUtOLiGLd-134">
                    <mxCell style="aspect=fixed;html=1;points=[];align=center;image;fontSize=12;image=img/lib/azure2/compute/Virtual_Machine.svg;rounded=0;glass=0;labelBackgroundColor=default;fillStyle=hachure;strokeWidth=0;fontFamily=Comic Sans MS;fontColor=#000000;fillColor=none;opacity=70;sketch=1;curveFitting=1;jiggle=2;" parent="bhTP2_UY_HiaFr0e0wly-56" vertex="1">
                        <mxGeometry x="-2138" y="-897" width="69" height="64" as="geometry"/>
                    </mxCell>
                </UserObject>
                <mxCell id="134" value="" style="edgeStyle=none;curved=1;html=1;startArrow=classic;startFill=1;" edge="1" parent="bhTP2_UY_HiaFr0e0wly-56" source="ff7anAwrImGbUtOLiGLd-140" target="bhTP2_UY_HiaFr0e0wly-60">
                    <mxGeometry relative="1" as="geometry"/>
                </mxCell>
                <mxCell id="ff7anAwrImGbUtOLiGLd-140" value="&lt;span style=&quot;color: rgb(0, 0, 0); font-family: &amp;quot;Comic Sans MS&amp;quot;; font-size: 30px; font-style: normal; font-variant-ligatures: normal; font-variant-caps: normal; font-weight: 700; letter-spacing: normal; orphans: 2; text-align: center; text-indent: 0px; text-transform: none; widows: 2; word-spacing: 0px; -webkit-text-stroke-width: 0px; background-color: rgb(251, 251, 251); text-decoration-thickness: initial; text-decoration-style: initial; text-decoration-color: initial; float: none; display: inline !important;&quot;&gt;VNET Peering&lt;/span&gt;" style="text;whiteSpace=wrap;html=1;fontSize=20;fontFamily=Comic Sans MS;fontColor=#000000;" parent="bhTP2_UY_HiaFr0e0wly-56" vertex="1">
                    <mxGeometry x="-2281" y="-596.75" width="143" height="65" as="geometry"/>
                </mxCell>
                <mxCell id="124" value="&lt;b style=&quot;font-size: 45px;&quot;&gt;&lt;font style=&quot;font-size: 45px;&quot;&gt;Presentation Notes&lt;br style=&quot;font-size: 45px;&quot;&gt;(Story telling with Layers)&lt;br style=&quot;font-size: 45px;&quot;&gt;&lt;/font&gt;&lt;/b&gt;&lt;ol style=&quot;font-size: 45px;&quot;&gt;&lt;li style=&quot;font-size: 45px;&quot;&gt;&lt;font style=&quot;font-size: 45px;&quot;&gt;Hybrid Architecture Components&lt;/font&gt;&lt;/li&gt;&lt;li style=&quot;font-size: 45px;&quot;&gt;&lt;font style=&quot;font-size: 45px;&quot;&gt;Default design&lt;/font&gt;&lt;/li&gt;&lt;li style=&quot;font-size: 45px;&quot;&gt;&lt;font style=&quot;font-size: 45px;&quot;&gt;Understanding IP Connectivity and&amp;nbsp; Flows&lt;/font&gt;&lt;/li&gt;&lt;li style=&quot;font-size: 45px;&quot;&gt;&lt;font style=&quot;font-size: 45px;&quot;&gt;Configuration&lt;/font&gt;&lt;/li&gt;&lt;li style=&quot;font-size: 45px;&quot;&gt;&lt;font style=&quot;font-size: 45px;&quot;&gt;Variations based on requirements&lt;/font&gt;&lt;/li&gt;&lt;ol style=&quot;font-size: 45px;&quot;&gt;&lt;li style=&quot;font-size: 45px;&quot;&gt;&lt;font style=&quot;font-size: 45px;&quot;&gt;Spoke-to-spoke Connectivity&lt;/font&gt;&lt;/li&gt;&lt;li style=&quot;font-size: 45px;&quot;&gt;&lt;font style=&quot;font-size: 45px;&quot;&gt;Internet via FW&lt;/font&gt;&lt;/li&gt;&lt;li style=&quot;font-size: 45px;&quot;&gt;&lt;font style=&quot;font-size: 45px;&quot;&gt;VPN-ExR Transit (Using ARS)&lt;/font&gt;&lt;/li&gt;&lt;li style=&quot;font-size: 45px;&quot;&gt;&lt;font style=&quot;font-size: 45px;&quot;&gt;Active-Active VPN Gateway Requirements&lt;/font&gt;&lt;/li&gt;&lt;li style=&quot;font-size: 45px;&quot;&gt;&lt;font style=&quot;font-size: 45px;&quot;&gt;All traffic via NVA (Using ARS)&lt;/font&gt;&lt;/li&gt;&lt;li style=&quot;font-size: 45px;&quot;&gt;&lt;font style=&quot;font-size: 45px;&quot;&gt;BGP over IPSec&lt;/font&gt;&lt;/li&gt;&lt;/ol&gt;&lt;li style=&quot;font-size: 45px;&quot;&gt;&lt;font style=&quot;font-size: 45px;&quot;&gt;Mulitregion default&lt;/font&gt;&lt;/li&gt;&lt;li style=&quot;font-size: 45px;&quot;&gt;&lt;font style=&quot;font-size: 45px;&quot;&gt;Bandwidth and SKU&lt;/font&gt;&lt;/li&gt;&lt;/ol&gt;" style="text;html=1;strokeColor=none;fillColor=none;align=left;verticalAlign=top;whiteSpace=wrap;rounded=0;sketch=1;fontFamily=Comic Sans MS;fontSize=45;" parent="bhTP2_UY_HiaFr0e0wly-56" vertex="1">
                    <mxGeometry x="-5148" y="-1300" width="1053" height="1027" as="geometry"/>
                </mxCell>
                <mxCell id="bhTP2_UY_HiaFr0e0wly-53" value="S2S Branches" parent="bhTP2_UY_HiaFr0e0wly-0"/>
                <UserObject label="" tags="" id="bhTP2_UY_HiaFr0e0wly-55">
                    <mxCell style="rounded=0;whiteSpace=wrap;html=1;fillColor=#FFCC99;strokeColor=#CC6600;strokeWidth=5;disableMultiStroke=1;disableMultiStrokeFill=1;sketch=1;curveFitting=1;jiggle=2;" parent="bhTP2_UY_HiaFr0e0wly-53" vertex="1">
                        <mxGeometry x="-2853" y="247" width="442" height="410" as="geometry"/>
                    </mxCell>
                </UserObject>
                <UserObject label="" tags="" id="bhTP2_UY_HiaFr0e0wly-15">
                    <mxCell style="edgeStyle=none;orthogonalLoop=1;jettySize=auto;html=1;rounded=0;shadow=0;strokeColor=#3399FF;strokeWidth=5;fontFamily=Comic Sans MS;fontSize=25;fontColor=#000000;startArrow=baseDash;startFill=0;endArrow=baseDash;endFill=0;jumpStyle=none;jumpSize=2;sketchStyle=rough;disableMultiStroke=1;" parent="bhTP2_UY_HiaFr0e0wly-53" edge="1">
                        <mxGeometry width="80" relative="1" as="geometry">
                            <mxPoint x="-3191" y="90" as="sourcePoint"/>
                            <mxPoint x="-1325" y="90" as="targetPoint"/>
                            <Array as="points">
                                <mxPoint x="-2242" y="90"/>
                            </Array>
                        </mxGeometry>
                    </mxCell>
                </UserObject>
                <UserObject label="Global Reach" tags="" id="bhTP2_UY_HiaFr0e0wly-16">
                    <mxCell style="edgeLabel;html=1;align=center;verticalAlign=middle;resizable=0;points=[];fontSize=31;fontFamily=Comic Sans MS;fontColor=#000000;fontStyle=1;sketch=1;curveFitting=1;jiggle=2;" parent="bhTP2_UY_HiaFr0e0wly-15" vertex="1" connectable="0">
                        <mxGeometry x="0.7299" y="-3" relative="1" as="geometry">
                            <mxPoint x="1" as="offset"/>
                        </mxGeometry>
                    </mxCell>
                </UserObject>
                <UserObject label="" tags="" id="FSkTQp5Yen9cZjWhmWpK-16">
                    <mxCell style="edgeStyle=none;shape=connector;rounded=0;orthogonalLoop=1;jettySize=auto;html=1;exitX=0.5;exitY=0;exitDx=0;exitDy=0;entryX=0.181;entryY=0.912;entryDx=0;entryDy=0;entryPerimeter=0;labelBackgroundColor=default;strokeColor=#3399FF;strokeWidth=4;fontFamily=Comic Sans MS;fontSize=25;fontColor=default;startArrow=diamond;startFill=1;endArrow=diamond;endFill=1;sketch=1;curveFitting=1;jiggle=2;disableMultiStroke=1;" parent="bhTP2_UY_HiaFr0e0wly-53" source="bhTP2_UY_HiaFr0e0wly-55" target="bhTP2_UY_HiaFr0e0wly-35" edge="1">
                        <mxGeometry relative="1" as="geometry"/>
                    </mxCell>
                </UserObject>
                <UserObject label="" tags="" id="FSkTQp5Yen9cZjWhmWpK-12">
                    <mxCell style="edgeStyle=none;shape=connector;rounded=0;orthogonalLoop=1;jettySize=auto;html=1;exitX=0.5;exitY=0;exitDx=0;exitDy=0;labelBackgroundColor=default;strokeColor=#3399FF;strokeWidth=4;fontFamily=Comic Sans MS;fontSize=25;fontColor=default;startArrow=diamond;startFill=1;endArrow=diamond;endFill=1;sketch=1;curveFitting=1;jiggle=2;disableMultiStroke=1;" parent="bhTP2_UY_HiaFr0e0wly-53" source="bhTP2_UY_HiaFr0e0wly-54" target="bhTP2_UY_HiaFr0e0wly-35" edge="1">
                        <mxGeometry relative="1" as="geometry"/>
                    </mxCell>
                </UserObject>
                <UserObject label="&lt;h5&gt;&lt;br&gt;&lt;/h5&gt;" tags="" id="bhTP2_UY_HiaFr0e0wly-54">
                    <mxCell style="rounded=0;whiteSpace=wrap;html=1;fillColor=#FFCC99;strokeColor=#CC6600;strokeWidth=5;disableMultiStrokeFill=1;disableMultiStroke=1;sketch=1;curveFitting=1;jiggle=2;" parent="bhTP2_UY_HiaFr0e0wly-53" vertex="1">
                        <mxGeometry x="-3386" y="247" width="442" height="410" as="geometry"/>
                    </mxCell>
                </UserObject>
                <UserObject label="&lt;font style=&quot;font-size: 30px;&quot;&gt;Branch1&lt;br style=&quot;font-size: 30px;&quot;&gt;&lt;/font&gt;" tags="" id="DSEJX4H1FlWSeaIEICfl-0">
                    <mxCell style="text;html=1;align=center;verticalAlign=middle;resizable=0;points=[];autosize=1;strokeColor=none;fillColor=none;disableMultiStroke=1;disableMultiStrokeFill=1;strokeWidth=25;fontFamily=Comic Sans MS;sketch=1;curveFitting=1;jiggle=2;fontSize=30;fontStyle=1" parent="bhTP2_UY_HiaFr0e0wly-53" vertex="1">
                        <mxGeometry x="-3290" y="571" width="143" height="52" as="geometry"/>
                    </mxCell>
                </UserObject>
                <UserObject label="Branch2" tags="" id="DSEJX4H1FlWSeaIEICfl-1">
                    <mxCell style="text;html=1;align=center;verticalAlign=middle;resizable=0;points=[];autosize=1;strokeColor=none;fillColor=none;fontSize=30;fontFamily=Comic Sans MS;fontColor=rgb(0, 0, 0);sketch=1;curveFitting=1;jiggle=2;disableMultiStroke=1;disableMultiStrokeFill=1;strokeWidth=25;fontStyle=1;" parent="bhTP2_UY_HiaFr0e0wly-53" vertex="1">
                        <mxGeometry x="-2703" y="561" width="130" height="39" as="geometry"/>
                    </mxCell>
                </UserObject>
                <UserObject label="" tags="" id="FMytKJnADL6UDUm3uzk5-6">
                    <mxCell style="aspect=fixed;html=1;points=[];align=center;image;fontSize=12;image=img/lib/azure2/other/Exchange_On_Premises_Access.svg;rounded=0;glass=0;labelBackgroundColor=#66B2FF;fillStyle=hachure;fontFamily=Comic Sans MS;fontColor=#000000;opacity=70;sketch=1;curveFitting=1;jiggle=2;" parent="bhTP2_UY_HiaFr0e0wly-53" vertex="1">
                        <mxGeometry x="-2515" y="520" width="65" height="110.5" as="geometry"/>
                    </mxCell>
                </UserObject>
                <UserObject label="" tags="" id="bhTP2_UY_HiaFr0e0wly-34">
                    <mxCell style="aspect=fixed;html=1;points=[];align=center;image;fontSize=12;image=img/lib/azure2/other/Exchange_On_Premises_Access.svg;rounded=0;glass=0;labelBackgroundColor=#66B2FF;fillStyle=hachure;fontFamily=Comic Sans MS;fontColor=#000000;opacity=70;sketch=1;curveFitting=1;jiggle=2;" parent="bhTP2_UY_HiaFr0e0wly-53" vertex="1">
                        <mxGeometry x="-3061" y="531" width="65" height="110.5" as="geometry"/>
                    </mxCell>
                </UserObject>
                <UserObject label="&lt;span style=&quot;font-size: 30px;&quot;&gt;S2S&lt;/span&gt;" tags="" id="VrAzjePDrt6RbZW5jVcZ-85">
                    <mxCell style="edgeLabel;html=1;align=center;verticalAlign=middle;resizable=0;points=[];fontSize=30;fontFamily=Comic Sans MS;fontColor=#000000;fontStyle=1;sketch=1;curveFitting=1;jiggle=2;" parent="bhTP2_UY_HiaFr0e0wly-53" vertex="1" connectable="0">
                        <mxGeometry x="-0.5368" y="-3" relative="1" as="geometry">
                            <mxPoint x="-2598" y="191" as="offset"/>
                        </mxGeometry>
                    </mxCell>
                </UserObject>
                <UserObject label="&lt;span style=&quot;font-size: 30px;&quot;&gt;S2S&lt;/span&gt;" tags="" id="plZ5Qt-CsRb0I7bbDfOB-0">
                    <mxCell style="edgeLabel;html=1;align=center;verticalAlign=middle;resizable=0;points=[];fontSize=30;fontFamily=Comic Sans MS;fontColor=#000000;fontStyle=1;sketch=1;curveFitting=1;jiggle=2;" parent="bhTP2_UY_HiaFr0e0wly-53" vertex="1" connectable="0">
                        <mxGeometry x="-2695" y="191.00000000000045" as="geometry">
                            <mxPoint x="-373" y="-2" as="offset"/>
                        </mxGeometry>
                    </mxCell>
                </UserObject>
                <mxCell id="bhTP2_UY_HiaFr0e0wly-51" value="P2S Branch" parent="bhTP2_UY_HiaFr0e0wly-0"/>
                <UserObject label="" tags="" id="bhTP2_UY_HiaFr0e0wly-52">
                    <mxCell style="rounded=0;whiteSpace=wrap;html=1;fillColor=#FF99FF;strokeColor=#FF00FF;strokeWidth=5;disableMultiStroke=1;disableMultiStrokeFill=1;sketch=1;curveFitting=1;jiggle=2;" parent="bhTP2_UY_HiaFr0e0wly-51" vertex="1">
                        <mxGeometry x="-2346" y="247" width="351" height="410" as="geometry"/>
                    </mxCell>
                </UserObject>
                <UserObject label="" tags="" id="FSkTQp5Yen9cZjWhmWpK-15">
                    <mxCell style="edgeStyle=none;shape=connector;rounded=0;orthogonalLoop=1;jettySize=auto;html=1;exitX=0.25;exitY=0;exitDx=0;exitDy=0;entryX=0.425;entryY=0.9;entryDx=0;entryDy=0;entryPerimeter=0;labelBackgroundColor=default;strokeColor=#3399FF;strokeWidth=4;fontFamily=Comic Sans MS;fontSize=25;fontColor=default;startArrow=diamond;startFill=1;endArrow=diamond;endFill=1;sketch=1;curveFitting=1;jiggle=2;disableMultiStroke=1;" parent="bhTP2_UY_HiaFr0e0wly-51" source="bhTP2_UY_HiaFr0e0wly-52" target="bhTP2_UY_HiaFr0e0wly-35" edge="1">
                        <mxGeometry relative="1" as="geometry"/>
                    </mxCell>
                </UserObject>
                <mxCell id="FMytKJnADL6UDUm3uzk5-8" value="" style="sketch=0;aspect=fixed;html=1;points=[];align=center;image;fontSize=12;image=img/lib/mscae/Person.svg;hachureGap=4;jiggle=2;curveFitting=1;fontFamily=Architects Daughter;fontSource=https%3A%2F%2Ffonts.googleapis.com%2Fcss%3Ffamily%3DArchitects%2BDaughter;" parent="bhTP2_UY_HiaFr0e0wly-51" vertex="1">
                    <mxGeometry x="-2112" y="529.4300000000001" width="60.36" height="81.57" as="geometry"/>
                </mxCell>
                <UserObject label="&lt;span style=&quot;font-size: 31px;&quot;&gt;P2S&lt;/span&gt;" tags="" id="M0Ocjxh6jK5rQdIQhLeV-18">
                    <mxCell style="edgeLabel;html=1;align=center;verticalAlign=middle;resizable=0;points=[];fontSize=31;fontFamily=Comic Sans MS;fontColor=#000000;sketch=1;curveFitting=1;jiggle=2;fontStyle=1" parent="bhTP2_UY_HiaFr0e0wly-51" vertex="1" connectable="0">
                        <mxGeometry x="-0.6032" y="1" relative="1" as="geometry">
                            <mxPoint x="-2264" y="185" as="offset"/>
                        </mxGeometry>
                    </mxCell>
                </UserObject>
                <mxCell id="bhTP2_UY_HiaFr0e0wly-48" value="ExR Connected Branches" style="" parent="bhTP2_UY_HiaFr0e0wly-0"/>
                <UserObject label="" tags="" id="L02-GQOfvlvpXCU3EBMR-0">
                    <mxCell style="edgeStyle=none;shape=connector;rounded=0;orthogonalLoop=1;jettySize=auto;html=1;exitX=0.25;exitY=0;exitDx=0;exitDy=0;labelBackgroundColor=default;strokeColor=#3399FF;strokeWidth=4;fontFamily=Comic Sans MS;fontSize=25;fontColor=default;startArrow=diamond;startFill=1;endArrow=diamond;endFill=1;sketch=1;curveFitting=1;jiggle=2;disableMultiStroke=1;" parent="bhTP2_UY_HiaFr0e0wly-48" source="bhTP2_UY_HiaFr0e0wly-50" edge="1">
                        <mxGeometry relative="1" as="geometry">
                            <mxPoint x="-2073" y="-78" as="targetPoint"/>
                        </mxGeometry>
                    </mxCell>
                </UserObject>
                <mxCell id="ff7anAwrImGbUtOLiGLd-133" value="&lt;b&gt;ExR&lt;/b&gt;" style="edgeLabel;html=1;align=center;verticalAlign=middle;resizable=0;points=[];fontSize=31;fontFamily=Comic Sans MS;fontColor=#000000;" parent="L02-GQOfvlvpXCU3EBMR-0" vertex="1" connectable="0">
                    <mxGeometry x="-0.6971" y="-2" relative="1" as="geometry">
                        <mxPoint as="offset"/>
                    </mxGeometry>
                </mxCell>
                <UserObject label="&lt;h5&gt;&lt;br&gt;&lt;/h5&gt;" tags="" id="bhTP2_UY_HiaFr0e0wly-49">
                    <mxCell style="rounded=0;whiteSpace=wrap;html=1;fillColor=#e1d5e7;strokeColor=#990099;strokeWidth=5;disableMultiStroke=1;disableMultiStrokeFill=1;sketch=1;curveFitting=1;jiggle=2;" parent="bhTP2_UY_HiaFr0e0wly-48" vertex="1">
                        <mxGeometry x="-1964" y="247" width="359" height="410" as="geometry"/>
                    </mxCell>
                </UserObject>
                <UserObject label="&lt;h4&gt;&lt;br&gt;&lt;/h4&gt;" tags="" id="bhTP2_UY_HiaFr0e0wly-50">
                    <mxCell style="rounded=0;whiteSpace=wrap;html=1;fillColor=#e1d5e7;strokeColor=#990099;glass=0;gradientColor=none;fillStyle=auto;strokeWidth=5;disableMultiStroke=1;disableMultiStrokeFill=1;sketch=1;curveFitting=1;jiggle=2;" parent="bhTP2_UY_HiaFr0e0wly-48" vertex="1">
                        <mxGeometry x="-1536" y="247" width="351" height="410" as="geometry"/>
                    </mxCell>
                </UserObject>
                <UserObject label="" tags="" id="bhTP2_UY_HiaFr0e0wly-43">
                    <mxCell style="aspect=fixed;html=1;points=[];align=center;image;fontSize=12;image=img/lib/azure2/networking/ExpressRoute_Circuits.svg;rounded=0;glass=0;labelBackgroundColor=default;fillStyle=auto;strokeColor=#000000;strokeWidth=4;fontFamily=Comic Sans MS;fontColor=#000000;fillColor=none;gradientColor=none;opacity=70;sketch=1;curveFitting=1;jiggle=2;" parent="bhTP2_UY_HiaFr0e0wly-48" vertex="1">
                        <mxGeometry x="-2034" y="156" width="70" height="64" as="geometry"/>
                    </mxCell>
                </UserObject>
                <UserObject label="" tags="" id="bhTP2_UY_HiaFr0e0wly-39">
                    <mxCell style="aspect=fixed;html=1;points=[];align=center;image;fontSize=12;image=img/lib/azure2/azure_vmware_solution/AVS.svg;rounded=0;glass=0;labelBackgroundColor=default;fillStyle=hachure;strokeWidth=0;fontFamily=Comic Sans MS;fontColor=#000000;fillColor=none;opacity=70;sketch=1;curveFitting=1;jiggle=2;" parent="bhTP2_UY_HiaFr0e0wly-48" vertex="1">
                        <mxGeometry x="-1484" y="250" width="70" height="56.00000000000001" as="geometry"/>
                    </mxCell>
                </UserObject>
                <UserObject label="" tags="" id="bhTP2_UY_HiaFr0e0wly-30">
                    <mxCell style="aspect=fixed;html=1;points=[];align=center;image;fontSize=12;image=img/lib/azure2/networking/ExpressRoute_Circuits.svg;rounded=0;glass=0;labelBackgroundColor=#66B2FF;fillStyle=hachure;fontFamily=Comic Sans MS;fontColor=#000000;opacity=70;sketch=1;curveFitting=1;jiggle=2;" parent="bhTP2_UY_HiaFr0e0wly-48" vertex="1">
                        <mxGeometry x="-1683" y="156" width="70" height="64" as="geometry"/>
                    </mxCell>
                </UserObject>
                <UserObject label="" tags="" id="8_Sk7nPicaLH9pOnrGWU-0">
                    <mxCell style="aspect=fixed;html=1;points=[];align=center;image;fontSize=12;image=img/lib/azure2/other/AVS_VM.svg;rounded=0;shadow=0;labelBackgroundColor=none;labelBorderColor=none;fillWeight=-1;hachureGap=-1;hachureAngle=-41;disableMultiStroke=1;disableMultiStrokeFill=1;fillStyle=auto;sketchStyle=rough;strokeColor=#6c8ebf;strokeWidth=3;fontFamily=Comic Sans MS;fontColor=rgb(0, 0, 0);fillColor=#A9C4EB;sketch=1;curveFitting=1;jiggle=2;" parent="bhTP2_UY_HiaFr0e0wly-48" vertex="1">
                        <mxGeometry x="-1393" y="559" width="68" height="62.8" as="geometry"/>
                    </mxCell>
                </UserObject>
                <UserObject label="" tags="" id="FSkTQp5Yen9cZjWhmWpK-17">
                    <mxCell style="edgeStyle=none;shape=connector;rounded=0;orthogonalLoop=1;jettySize=auto;html=1;exitX=0.25;exitY=0;exitDx=0;exitDy=0;labelBackgroundColor=default;strokeColor=#3399FF;strokeWidth=4;fontFamily=Comic Sans MS;fontSize=25;fontColor=default;startArrow=diamond;startFill=1;endArrow=diamond;endFill=1;sketch=1;curveFitting=1;jiggle=2;disableMultiStroke=1;" parent="bhTP2_UY_HiaFr0e0wly-48" source="bhTP2_UY_HiaFr0e0wly-49" edge="1">
                        <mxGeometry relative="1" as="geometry">
                            <mxPoint x="-2086" y="-78" as="targetPoint"/>
                        </mxGeometry>
                    </mxCell>
                </UserObject>
                <UserObject label="P2S Client" tags="" id="DSEJX4H1FlWSeaIEICfl-2">
                    <mxCell style="text;html=1;align=center;verticalAlign=middle;resizable=0;points=[];autosize=1;strokeColor=none;fillColor=none;fontSize=30;fontFamily=Comic Sans MS;fontColor=rgb(0, 0, 0);sketch=1;curveFitting=1;jiggle=2;disableMultiStroke=1;disableMultiStrokeFill=1;strokeWidth=25;fontStyle=1;" parent="bhTP2_UY_HiaFr0e0wly-48" vertex="1">
                        <mxGeometry x="-2274" y="559" width="143" height="39" as="geometry"/>
                    </mxCell>
                </UserObject>
                <UserObject label="HQ Branch" tags="" id="DSEJX4H1FlWSeaIEICfl-5">
                    <mxCell style="text;html=1;align=center;verticalAlign=middle;resizable=0;points=[];autosize=1;strokeColor=none;fillColor=none;fontSize=30;fontFamily=Comic Sans MS;fontColor=rgb(0, 0, 0);disableMultiStroke=1;disableMultiStrokeFill=1;strokeWidth=25;sketch=1;curveFitting=1;jiggle=2;fontStyle=1;" parent="bhTP2_UY_HiaFr0e0wly-48" vertex="1">
                        <mxGeometry x="-1930" y="557" width="156" height="39" as="geometry"/>
                    </mxCell>
                </UserObject>
                <UserObject label="AVS" tags="" id="DSEJX4H1FlWSeaIEICfl-6">
                    <mxCell style="text;html=1;align=center;verticalAlign=middle;resizable=0;points=[];autosize=1;strokeColor=none;fillColor=none;fontSize=30;fontFamily=Comic Sans MS;fontColor=rgb(0, 0, 0);sketch=1;curveFitting=1;jiggle=2;disableMultiStroke=1;disableMultiStrokeFill=1;strokeWidth=25;fontStyle=1;" parent="bhTP2_UY_HiaFr0e0wly-48" vertex="1">
                        <mxGeometry x="-1510" y="557" width="78" height="39" as="geometry"/>
                    </mxCell>
                </UserObject>
                <UserObject label="" tags="" id="mA_7jK8cUOhyNdoYcy30-2">
                    <mxCell style="edgeStyle=none;rounded=0;jumpStyle=none;jumpSize=2;orthogonalLoop=1;jettySize=auto;html=1;exitX=-0.026;exitY=0.389;exitDx=0;exitDy=0;shadow=0;dashed=1;strokeColor=#3399FF;strokeWidth=5;fontFamily=Comic Sans MS;fontSize=15;fontColor=#000000;startArrow=none;startFill=0;endArrow=classic;endFill=1;exitPerimeter=0;sketch=1;curveFitting=1;jiggle=2;" parent="bhTP2_UY_HiaFr0e0wly-48" source="cHquGx5Fdz1bRuiigCZR-29" edge="1">
                        <mxGeometry relative="1" as="geometry">
                            <mxPoint x="-1761" y="143" as="targetPoint"/>
                            <mxPoint x="-1397" y="-26" as="sourcePoint"/>
                        </mxGeometry>
                    </mxCell>
                </UserObject>
                <mxCell id="FMytKJnADL6UDUm3uzk5-0" value="" style="sketch=0;pointerEvents=1;shadow=0;dashed=0;html=1;strokeColor=none;fillColor=#505050;labelPosition=center;verticalLabelPosition=bottom;verticalAlign=top;outlineConnect=0;align=center;shape=mxgraph.office.servers.survivable_branch_appliance;hachureGap=4;jiggle=2;curveFitting=1;fontFamily=Architects Daughter;fontSource=https%3A%2F%2Ffonts.googleapis.com%2Fcss%3Ffamily%3DArchitects%2BDaughter;fontSize=30;" parent="bhTP2_UY_HiaFr0e0wly-48" vertex="1">
                    <mxGeometry x="-1735" y="526" width="52" height="85" as="geometry"/>
                </mxCell>
                <mxCell id="bhTP2_UY_HiaFr0e0wly-5" value="Default Flows" style="" parent="bhTP2_UY_HiaFr0e0wly-0" visible="0"/>
                <UserObject label="" tags="" id="bhTP2_UY_HiaFr0e0wly-6">
                    <mxCell style="edgeStyle=none;orthogonalLoop=1;jettySize=auto;html=1;shadow=0;strokeColor=#006600;strokeWidth=2;fontFamily=Comic Sans MS;startArrow=classic;startFill=1;endArrow=classic;endFill=1;opacity=0;curved=1;jumpStyle=none;jumpSize=2;sketch=1;curveFitting=1;jiggle=2;" parent="bhTP2_UY_HiaFr0e0wly-5" edge="1">
                        <mxGeometry width="80" relative="1" as="geometry">
                            <mxPoint x="-2160" y="14" as="sourcePoint"/>
                            <mxPoint x="-2080" y="14" as="targetPoint"/>
                            <Array as="points"/>
                        </mxGeometry>
                    </mxCell>
                </UserObject>
                <UserObject label="" tags="" id="bhTP2_UY_HiaFr0e0wly-11">
                    <mxCell style="edgeStyle=none;curved=1;jumpStyle=none;jumpSize=2;orthogonalLoop=1;jettySize=auto;html=1;exitX=0.704;exitY=1.01;exitDx=0;exitDy=0;shadow=0;dashed=1;strokeColor=#00CC00;strokeWidth=6;fontFamily=Comic Sans MS;fontSize=11;fontColor=default;startArrow=classic;startFill=1;endArrow=classic;endFill=1;entryX=0.5;entryY=0;entryDx=0;entryDy=0;exitPerimeter=0;sketch=1;curveFitting=1;jiggle=2;" parent="bhTP2_UY_HiaFr0e0wly-5" source="bhTP2_UY_HiaFr0e0wly-58" target="bhTP2_UY_HiaFr0e0wly-50" edge="1">
                        <mxGeometry relative="1" as="geometry">
                            <mxPoint x="-2007.88" y="-387.6999999999998" as="sourcePoint"/>
                            <mxPoint x="-1425.63" y="236.80000000000018" as="targetPoint"/>
                            <Array as="points">
                                <mxPoint x="-2185" y="40"/>
                            </Array>
                        </mxGeometry>
                    </mxCell>
                </UserObject>
                <UserObject label="" tags="" id="bhTP2_UY_HiaFr0e0wly-13">
                    <mxCell style="edgeStyle=none;curved=1;jumpStyle=none;jumpSize=2;orthogonalLoop=1;jettySize=auto;html=1;exitX=1;exitY=0.5;exitDx=0;exitDy=0;entryX=0.231;entryY=0.57;entryDx=0;entryDy=0;entryPerimeter=0;shadow=0;dashed=1;strokeColor=#00CC00;strokeWidth=6;fontFamily=Comic Sans MS;fontSize=11;fontColor=default;startArrow=none;startFill=0;endArrow=classic;endFill=1;sketch=1;curveFitting=1;jiggle=2;" parent="bhTP2_UY_HiaFr0e0wly-5" source="bhTP2_UY_HiaFr0e0wly-50" target="bhTP2_UY_HiaFr0e0wly-44" edge="1">
                        <mxGeometry relative="1" as="geometry">
                            <Array as="points">
                                <mxPoint x="-1124" y="351"/>
                            </Array>
                        </mxGeometry>
                    </mxCell>
                </UserObject>
                <UserObject label="&lt;font size=&quot;1&quot; style=&quot;&quot;&gt;&lt;b style=&quot;font-size: 30px;&quot;&gt;ER to ER Transit via Global Reach or NVA Transit&lt;/b&gt;&lt;/font&gt;" tags="" id="cHquGx5Fdz1bRuiigCZR-29">
                    <mxCell style="text;whiteSpace=wrap;html=1;fontSize=20;fontFamily=Comic Sans MS;fontColor=#000000;sketch=1;curveFitting=1;jiggle=2;" parent="bhTP2_UY_HiaFr0e0wly-5" vertex="1">
                        <mxGeometry x="-1397" y="-13" width="637" height="52" as="geometry"/>
                    </mxCell>
                </UserObject>
                <UserObject label="" tags="" id="bhTP2_UY_HiaFr0e0wly-3">
                    <mxCell style="edgeStyle=none;curved=1;jumpStyle=none;jumpSize=2;orthogonalLoop=1;jettySize=auto;html=1;exitX=0.75;exitY=0;exitDx=0;exitDy=0;entryX=0.334;entryY=0.008;entryDx=0;entryDy=0;entryPerimeter=0;shadow=0;dashed=1;strokeColor=#0000FF;strokeWidth=6;fontFamily=Comic Sans MS;fontSize=25;fontColor=#000000;startArrow=classic;startFill=1;endArrow=classic;endFill=1;fillColor=#fa6800;flowAnimation=1;sketch=1;curveFitting=1;jiggle=2;" parent="bhTP2_UY_HiaFr0e0wly-5" edge="1">
                        <mxGeometry relative="1" as="geometry">
                            <mxPoint x="-1860.5" y="220" as="sourcePoint"/>
                            <mxPoint x="-1609.46" y="221.5999999999999" as="targetPoint"/>
                            <Array as="points">
                                <mxPoint x="-1928" y="120"/>
                                <mxPoint x="-1748" y="160"/>
                            </Array>
                        </mxGeometry>
                    </mxCell>
                </UserObject>
                <UserObject label="&lt;font style=&quot;font-size: 30px;&quot;&gt;&lt;b&gt;Internet&lt;/b&gt;&lt;/font&gt;" tags="" id="bhTP2_UY_HiaFr0e0wly-44">
                    <mxCell style="ellipse;shape=cloud;whiteSpace=wrap;html=1;rounded=0;glass=0;labelBackgroundColor=default;fillStyle=auto;strokeColor=#000000;strokeWidth=4;fontFamily=Comic Sans MS;fontSize=25;fontColor=#000000;fillColor=none;gradientColor=none;opacity=70;sketch=1;curveFitting=1;jiggle=2;" parent="bhTP2_UY_HiaFr0e0wly-5" vertex="1">
                        <mxGeometry x="-1215" y="110" width="300" height="80" as="geometry"/>
                    </mxCell>
                </UserObject>
                <UserObject label="" tags="" id="cHquGx5Fdz1bRuiigCZR-30">
                    <mxCell style="shape=image;html=1;verticalAlign=top;verticalLabelPosition=bottom;labelBackgroundColor=#ffffff;imageAspect=0;aspect=fixed;image=https://cdn1.iconfinder.com/data/icons/iconoir-vol-3/24/light-bulb-on-128.png;rounded=0;glass=0;labelBorderColor=#FF0000;fillStyle=auto;strokeColor=#000000;strokeWidth=4;fontFamily=Comic Sans MS;fontSize=25;fontColor=#000000;fillColor=none;gradientColor=none;opacity=70;sketch=1;curveFitting=1;jiggle=2;" parent="bhTP2_UY_HiaFr0e0wly-5" vertex="1">
                        <mxGeometry x="-1495" y="-57" width="78" height="78" as="geometry"/>
                    </mxCell>
                </UserObject>
                <UserObject label="" tags="" id="j9oCdi_VxKx7eaR4tZM7-0">
                    <mxCell style="edgeStyle=none;curved=1;jumpStyle=none;jumpSize=2;orthogonalLoop=1;jettySize=auto;html=1;exitX=0.25;exitY=0;exitDx=0;exitDy=0;shadow=0;strokeColor=#00CC00;strokeWidth=6;fontFamily=Comic Sans MS;startArrow=classic;startFill=1;endArrow=classic;endFill=1;dashed=1;sketch=1;curveFitting=1;jiggle=2;disableMultiStroke=1;entryX=0.356;entryY=0.984;entryDx=0;entryDy=0;entryPerimeter=0;" parent="bhTP2_UY_HiaFr0e0wly-5" source="bhTP2_UY_HiaFr0e0wly-54" target="bhTP2_UY_HiaFr0e0wly-57" edge="1">
                        <mxGeometry relative="1" as="geometry">
                            <Array as="points">
                                <mxPoint x="-2125" y="-65"/>
                            </Array>
                            <mxPoint x="-3057.529" y="234.41000000000076" as="sourcePoint"/>
                            <mxPoint x="-2528" y="-650" as="targetPoint"/>
                        </mxGeometry>
                    </mxCell>
                </UserObject>
                <UserObject label="" tags="" id="j9oCdi_VxKx7eaR4tZM7-1">
                    <mxCell style="edgeStyle=none;curved=1;jumpStyle=none;jumpSize=2;orthogonalLoop=1;jettySize=auto;html=1;exitX=0.759;exitY=0.095;exitDx=0;exitDy=0;shadow=0;dashed=1;strokeColor=#00CC00;strokeWidth=6;fontFamily=Comic Sans MS;startArrow=classic;startFill=1;endArrow=classic;endFill=1;sketch=1;curveFitting=1;jiggle=2;disableMultiStroke=1;exitPerimeter=0;" parent="bhTP2_UY_HiaFr0e0wly-5" source="bhTP2_UY_HiaFr0e0wly-54" edge="1">
                        <mxGeometry relative="1" as="geometry">
                            <Array as="points">
                                <mxPoint x="-2398" y="-65"/>
                                <mxPoint x="-2593" y="169"/>
                            </Array>
                            <mxPoint x="-2970" y="312" as="sourcePoint"/>
                            <mxPoint x="-2710" y="299" as="targetPoint"/>
                        </mxGeometry>
                    </mxCell>
                </UserObject>
                <UserObject label="" tags="" id="j9oCdi_VxKx7eaR4tZM7-2">
                    <mxCell style="edgeStyle=none;curved=1;jumpStyle=none;jumpSize=2;orthogonalLoop=1;jettySize=auto;html=1;exitX=0.567;exitY=0.19;exitDx=0;exitDy=0;entryX=0.117;entryY=0.002;entryDx=0;entryDy=0;shadow=0;dashed=1;strokeColor=#00CC00;strokeWidth=6;fontFamily=Comic Sans MS;fontSize=11;fontColor=default;startArrow=classic;startFill=1;endArrow=none;endFill=0;exitPerimeter=0;entryPerimeter=0;sketch=1;curveFitting=1;jiggle=2;disableMultiStroke=1;" parent="bhTP2_UY_HiaFr0e0wly-5" source="bhTP2_UY_HiaFr0e0wly-55" edge="1">
                        <mxGeometry relative="1" as="geometry">
                            <Array as="points">
                                <mxPoint x="-2293.57" y="-143"/>
                            </Array>
                            <mxPoint x="-2515" y="245.01000000000022" as="sourcePoint"/>
                            <mxPoint x="-2251.958" y="267.8200000000006" as="targetPoint"/>
                        </mxGeometry>
                    </mxCell>
                </UserObject>
                <UserObject label="" tags="" id="bhTP2_UY_HiaFr0e0wly-10">
                    <mxCell style="edgeStyle=none;curved=1;jumpStyle=none;jumpSize=2;orthogonalLoop=1;jettySize=auto;html=1;exitX=0.5;exitY=0;exitDx=0;exitDy=0;shadow=0;dashed=1;strokeColor=#00CC00;strokeWidth=6;fontFamily=Comic Sans MS;fontSize=11;fontColor=default;startArrow=none;startFill=0;endArrow=classic;endFill=1;sketch=1;curveFitting=1;jiggle=2;entryX=0.397;entryY=0.254;entryDx=0;entryDy=0;entryPerimeter=0;" parent="bhTP2_UY_HiaFr0e0wly-5" source="bhTP2_UY_HiaFr0e0wly-52" target="bhTP2_UY_HiaFr0e0wly-49" edge="1">
                        <mxGeometry relative="1" as="geometry">
                            <Array as="points">
                                <mxPoint x="-2235" y="-20"/>
                                <mxPoint x="-2175" y="-100"/>
                            </Array>
                        </mxGeometry>
                    </mxCell>
                </UserObject>
                <mxCell id="ff7anAwrImGbUtOLiGLd-138" value="&lt;div style=&quot;text-align: center;&quot;&gt;&lt;span style=&quot;background-color: initial;&quot;&gt;&lt;b style=&quot;&quot;&gt;&lt;font style=&quot;font-size: 20px;&quot;&gt;Instance Level PIP&lt;/font&gt;&lt;/b&gt;&lt;/span&gt;&lt;/div&gt;" style="text;whiteSpace=wrap;html=1;fontSize=31;fontFamily=Comic Sans MS;fontColor=#000000;" parent="bhTP2_UY_HiaFr0e0wly-5" vertex="1">
                    <mxGeometry x="-2190" y="-1001" width="208" height="65" as="geometry"/>
                </mxCell>
                <mxCell id="ff7anAwrImGbUtOLiGLd-137" value="" style="aspect=fixed;html=1;points=[];align=center;image;fontSize=12;image=img/lib/azure2/networking/Public_IP_Addresses.svg;labelBackgroundColor=none;labelBorderColor=none;sketch=1;fillStyle=solid;fontFamily=Comic Sans MS;fontColor=#000000;" parent="bhTP2_UY_HiaFr0e0wly-5" vertex="1">
                    <mxGeometry x="-2268" y="-1001" width="65" height="52" as="geometry"/>
                </mxCell>
                <mxCell id="ff7anAwrImGbUtOLiGLd-139" style="edgeStyle=none;disableMultiStroke=1;html=1;exitX=0.909;exitY=0.096;exitDx=0;exitDy=0;entryX=0.2;entryY=0.725;entryDx=0;entryDy=0;entryPerimeter=0;fontFamily=Comic Sans MS;fontSize=11;fontColor=default;startArrow=none;startFill=0;endArrow=classic;endFill=1;curved=1;exitPerimeter=0;strokeColor=#00CC00;shadow=0;strokeWidth=6;dashed=1;sketch=1;curveFitting=1;jiggle=2;" parent="bhTP2_UY_HiaFr0e0wly-5" source="bhTP2_UY_HiaFr0e0wly-38" target="bhTP2_UY_HiaFr0e0wly-45" edge="1">
                    <mxGeometry relative="1" as="geometry">
                        <Array as="points">
                            <mxPoint x="-2320" y="-936"/>
                        </Array>
                    </mxGeometry>
                </mxCell>
                <mxCell id="cHquGx5Fdz1bRuiigCZR-2" value="IPs" style="" parent="bhTP2_UY_HiaFr0e0wly-0" visible="0"/>
                <UserObject label="&lt;b&gt;172.16.0.0/16&lt;/b&gt;" tags="" id="DSEJX4H1FlWSeaIEICfl-15">
                    <mxCell style="text;html=1;align=center;verticalAlign=middle;resizable=0;points=[];autosize=1;strokeColor=none;fillColor=none;fontSize=20;fontFamily=Comic Sans MS;fontColor=#000000;disableMultiStroke=1;disableMultiStrokeFill=1;strokeWidth=25;sketch=1;curveFitting=1;jiggle=2;" parent="cHquGx5Fdz1bRuiigCZR-2" vertex="1">
                        <mxGeometry x="-2437" y="-429" width="169" height="39" as="geometry"/>
                    </mxCell>
                </UserObject>
                <UserObject label="&lt;b style=&quot;font-size: 30px;&quot;&gt;10.1.0.0/16&lt;br&gt;VM:10.1.1.4&lt;/b&gt;" tags="" id="DSEJX4H1FlWSeaIEICfl-12">
                    <mxCell style="text;html=1;align=center;verticalAlign=middle;resizable=0;points=[];autosize=1;strokeColor=none;fillColor=none;fontSize=20;fontFamily=Comic Sans MS;fontColor=#000000;sketch=1;curveFitting=1;jiggle=2;" parent="cHquGx5Fdz1bRuiigCZR-2" vertex="1">
                        <mxGeometry x="-2547" y="-783" width="221" height="91" as="geometry"/>
                    </mxCell>
                </UserObject>
                <UserObject label="&lt;b style=&quot;color: rgb(0, 0, 0); font-family: &amp;quot;Comic Sans MS&amp;quot;; font-size: 30px; font-style: normal; font-variant-ligatures: normal; font-variant-caps: normal; letter-spacing: normal; orphans: 2; text-align: center; text-indent: 0px; text-transform: none; widows: 2; word-spacing: 0px; -webkit-text-stroke-width: 0px; background-color: rgb(248, 249, 250); text-decoration-thickness: initial; text-decoration-style: initial; text-decoration-color: initial;&quot;&gt;10.2.0.0/16&lt;br&gt;VM:10.2.1.4&lt;/b&gt;" tags="" id="DSEJX4H1FlWSeaIEICfl-13">
                    <mxCell style="text;whiteSpace=wrap;html=1;fontSize=20;fontFamily=Comic Sans MS;fontColor=#000000;sketch=1;curveFitting=1;jiggle=2;" parent="cHquGx5Fdz1bRuiigCZR-2" vertex="1">
                        <mxGeometry x="-2082" y="-770" width="169" height="78" as="geometry"/>
                    </mxCell>
                </UserObject>
                <UserObject label="&lt;font style=&quot;font-size: 30px;&quot;&gt;&lt;span style=&quot;font-size: 30px;&quot;&gt;10.8.0.0/16&lt;br style=&quot;font-size: 30px;&quot;&gt;VM: 10.8.1.4&lt;/span&gt;&lt;/font&gt;" tags="" id="DSEJX4H1FlWSeaIEICfl-7">
                    <mxCell style="text;html=1;align=center;verticalAlign=middle;resizable=0;points=[];autosize=1;strokeColor=none;fillColor=none;fontSize=30;fontFamily=Comic Sans MS;fontColor=#000000;sketch=1;curveFitting=1;jiggle=2;fontStyle=1" parent="cHquGx5Fdz1bRuiigCZR-2" vertex="1">
                        <mxGeometry x="-3313" y="397" width="234" height="91" as="geometry"/>
                    </mxCell>
                </UserObject>
                <UserObject label="&lt;font style=&quot;font-size: 30px;&quot;&gt;&lt;b&gt;10.10.0.0/16&lt;br&gt;VM: 10.10.2.5&lt;/b&gt;&lt;/font&gt;" tags="" id="DSEJX4H1FlWSeaIEICfl-8">
                    <mxCell style="text;html=1;align=center;verticalAlign=middle;resizable=0;points=[];autosize=1;strokeColor=none;fillColor=none;fontSize=25;fontFamily=Comic Sans MS;fontColor=#000000;sketch=1;curveFitting=1;jiggle=2;" parent="cHquGx5Fdz1bRuiigCZR-2" vertex="1">
                        <mxGeometry x="-2742" y="410" width="247" height="91" as="geometry"/>
                    </mxCell>
                </UserObject>
                <UserObject label="&lt;font style=&quot;font-size: 30px;&quot;&gt;&lt;b style=&quot;&quot;&gt;IP Pool&lt;br&gt;192.168.98.0/25&lt;br&gt;192.168.98.128/25&lt;br&gt;&lt;/b&gt;&lt;span style=&quot;text-align: left;&quot;&gt;&lt;b style=&quot;&quot;&gt;&lt;font style=&quot;font-size: 30px;&quot;&gt;IP: 192.168.98.130&lt;/font&gt;&lt;/b&gt;&lt;/span&gt;&lt;b style=&quot;font-size: 20px;&quot;&gt;&lt;br&gt;&lt;/b&gt;&lt;/font&gt;" tags="" id="DSEJX4H1FlWSeaIEICfl-9">
                    <mxCell style="text;html=1;align=center;verticalAlign=middle;resizable=0;points=[];autosize=1;strokeColor=none;fillColor=none;fontSize=25;fontFamily=Comic Sans MS;fontColor=#000000;sketch=1;curveFitting=1;jiggle=2;" parent="cHquGx5Fdz1bRuiigCZR-2" vertex="1">
                        <mxGeometry x="-2331" y="364" width="325" height="156" as="geometry"/>
                    </mxCell>
                </UserObject>
                <UserObject label="&lt;font style=&quot;font-size: 30px;&quot;&gt;&lt;b&gt;10.99.0.0/16&lt;br&gt;VM: 10.99.1.4&lt;/b&gt;&lt;/font&gt;" tags="" id="DSEJX4H1FlWSeaIEICfl-10">
                    <mxCell style="text;html=1;align=center;verticalAlign=middle;resizable=0;points=[];autosize=1;strokeColor=none;fillColor=none;fontSize=25;fontFamily=Comic Sans MS;fontColor=#000000;sketch=1;curveFitting=1;jiggle=2;" parent="cHquGx5Fdz1bRuiigCZR-2" vertex="1">
                        <mxGeometry x="-1955" y="397" width="247" height="91" as="geometry"/>
                    </mxCell>
                </UserObject>
                <UserObject label="&lt;b style=&quot;font-size: 23px;&quot;&gt;10.100.0.0/16&lt;br style=&quot;&quot;&gt;10.100.0.0/22 (MGMT)&lt;br style=&quot;&quot;&gt;10.100.220.0/24(web-segment)&lt;br style=&quot;&quot;&gt;VM:10.100.220.10&lt;/b&gt;" tags="" id="DSEJX4H1FlWSeaIEICfl-11">
                    <mxCell style="text;html=1;align=center;verticalAlign=middle;resizable=0;points=[];autosize=1;strokeColor=none;fillColor=none;fontSize=20;fontFamily=Comic Sans MS;fontColor=#000000;sketch=1;curveFitting=1;jiggle=2;" parent="cHquGx5Fdz1bRuiigCZR-2" vertex="1">
                        <mxGeometry x="-1562" y="397" width="390" height="130" as="geometry"/>
                    </mxCell>
                </UserObject>
                <object label="Challenges" id="bhTP2_UY_HiaFr0e0wly-1">
                    <mxCell style="" parent="bhTP2_UY_HiaFr0e0wly-0" visible="0"/>
                </object>
                <UserObject label="&lt;font style=&quot;font-size: 20px;&quot;&gt;&lt;b&gt;VPN ER Transit using ARS B2B Toggle&lt;/b&gt;&lt;/font&gt;" tags="" id="XfwaBgkW9DTcoekpxLKl-1">
                    <mxCell style="text;html=1;align=center;verticalAlign=middle;resizable=0;points=[];autosize=1;strokeColor=none;fillColor=none;fontSize=17;fontFamily=Comic Sans MS;fontColor=#000000;sketch=1;curveFitting=1;jiggle=2;" parent="bhTP2_UY_HiaFr0e0wly-1" vertex="1">
                        <mxGeometry x="-1612" y="-212.5" width="403" height="39" as="geometry"/>
                    </mxCell>
                </UserObject>
                <UserObject label="" tags="" id="XfwaBgkW9DTcoekpxLKl-3">
                    <mxCell style="shape=image;html=1;verticalAlign=top;verticalLabelPosition=bottom;labelBackgroundColor=#ffffff;imageAspect=0;aspect=fixed;image=https://cdn1.iconfinder.com/data/icons/iconoir-vol-3/24/light-bulb-on-128.png;rounded=0;glass=0;labelBorderColor=#FF0000;fillStyle=auto;strokeColor=#000000;strokeWidth=4;fontFamily=Comic Sans MS;fontSize=25;fontColor=#FF0000;fillColor=none;gradientColor=none;opacity=70;sketch=1;curveFitting=1;jiggle=2;" parent="bhTP2_UY_HiaFr0e0wly-1" vertex="1">
                        <mxGeometry x="-1677" y="-143" width="81" height="81" as="geometry"/>
                    </mxCell>
                </UserObject>
                <UserObject label="&lt;div style=&quot;direction:ltr;border-width:100%&quot;&gt;&lt;div style=&quot;direction:ltr;margin-top:0in;margin-left:0in;width:5.0736in&quot;&gt;&lt;div style=&quot;direction:ltr;margin-top:0in;margin-left:0in;width:5.0736in&quot;&gt;&lt;p style=&quot;margin:0in;font-family:&amp;quot;Comic Sans MS&amp;quot;;font-size:12.0pt&quot;&gt;&lt;br&gt;&lt;/p&gt;&lt;br&gt;&lt;p style=&quot;margin:0in&quot;&gt;&lt;img height=&quot;56&quot; width=&quot;483&quot; src=&quot;data:image/png;base64,iVBORw0KGgoAAAANSUhEUgAAA8YAAABxCAIAAACY1C3GAAAAAXNSR0IArs4c6QAAAARnQU1BAACxjwv8YQUAAAAJcEhZcwAAHYcAAB2HAY/l8WUAADcPSURBVHhe7d0HWBPnHwdwIRAgjLBFlOWsuPe2LnC1dVS0/Veto7Vqa62rbltXHVVrq7XuVtS2ztbWvVcdiAO1UBVZAWQFCBBGgPD/Ju8RYxIwQBjK7/PkgcvdJXe5uzf3zZs37xkVFBTUIIQQQgghhJSWMfefEEIIIYQQUiplraUOCQnhhgghhBBCCKmWqJaaEEIIIYSQMqG21IQQQgghhJQJ1VITQgghhBBSJhSpCSGEEEIIKROK1IQQQgghhJQJRWpCCCGEEELKhCI1IYQQQgghZUKRmhBCCCGEkDKhSE0IIYQQQkiZUKQmhBBCCCGkTOhSL4QQQgghRaKkVM0ZGRlxQ8UqZaSmw4uQ0tGzZBJCCKlELOdo/yXVDc7a7MSt/lenEkRqOrwIKSNlwdSrZBJCCKksiDcqRn37cmNJNVZw6pSxsXHx5259IzU7sBg6vAgpC31KJiGEkErBoo5cKT8/n//WW9wEUo3Jjh7lKeGsjTM4N/ZFev08UXV44djKzc3lxhJCSgWFCEUJBYqVLG4sIYSQqoEyD9Ggz4lb3x4/6PAixFBQiPLy8lCguPuEEEKqDJaZWODJysrixpLqLTs7WyaT4ajAsYG77K+GEtRS0+FFiEGgEKlStc5iSQghpBKxzIMIRZmHMDgSWKQu5sRdglpqOrwIMQiNkllU4SSEEFLB2Hsy4C06Ly8vJyeHm0CqNxwJubm5OGsDN0rLy3+eiBnweBxbyAEgkUjqT57MTSOElFzopk1CodDCwsLc3NzExET1U0VCCCGVi2UehGmpUkpKSpNp07hphbb5+eFNm+FGkdeC4rOU0scHDnCjCv373Xe2trY4d/OVdJ649Y3UdHgRUiLKUqmgs2Ta2dlZWloKBAJEavYLYm4aIYSQyoM3bVY/jcCTkZEhFotbzJrFTSu0ddgwVecPDDeBvLLY+Rqw92HCwYPchEL316xBpMa528zMrEyRmg4vQvSnLJUKRZXMoG+/dXBwsLKyQqQ2NTVlBYebRgghpPKwt+7c3FyWeZKSklrNns1NK7TNzw9v3aoKEXoDfw2oztqIu9j72nVhd1etsre3Z5EayhSp6fAiRE8oMorGVsrvdnSWzDsrVzo6OlpbW1taWlKkJoSQqkOVeRB4WOZpPWcON63QntGjWa5S/5qR3sZfXdjpbL/jrC2TybKzs0f6+3PTCuHEzSK1ubm5ASI1HV6EFI+VJlXJzFHSWTIRqa2UKFITQkjVoZF5EhMT28ydy00r9OfkyQKBwMLCglUmIl1xE8irCTud7XfWCYdUKh3y00/ctELlEqnp8CKkeKr66Uwl7ZJ5e8UKVS01n8+nSE0IIVWEPpnn9MyZVlZWeANnNYk60xV5hSgCdUEBdnpOTg7O2hKJpN+6ddy0QojUyNNI1eUeqenwIoRRFkxFycSHXZSX9PT0vmvXctMKUaQmhKiLj4+Pjo6Oi4tLSkrC6RwndbyB4MM5N5lULGXDPTl2AUil0s1hYdyEQuPd3JB2WOChN/AKhoRpamoqEAhwDnVwcHB2dnZ1dXVycuImlwrO2tjjOHFnZWXhxJ2amtp92TJuWqGKi9RXFi60UcKS8FIpUpNqS1Uys7Oz05S6LV3KTStEkZoQAuHh4cHBwY8fP0aM5kaRKkCZqIuL1BM8PVmuYpEamYebQCoJ8meDBg3eeOMNT09PblRJqIIuPs2mp6cnJyd3+uorblqhCqylXmQqtDW1EfLNzHh8vjESAkZSSCDVEMpTfn6BTCbPyclPk8gkqbm+SzSv4U+RmpBqLiAgIDAwMCEhgd0VCoXu7u6sss3W1tbKyor10sWmkoqkT+YJ/OYb7CawsLBg7+EYSW/jFYN92sGuwQdR7J3Y2FiRSKT6UOrs7NymTZt27dqxu3piOx1PyyK1WCxuN38+N61QxUXq80v4Qlu+UMg3t1BEamMuUtPhRaodlBe5MlJnZ+VLFJFa1muRjJtWiCI1IdXWrVu3rl69yhIAMlmzZs0aN26MMM2mkkqnT+ZBumKRWiAQ0Ht4VYBgHRIS8uDBA1aybGxsunbtqn+wVo/UaWlpSUlJbefN46YVqrhIfXGZGSK1jdBUIDAxVdZS0+FFqidleSnIlcmzEKlTZakpsp4LNa9nS5GakGpIJBKdOXMmKioKw25ubh06dGjatCmbRKoOPSM10hUiNaulNjExwUh6G68KHj58ePPmTZQ1DLu7u/v4+KCssUnFUDX1kUqliNRisbionV58pDbY90p4ZtWzswHlGLrRrRrdGI3jnxBCrl69umPHDuRpnJLffffd8ePHU55+DeDdvvANn97rqwQUKxQuFDEUNBQ3FDoUPW5a0VS7T7k/S78rDdxUC2vC1oaOLlIN0fFPCNFQUFBw6NChs2fPYrhTp05Tpkxp1qwZm0QIKQ8oYihoKG4YRtFDAXxpiwyDMFjDD1s7vo2QLxDwTOl7bFKNsZ8n5sryVQ0/eiyghh+EVFOZmZn79u2LjIw0MzMbNGiQt7c3N4FUVSVq+KF/W+qQhJyL4ZkBoszg+JwoSW5yZr4svyJC3muJzzOyF/DchabeNc3auwl6eAkaO5tx014UHBx85MiRnJwcDw+PESNGYH9xE17Edrp6W+pKbvhBCCGEEBWcnvfu3Ys87eTkNH78eMrT1VBKVv63l5Na/fDU+7vQyX/G/nI7NSA6Ky49j/J0WWDrYRtiS2J7Yqti22ILYztja3NzFEKhQ9FDAUQxRGFEkeQmlA+K1IQQQoiBFRQU7Nu3LyYmxtXVdfTo0c7OztwEUj1k5Mjnnox3Wf7oyxPx955lc2NJ+cAWxnbG1sY2x5bnxiqh6KEAohiiMKJIvrRpRllQpCaEEEIM7PDhw6x++v3337e2tubGkurB/05qg7VPVl5KotroioStjW2OLY/tz41SQgFEMWR11SiY3NhyQJGaEEIIMaSrV68+ePDAzMzMz8+P8nR188kfsR8eiIlLz+Puk4qFLY/tj73A3VdCMURhRJFEwdSnD5DSoUhNCCGEGIxIJGL9ewwaNIjae1QrKVn5vbdHbA1I4e6TyoO9gH2h3roahRFFEgMonqzjaoOjSE0IIYQYzJkzZ/C3U6dO9HvEagXprd/OyPNPpdx9UtmwL7BH1FM1iiTrWY8VUoOjSE0IIYQYxq1bt9j1XHx9fblRpHoYtlcUEJ3F3SFVA/YI9gt3RwkFk10FBkWVG2U4FKkJIYQQw2DNNHv27EmdzVcrn/wRS/XTVRP2i3q7ahRMFE8MlEeLaorUhBBCiAEEBARIJBI3N7eqcH1EmUy2bu3aTh07zJ0zJyMjgxtbbrZt3dqmdashgwfFxcVxo/RQukeV1Jkzp7GUXj173Lt3lxtlUP53Ul+P9tO3Pq1bsKJJ2JcN2tS24EbpoXSPKqnDI92wlORFbwx8o8S/98XeUe8DBMUThRRFFQWWG2UgFKkNZvmiez3bH5s++aY04zX5na//9lC8olHvXkyIe2371Hz99hohpLIEBgbib4cOHdjdMkIO/uSTCciC2re+vj7jxo7ZuWNHZEREUf3sJicnX7lyGcH65s0boaFPuLHE0DJy5HNOxnN3SgIBFDEUMbGoW9ZS76ldHLi5SdnMfrG/alZIWYE1oIqL1Cy7aNz6dDo+YeTVvT8/TZfkcvMRQgghr5rw8PCEhARbW9umTZtyo8pNUlJSUFDQjz9uHDp0yOhRI2/evMlNUGNvb9+uXXs+n9+hQ8f69RtwY4mhrbiYGEc1MlVeXHre8guJ3J0aNVBIUVRRYFFsuVGGUMm11Pn5BU8eS7b/9N/EMf/8++CFrrmJSqY0/9gfohmTbz68T13zEEJIVRQcHIy/5dHko0XLlvsPHDx2/MRffx9du+67JUuXTps+vX379ubm5piK5U757NPt27bJ5S9cNA5het78+ddv3FyxcqWVlRU3lhhUalb++n+SuTulFZWaO3Jf9Fu7ojRuQ3ZHHQlO42YiZbbuqli99w9WVFmxNZSKjtSuroIfd3bZ91dv3Faub//5rKaNGttifGyM9PtVDxMTcthsRF3A9YQ1K+6HPkkrz+toEkIIKb3Hjx/jb+PGjdldAzI1Na1Zs6aLi0vt2rV79OgxcOBbI0eO+mnzlrPnzk+aNNnS0jI/P3/Lls07d+wo14stE22/3E4t+/UR8wsK/kuUHfsvXeN28nFGRAp9gW8w2FPbbz2vl2RFlRVbQ6noSG3MM3J0NHd2Udw6dHYa4uex6ecuwz+oi0lPQ9Nu3UhgsxFCCCGvivj4eIlEIhQKXV1duVHlz8LC4qOPP/5u/fcODg5yuXz//n3379/nppEKse++hBsir4Jf7z3fXyiqKLAotii83Kgyq/yfJxob1/DpV9vRyVwuL0iiWmpCCCGvmujoaPx1d3dndytSmzZtvpg2zdzcXCwWHzt6lCqqK8zjJNn9OAotr5J7z7JD1HImK7Cs8BpE5UdqsBHyzc153B1CCCHklcL6gKvIKmp1PXv2at26NQYCA289e/aMjYQFC+a3ad3qk08maHSih9h9OzBwzuzZvXv1VHUhgrsPHjzg5lDCbP/9F7J06ZIhgwe1b9cWs3Xp3Omj8ePPnjmj0W5bAx54/fo1zIn58aju3bp+MXUqlljSuI+t+u3qVQMH9MeTYPlDhwze8MMPaZIiK4a15/fftSsrq7wuv/JPZCY3VCHU+6rzdjb79b06yYvekH/TBDcM4C5GcrOq8bQzXd2/5qMZDTIWN1Z1JBLwad0xbRRtbovhbGXyw9u14uY3yv+mBI/SYMU3ntHNIWR6/Zxl3niS3OXeUXMarn/LBU/OzaEFi8CCsDjMj0VjBbAaxcxfUhfDn+81VmAN2IFjlYjU8fFZaWm5fD6vfiMbbpSSeiduCfHZKxcH9e9+EmPWLH9e7GNEmVs2/Dd2xGU2iXUh8vfhqCy1RujMg6CUQT5nMM/Fs4p3nCeP0uZND3yr5ymMwV8MYwybUxvePS6dfTZ7asBgX8Uz4IYB3L16Sff3BVj6vt1ho4dd6t3xOG4YwF3tVSoeXjVeO5a1eN4d3E2TyD7/+BpbunbHdninunc7ecm8u8MGnGPz4EV98ckNrHaxb336wvPfupE4dcINtp3ZFsMStd8h9dlr7AeXUz66ptqe771zfsOaf7V76yvLXoOnT9Kx3A8GX8BewEOwJhNGXf3N/6nOfWGQvUYIqYaSkpLw18nJid2tYBYWFr1798EA8vRL+8tDxFy2bOnEiZ+cOXM6NZXrFQDrj7s3rl9ndyE7O3vJ4sWjRo78848/oqKi8vMV74QYeffunblz56xdu0Ymk7E5NeTk5OD5P58yBXNifoyRSqVXrlzGEjdu3FDUozQgfB86dHC437Dff/+dJR6E+MjIyF9++XnUqJHa7Vsw/9GjR7Xn//779RM/+SQ+zmDf7Ku7E1s510psU9v8/Mee77cQ2lnwjIxq4IYB3P3t/Tod3V/oGfp/LYU3J9ed1d2xoSPfks/lPXMTo3Z1LH4a7Lqqf002RlsdocnlCZ5TOtvXtDIxVl6ziD1q21DX7e+6Iigr53qJVq6K9fy2v8sbTmZ8nuJZ8FxuQtOpXRzOjPfQWFVAbj400m3Hu7WxICwOY7BorABWA/PrudCXChA9j9SswLLCaxCVH6llMvnJv0TIi81b27doZc+NfVFMtHTO1IBTx6KzsxWlOieHSzk7tzz+cPjF33c/jQhPZ5NYFyLrVj5YtTgorYiO+ZAC9/78dNKYq9evxkulir5v8BfDMz+7iQDK5lEnipB+8cn1r+fdCbieKEnl3g4wgLuXzumY/1ls5ozJNzdvCBFFZcjlBbhhAHcXzQosapXKCMl10ezbMz69ceFsrDiJS6V4UUF3xVjtz8Zfw0tgI0sHG3ztNw/mfHHr/j0x285si2GJ2zc9wh5ks2koaq8hiI8cdmHNivsP76eotmd8XNbh/RHTJt0oquOXku41ROGN64I/GX3l2JGo2NhM7AWMxJo8eSQ5fkSk3Wljxe81QshrQ6KsOrW1LVkdngF5enkKhUIE1pjoGG5UEfbs3o2UbGRkNHjIkH3791+5cvXEyVObt2zpP2CAKd+Um6lGjby8vNhnsXw+H+MxFfNgzh07d3p7eyOt4hmuq+Vvlfx8+fZt2/7+6y/fvn1/2eV//sLFY8dPzJ07r1atWniU/65dBw8e4GYt1okTx9etXYss7uXltWzZ8jNnz2EFvpw9297BITo6evmyZTExL7xMzL/im+WYHzNgNiwUa4tXh9cYEhK8Z89ubj6Depyg18cDwxKYGi/q7WRtZvzz7dS+OyPb/xi26ExCovKc2Kym+eSOL4QoJ0sTG3Nehkx+JDh99P6YLpvDcdt2KyU7rwCZ9cPWtr4NdHQFg+CLHOxlz78YJsWjsIhhe0V/BqfjUZiER335piM3a9E87Uw3DXJFOMZwcELOp0ee4XlG7Y+5FpmJs3FzF/O1A1wQr9nMgMT80+BaQ7xtEKPFmfnr/xH32haBh+CBeHjTmuadPQTcrGUTHP+84QcrsKzwGkRlRmpEsdsB4nnTbh3/W+RV1/rzGU0sddXt5+XKf/V/mpMjX7am3bkbAy8EDJy/pCWb9CxG8WmjQ2fnJavb7vu79/EL/bbt6da5m+KD15WLcadP6G4fc+VC3K/+oXjUjzu74CF7D/cc/r+6PJ4RYv3eX55q9DoiipR+Nef2g6BkzNC7X2085PBJn0MnfDbv6jpqXAOhLZ+br1BGWu7aFQ/i4jI/n9UUq3TweJ+V69vXraeofQ8MSNq3J4zNpg9HZ/N1P3Xa91fv6XMUXb1YC/lL8TKVnaVgPKay2RD4vl0adPWi4nM5XjvW8M/TvrhhoKePq7GxUci/KV/PvfMsppSfp+X5NXbvCD15VNTT1xXPeeSML1Zg2uxmLi4WyJ34PPPX4UhuVjXF7LXUlJwUcY6Hp9Vn05v4H+jx11nf/Uf7fPhxQ3NzXmyM9NdfQnVWDJdor+HQ2rjm30O/h+MjVqPGtguXtcYisOZY3My5zes1sKnx4qWCDbjXCCHVUGam4mRUiX3VubjUQqTGQPEXSkxKSjp//hwGBg8esmDBwvr1GwgsLZ2dndu1a4/kOmbMWDYb07ZN2337D2A8pmIezNmyZauvFy9xdXXNzs4+d/aMdkOOmJhoPP/ChYvwqGbNmmGVXFxchvn5/bjpp3r16iFV/3H4sEgk4uYuQkhIyMYNG7CI9u3bb922HZne3t4eKzBixHsrV6zEc4aGPjl8+BA3d40aCQkJ+JyA+bGI7dt3YDYsFGuLV4fXiJVJT0/nZjWo6PRKqG2paWVixjOecDh23MGY008ybkVnLT2f+NlfccmZ+UZGNXrUtVSv/c3Okx96mNbhx7DBu6N2301FnMUNj911OxW7ztnSxKeBJTerGiTd2kKThacTem6LwKOwCDzJkN1R80/FZ+bKkapHthK+9EKJS3ycO7hZYClHQtLxPJtuJON59txVfAz4K0SxO9rWsXivheKIZd5vIUS+x0t4Kpa9tSty2tG4C2FSPAQPxMPxEHyW4GYtmyi1OjJWYFnhNYiKjtTRIumId7iWCX27npj52Y0HQSlD/Dy/39LJzUPHroW4uKywJ2mzFjbv0t3Z+MX1dfe0+umXrivXt+vWo6ZzTXMLS179hjYz5zX3bmqHtHftcoLOS+JdOv/M7391l37b1rupLR7iWkcwcWrjkeMUPeFr9DqCh/+w9t/wsHQbIX/h0lYLlrTEQ+zs+fYO/EaNheMmNvxsujc3a6EnjyXIZyu/az/EzwOr5OBo1qGz09crWrt7KPbc3UBxaoq+n2vxYp2czZxdzK1tFJ/kEAKFdnzWWQrGs02B4/XnLY8R+5BHp85qumyN4kUJbU1xw8DCZa0wEpPCnqbt3xum9e6nl9hY6ZWLz7BV5y9WvHwboSlW4J133Vdv6IAPQtjOx/4Qxah9k8IUs9csBCaz5jff+fub777niZ2OV4eX8+FHDXAYYOrD+ymhj3W05dB/r8GBveEnj0Xj48TQEV4/bOvUy7cWFoE1x+IGDnH7emVr7BpuViUD7jVCSDXE2jPw+ZqVLFVNXl4ea4zh5ORkhPxSNKSNjydMqFOnDne/UN26dZs3b46B+IQEqVTH958+vr79+vfXeHIPD4+xY8dh+0RERNy5c5sbW4Sjf/8VHx+P6PzJxIkI09xYpdZt2vTp44OBwFuBKSlch2jnzp599OgRnnzS5MlYEBvJYDWwMt27v8ndN6jUTB21P6XgZccP/EzRTlrjdutTRWdoGnAeR8Ddq9ZzBey/LwlU1prZW/C8C6vbYMvNlJH7ooO1On448Tg9LUcRwevZ6z5iTz3OWH1ZsznEuqtijMdAbRvTXvV0BzYGyd6nviIfR6TKlp1PTFBLYhky+ZabyYnSPD7PqE/9508yspWtFd8YkR3LvRH1Qg0gHr7qUmJ0mmE+wOCzBzdUWGD1bIykj4qO1Npksvy/Dkcu/+re09AiP0f2e8utZWsdbUJGjavf4MXm12DnwG/bUfGtRGJ8ls5I/Ya37aChHuo5Dzu+Zx9XVu36KOT5kXonUHz/TjKS2ajx9d/sU4sbWyzM/N7Ieg3feGGt3DwtOynrzuOeZcYqa9YN5enjtKuXFPXTPfq49n/HTeMdEnf7vV2nYxdnDAdcSxRFlrL5B568d7/aGk+OePq/D+vz+byoyIygu2JurJqi9hrS6oBBbho5G0/eoauztZCfJpGJEzVbVIP+ey0hPvv86ViMxAv/aHIjvh4NsCp4rxFCXjNy5W9WjDXe16oeExMTdoGYS5cuarSd0BNCqpuyn4SkxETtSC2wtOzfr7+p6fMv9FVatGzJmn8Uf3GNpKSkO3cUPx9q06Ztkyaa16HE0lu1aoWB2NgY1lFDbm4um79x48atW7dRzPQirEz37t25OwYlU7YnrGCIwgjE3B01Qc8U502esZG12csPwti0vJQsxRHrqqyw05CWI9//QPePlC6FZ2bnFSANN62p46eQKj3rWjpZKvqcQAS/rfUN+dWITJFEkc0Q6FvUUhyNXT0F9RwUa/I4SXbikY6vWRCy78bqCAaloN6POCuwrPAaREWXf41Lvcya17xHn1qmpsY3ryV8OeXmvTs6rkIksDRp3bZkl7l3c1NULkqleUmFDYvVIXAjdnN3Cjk6mdWqo/jAlKlskwT4LHj1QhwSv6eXdfeeeuVpcHERtG6vo5nRG96KLzjy8gtycw228yDobnJSYraVlanvgNqmpjqqHBAou/eqhcgYF5cZEVaaL7+w/fv0ddX55E1b2NXUSrRMKfaas7OFtaWiUMVG68iveu41+Pd+SkR4OrJ+v7fdLCz06kmmgvcaIeQ1Y/Bzc0lJUlNZ1xYIzWyMTo6Ojj4+vljbkJCQMWM+/OWXn3XWNKvLyMi4ffv2vn2/L1u2dNzYMX19fbZt3YrxeLHaDT/sbO3quLlxd15kY2Pj5Kyo30kWJyMHs5Hanj17xn4u5u3trTOa29vbI7hjrVJSFIFBIpFERytakrh7eLCmL9pMTA3WX4Q6PvvhXpkVdfXEqUd19ESRnJUfrcyjGlKy8nPzFS2ka9tovlgrvrFvA6ulPs6HRrrd+rRuwoJGVyd6edoptq3yR4OakjPzn4p1V9yGimVZyrOhi3Vxm7SxsxnCPeZ8oKuTwQyZPEl5yrYyM3YUKM7RDR3NbJXdvj1JkomK+PFSvoE+wLAfSjIG/yRc0ZFa41IvAwa7ffVN6w3bOrt7WCWLczatC9a+gKKt0MxVGZuKkp0tR6Q7/qfou1UPZ312c8Tb51csvofx+fkFuLF51HnVteaG1PDNeNbWiiNMnJTD6rYlqTJRlOK9pmFjoUY7gWLUdLWwUWtxr2LnYGYt5KdLZCli7gViKdMn32RtYDRu/ttD2TwvxdpIuNSycPcssg2fm7ulvYMZ3v0iwrgPf6q+RLRvrGMNdcVsf2sbU9akOzVZlpv7wqZ+6V7DkYzojMVt2/ho8bw7o/0ujXv/UmysYoPn5ZV+rwEOBrxYbJNGjXW/vWrTf68RQog2g3+DXFLxCYprzSAcIFlyo4owctSocePG83i8ZLF4ww8/+Pr0mTVzps5ryP33X8i4cWN79nhzwscfrV616o/Dh4OCgorvHoHHM8Yzc3eKkJaelpNT5Dtqfn4e611k48YNbZQd/GncJk+elCmVYlOzJ1E1ZantWlvx+Apkq4yDZVfU1ROvlaSTvszcAu2842xlsmlQrWfzG50a57Ggl9PQJjZt61g4WZqox0ptBTUKXhpf7YutrjJRRksLU+MfB9XSaM3CbuxnkVgNc2ULaWszY0RwDESUfxtLe7W9ZvD2WhUdqXWq38jmo0/f4PN5T0PTHgZpVlQb81BKde9+ZLLFc++81fPkxA+vfvvN/b8ORQYGJCXEZyFRcXPozdTUiP/i1yWyHHl6mmJz13I1wO9MjY012k0YRl6e4jMWYl8xHXuXsdvvYra/Snp6rqywQw+mmEdlZeXv3hk6uO+ZD4ZeQJj+1T8UwVoUmcE6BikR7b0GrM8TBydzS8uy1kyU014jhLxmBALFaaL4nwaWqzt37iAf1KxZs25dHQ1w1bE2x/sPHHzr7bfNzc2RR8+fP/fB/95fvmyZeo31xQsXJk+aFHTvnpGRUdOmzcaMGbv8mxX79u8/d/7CxImTuJlKBQstvir9VVFHWaFTZbkJTfeOqDOxg70V31iWXxCckLP3nmTZ+cTBu6P6bI8IL1t4RYLnhl417mrVZ6zAssJrEFUiUkP9BjaOjooLKEaE69s44b9gyawpARfPPSsoqOFVz3rocM8vF7bYvKvroRM+i5YrOr2v4iytTNZt6nAhQNEbhsZt9Ef1uZnKh7OL+e5DPTQWym499GsyrsHMnMdjH0tfRpqRt3pJ0M7Nj9IlMnsHs959a38+q+nK9e33/d1798GeddyKq9gmhJCqiTU5UHXzXMFEItE/V69ioFmz5to/KNTJ09Nz8eIlp8+cnTt3nru7u1wuP3z40Lp1a1mTDIlE4u+/C39btGhx+I8/d/n7T/n88379+tWv36DUHQXimbOzFPUddnZ2rD138ebNn3/s+Ilibt26vdBCWpr5khYsBtfQ2WC1m+XhvRbC7l4CIyNFg+ZWPzxt8l3oyH3RC88kHAlOT80uZQslVXVyvK4fqmmQZOd/euSZRmsW9dt7v0Xfin6hpbU+DcHLyFutFTgrsEW1FyqFqhKpeTwjY2VFqs52tNpycwv27w2LjZEihG3Y3nnnb92nzGzS/+06jRoL7R34hq1aFIsN0yi+/CCeFlPFm5WVn6ds/GSi7DvdgHJz5dnKDu9sbfnm5nodS5fOP7t8IY7P502Z0eTAsT4LlrYc4ufRobOTc01zfX5HqL/itwkhhBiQo6PyN/GJiexuRSooKPh1796wsDArK6tBgwbpbH9cFEtLy2F+fjt2/ty+fXvcvXnjBvvN39OnT8MjIjDg5zdcO6PHxBb5u8asrCxJEZ8rIiMjRKIoDDRq2IiN0alWLVdkbgxgY7oUi+VygUDANn54eDhrAaItIlzxWgyutetLOpKrXF09BXyeEXLtTzeTNTr9cLLkCc2K/O5aYGpsW8QJvU1tc2u+cb68QP2y3toeJcoKCmqYmxibmRhptGZRv51+ksE6A4lIkeUov3JX765EnRXfuI6uxpml0N7teZ00K7Ds+DGIqhKpVbHPzb3INsHqkhKyH/2r+Elcr76u3k01PzTrmcuLZ21t6lJLUWBEkVKdPYdUBayFcUJCdjFdUkRFZiQny5BiPevpaI78UgimaRLd3xCJoqQx0YqKgfoNNftd0Qll7M4tsVxe0LiJrU//2ho/CUhKymbXcCkjfbYJIYQYEBIe/sbGxrK7FUYul2/duoVdP2XAgIEdOnZk40vE3t7+nXcGYSAzM1MiUQRisTiJXfdb+4d98fHxIcEh3B0tyCgBAQHcHTXI/ZcvXZZIJA4ODi1actco0Akr01CZuW9cv54s1tGXlAYbG5u69eph4MH9+//9p2PF8CT//KOowje4Lga6+Eg5cVX+glBeUEMZVl/QzVMgLLoWzFHA09lHnqedKes6Ojkr/3pUcafXe8+y03LykacxP9IwN7ZoiODP0hVnf29ns6FNdMSJQd7WjZyK62NEfz28nu81VmBZ4TWIqhKpH95LRgYyNjYqqndqDYhfGVLF91M8rZ9qIp3r7NOtpCwseQ0bK8J6yMMUnV2RVAXNWtnbCBUdz50/Fav122sFmUx+/lSMTJZfx81Sz+CrISkx+/YtHb9HweKuX47Hou0dzJq2UFQqvFSmNC9Z+Ts/Y54R9jUbqfLgXnJKcnEffPXUuKmtlZVpMduEEEIMi1XlRkUpamErTERExKxZM7dv24Zg3aVLl4mTJmn0Bq0tKChox47trG8QdexHh3w+38JcUZHk4OBoo/w2PCwsTL1bD5lMtmXz5uKveb57t//t25o9T584cXzfvt8x0LlLlwYNFNcTKIqpqalvX1+syYMHD7Zv3679i0+82P37912+fIm7X6NGzx49rayskNe3btmCv9xYJTx848aNeCruvkE1dOQ3dzFMzisPscqQamFq/IbTCw1UhjW1mdDenrXf0AmTMANm4+4rIRmvHejSTNlVw9WIzJPKDqqLcuy/dNbXB6L5wt46rtLfwc3i5FiPfg25KtT/EnMuhWXiQHO05M3q7sh6I1Hp6G6xuI+zjSHahLSsZd7Y+fkuYwVWz7ZS+qgSkTrobvKv/k/l8oJ69W2attB9TXINjo7mVsoO12JEUvULYmOXHPw1PPBmcT9J1l+f/rVr1RJkZ+dv3RAS+kh3N40VAOkTt4z03KQEzW+13vC2ZVeLPHlUdOpotEaCxF3Eyhv/JODh/QfV0b/fEg3794Zpf6g4ezLmjwOKb9Pad3KuW1+vsC6wNEH+xoA4MTs56YX0jOfHUrg7ZdOkuV3bDorvcbBN/j4cpbFNCCHE4GrWrCkUCpHnyqOiOjc3Nz4+Pi4uLjIy8syZ08eOHV2//rvhw/38hr178cIFzDBw4MAVK1fp0yS0oEC+d8+eUSM/OHLkT6xqWlpaTEzM77///vPPOzG1Y6dOrMbX08PDtZYrBvx37dq6dQsWjZeGYDr7yy+vXLncpWtXxXPpgmhrYmI67YupP/64EXkFz4/8vWrlyuXLlrGrG44dO+6lTVO6dOnav/8ADCCFT/j4owsXzuPls1U9evToh6NH4QnV+wxp3aZN7959MHDz5s3x48aeOH5cLBYnJyffuH596udTTp066ePjy+Y0uBHNDdAMl2dkhNQ78A1r7VtZrsIdGJ2VJ1d0q7egl9NyX+fuXoKedS2/e8tl8xBXjC+mMbRUJrc2M941vPbOYbWxDki0kzvaX5noNcTbBh/Znopl2leB0ZAhk3//jzhJms/nGc3s5nh9Ut0J7e2wdKzDqFa2f45yP/+xZ3s3C/VY/8udlLBkxccnLO7KJ17zejqxFV4zwAXz17IxQexmc5bF/1o+3184/nFUo9Sg8HKjyqyiI7U8vyApKTshTnFjPd99PefOjMk3YmOk5ua89z+s56T2AaIYdg5mdRsovt8/eypmw5p/o6My09Nyw56mr/3mwW/+T7u+aZhqfK+6VmMnKi6UHRWZ8cXE69s2PsIisKBksQwrv+m7kI3riuuy3lA8vKydnRW/3dy3J+xhUEpSYs7RP6JSlN1Gmpoa/e/Del51rZH7v11+f8HMwOCHqZLUXNwwsPyre2u+uY9J/QbWeWfoS3pWKoqVlamJifGCGbe2//RItZ2/X/3vuhUP8MxYNFZAZ6/V2lAakXeR77E9sW4PglLSJLk4Ev44ELlk/h08lXNNAzRN4/ONx01sxLbJ998+xDa5GyjGLsOaiyKlWNbCWbcT4qt6+3hCyKulYcOG+BsSUmSjiFILundvuN+wgQP6Dx0yeM7s2YsWLtzt7/80NFQul9es6TJ/wcKvFy+xtCzBb7vDw8OXLF789lsDe/Z485233/p29Spki06dOn/++VSWd+0dHEaOHInnRA7eumULFt2rZ48xH44OCLg5evSHTbWuwKJib28/ffp0Ozu7nTt2DBk8CM8/Yvjw/fv34Xm8vLwWLFykcXVDnfh8/oyZM/E5wdjYGDl+5owZA/r3Y6v61aKFwcHBeCpXtS7zMP/UL77o3bs3hvHSFiyY7+vTx6dP708/nXz79u3x4z/q1bsXm9PgxrSxLb5DOn2425ruGVHn6Ifu2rfv3yp9mNl9NzVAlFVQUMPWnIeEemmCF4LsF10ceMY1NlxPziz6YgsJ0rwdgSnGRkZj29hiHRCIfxxUq2Utc5zBo1JzZxyP07i6oU4HH6bNPhmfKM1DbEZK3jLEFUvHOvgPrz3I29rCxDgyNTdOWY/O4DnxzDHKSyTWEZriMwBb4RndHOwseFsDUopvva0P7KmP2j3/Rp0VVVZsDaWiI3VsbOan4/4Z8c453FjPd5fOP8vPL0BEnvt1y54++nY3YW5u7PeBFxIYgubRP6NGDbvwTp/T49+/fOJvUf933Lr2MNhnjj79an+5sIWNkC+V5v3qH4pFYEHv9j+DlT/wW5gktUzd0OjJ3dOyY1fFK3oUkjrl42t+A88iW6suPuLmYbl4ZZtmLeyxKa5dicfmHex7GjcMnDsZg+Lk27/Op9OblPrHf7Z2/MlTGwttzfb+HKrazn8ejEBg9fC0mjG/uZ5tdZjevq7tOiq+BsJr+fzja4N8TuNI+OHbhy4uglEfNTDULxTZNmncRHld+ivx0yffwC7Dmo/2u4hlKS55Q1XXhBCD8vb2xt9yamOgztzcvG7dun7Dh2/duu3osWODBw/W/1oVLVq0/PbbNT4+vqqfZNna2nbu3HnVqtU/bNigfvXv/gMGbN22rVu37iysY6Fdu3XbsXPnqNGji29e0rRZs92793zwwUgHB8XVvng8XqNGjb74Ytou/93sSub6wEIXL1m6efMWrICqjxG2qkuWLt29Z2+TJk3YSEYoFK5ctRqvolWr1uxni3gGPNZ/9+5x48e/tD1Mqdla8L7ootdX6xUvIiV3yB7RxuvJ8Rl5rGNhxOizodJ+OyPZdcWLsTMw9f3fRIi57FqDeLxIkvvDNfGbW8OPBOvbLdvOwJQeWyO23UpBdGZrgEAiyc6/Fpk57Vhct83hGhdWxDP77ojE/KoVzs4rwDqM+FU0TddVb0pqeldFOufuFBZVVmwNxUj76kcaMEN+fn5ubm6GUmJiYpu5c7lphS4uM0PwQu4UCHimfJQgHQfw8kX3zp7U/Jkw5qzjZtm7b+3BwzystX7O6b899OetjzDD2h87OrvoaLQQG525Z2fotavxiLZ4qsZN7UaPr9+2g9Olc88Wz7uD9Vm2pm2zwma+D4JSFswMTJPIvvqmtc6u4tgatmrruHR1G0urF36TkSKWIbifOxUTLZLiA4C5Oc+llqBjV+chfp6qFSvm4fDSpRcvKyv/4G/hx/6Mio/LwtI7dnH+YnYzoe3zLSaX17hy/tnxv0X/3k9hP/Kr6WKBTTFomEf9hoova0pBfftbWPB27ww9dzomWZyDTV23nk3vfq5vD/EQKC86qu6lew2v5a+DkceOiGKipYi8rq6Cd971eGeYR7okd8anN7CFx05opOpGsCx7TSaTX7sc/+eByNDHEmwTY2MjRyfzJs3ssLgWre3ZNjH4XkN5whGSK8vHy8RhmZoi67FA87P17RUrcD6ztrbGmz6fX0SBIYS8ajZt2pSQkDBs2LCmTYusxyVVnD6Z587KlXZ2doj4AoFAVmDSeH1YXAZ1MFWluVibPJnRwKqwQfbDhw8PHjzo7Ow8efJk3GU7XSaTZWZmpqWlJSUlFbXT8bETn9nMzMzwOVb7xF1xkZqQ6oAiNSHVVkBAwPHjx93c3MaPH8+NIq+akkZqvIfvDUofc7CiO3shJbLLr/bo1s97h9uxY4dIJBowYADrPtJQkbqiG34QQgghryWcnoVCIU7VFdD8g1QdyGoT2uvV7RWpFNg76nkaxROFFEWV5WkDokhNCCGEGEZXZW8YFy5ceOk3wOR1smWIq86+nEmlw37B3uHuKCukUTwxwIqqYVGkJoQQQgyjXbt27u7uycnJp0+f5kaR6uHgB27t61Tp6ylWQ9gj2C/cHSUUTBRPFFIUVW6U4VCkJoQQQgzGx8cHf69fvx4cXBG9rJIqws6Cd3KcB9VVVx3YF9gj6r18oEiiYGKAFVKDo0hNCCGEGIybm1ufPoorjxw5ciQhIYGNJNUB0tu5jzypXXVVgL2AfaGep1EYUSQxgOKJQspGGhZFakIIIcSQunbt2qxZs5ycnAMHDqSn69uPL3k9bBniusuvtou1Zq+spGJgy2P7q7efBhRDFEYUSRTM8mhFzVCkJoQQQgxs6NChHh4eiYmJv/32G6Xq6mZ0a9snMxrMedOx7NdWJPrD1sY2x5ZX798DUABRDFEYUSRRMLmx5YAiNSGEEGJgRkZGI0aMqF27dmxsrL+/P7UAqW6szIxX9KsZN7/R6v41W9bScdUzYkDYwtjO2NrY5qrruTAoeiiAKIYojCiS5XoVCIrUhBBCiOEJBIIPPviA1VXv2LGDfq1YDdlZ8GZ1d7z7eb3gafU3DXYd08a2fR0LF2sTqr0uC2w9bENsSWxPbFVsW2xhbGf1ltMMCh2KHqufRmFEkeQmlA+6eiIhhkRXTySEqMM59PDhw+ziL506dfL19aXyXpXpk3k0rp5I7+FVEPbj6dOnWf8ezZo1Gzp0aDH7iO10unoiIYQQUnXhvPvuu++yPkBwgt+wYQNdW5GQcoUihoLG8jSKHgpgxXzmoUhNCCGElK+uXbuOHz+eXQXm0KFDO3bsePjwITeNEGIgKFYoXChi7HouKHTl17+HNorUhBBCSLlzc3MbN27cwIEDhUKhSCQ6ePDg+vXrz507Fxsby81BCCkVFCIUJRQoFCsULhQxFDQUt3Lqf7ooFKkJIYSQCtKuXbtp06YNGDDA2dk5NTX1ypUrW7du/e677w4dOnT9+vXQ0NCkpKTs7Gy5XM49gBCiBkUDBQTFBIUFRQYFB8UHhQhFCQUKxQqFC0WsPK43/lL080RCDIl+nkgI0VN4eHhwcPDjx48lEgk3ilQBCG0gU5JKpZvDwrgJhSbVq2euZGpqijdwY2OqnaxkQqGwYcOG3t7eXl5e3KiSoJ8nEkIIIa8wnP4HDhw4bdq0SZMmvf322+3atcMYds6mlEaITigaKCAoJigsKDIoOCg+KEQoSqXL0wZEtdSEGBLVUhNCyKtLn8xDnei9ZqiWmhBCCCGEkCqBIjUhhBBCCCFlUl6R+mXNSQh5DeGwf2lLKkIIIYS8fgzTlvr2ihUa7YowkpoWkeoGhQXYT8WzsrJSlHSWF2pLTQghVZA+mYfaUr9m2E6vKm2plUFCkSSwToz6MCHVhKLjJSU2zMoFV0gIIYS8puit/pVmqN1nmFpqQoj+qJaaEEKqJn0yD6uwFAqFVEv9emA7XVVLLRaLK7OWmhBCCCGkOmBfRarLy8vjhsgrSH33Kb9pLuW1S6mWmpCKRrXUhBBSNVHmITpRLTUhhBBCCCHlrsSRmqrTCCkjFCJWjqg0EUIIIa+HEkRqOv0TQgghhJBq6KUxWN+21Hl5eVKpNCMjIzk5WSwWSySS1NTU3NxcjMcyeDyesbExaxLKcA8mpPpBkWHYDx3wF8MmJiampqZCodDW1tbe3t7BwcHKykogEGAktaUmhJAqgr11U1tqouHOypU4d9vZ2RXTlroEkTpTCZEa0tLSkKplMhkOOzabMkgrsGE2kpBqSFWmkKdVw4jOfD7fxsYGqZoVS0tLS0RqRG2K1IQQUkWoMg+L1ElJSa1mz+amkWrs3urVOHED8nSZIjWractSQpIGdqipR2qgWECIOvXChUgN1tbWVlZWSNVgYWGBD7uI1DpLJiGEkIqnitTsm3mxUmpqqqoaEW/X7Jt5Bg+hN/DXA4u7LPHiL3Yr9i/O1JaWlg4ODqwuzNbWtkyRGtgCcpRYmGY11qzhhz7PQEh1hoLHGn4IlJCqUUTZl0eq5lLcrIQQQioPy1Xsm3mk6hQl9s08Mg9gHvamzbBHqQbIK4pFWfxlBwD+IjTjBI1IjbM2C9OsOoyvVKZIDexgYnXVLF7jmEPU1ucZCKm2WKlDyQTEaAallNVbo1gCm5MQQkjlYolK45v59PT0jMJv5lnmoTD9+lGlWTaAUzM7a+N8zcK0tRJO3IjU2O/au16vSI15gH0VguOJHVUYZlFbn2cgpDpDwWPRGUXRxMQEpZENsJHaxZIQQkhlYZGaVR3SN/PVFs7OiNQ4XyNVW1pash4FgJ2+lYm6tJEaf1mAZjXTDMazSewvIUQbK3Ws+CmrqhVUTagZNichhJBKx9IOAjRkZ2erfzOP8arkQ15j7NSM0zQCNLC6ataKmp3B2TxsZhW9IjWwY4hRHVLAJrF5CCE6sYKnLKEK6mEa2DyEEEKqAhZvWAUi+1qeUa9JJK89doJmAZp9t8zgDM5O4tx8avSN1MDm1P5LCNEHK4HafwkhhFQdLNsoq6oVLUBUMJ5hs5HXGztBswCNVI1sjQH8xXgMsHk0lCBSM3QwEVJ2FKYJIaQqU4Znrlc1NsBGsqmkOsCZWgUxmv1l49kMGkocqQkhhBBCXm8sHeGvakA5mlQ7ykT9/Itl9lcnitSEEEIIITpQRiJMMUlahSI1IYQQQgghZULXmCCEEEIIIaRMKFITQgghhBBSJhSpCSGEEEIIKROK1IQQQgghhJRBjRr/B/OL4XGuZNQ1AAAAAElFTkSuQmCC&quot;&gt;&lt;/p&gt;&lt;br&gt;&lt;br&gt;&lt;/div&gt;&lt;br&gt;&lt;br&gt;&lt;/div&gt;&lt;br&gt;&lt;br&gt;&lt;/div&gt;" tags="" id="XfwaBgkW9DTcoekpxLKl-0">
                    <mxCell style="text;whiteSpace=wrap;html=1;fontSize=17;fontFamily=Comic Sans MS;fontColor=#000000;sketch=1;curveFitting=1;jiggle=2;" parent="bhTP2_UY_HiaFr0e0wly-1" vertex="1">
                        <mxGeometry x="-1612" y="-221" width="403" as="geometry"/>
                    </mxCell>
                </UserObject>
                <UserObject label="&lt;font style=&quot;font-size: 25px;&quot;&gt;&lt;span style=&quot;font-size: 30px;&quot;&gt;&lt;b&gt;&lt;span style=&quot;color: rgb(0, 0, 0); font-family: &amp;quot;Comic Sans MS&amp;quot;; font-style: normal; font-variant-ligatures: normal; font-variant-caps: normal; letter-spacing: normal; orphans: 2; text-align: center; text-indent: 0px; text-transform: none; widows: 2; word-spacing: 0px; -webkit-text-stroke-width: 0px; background-color: rgb(248, 249, 250); text-decoration-thickness: initial; text-decoration-style: initial; text-decoration-color: initial; float: none; display: inline !important;&quot;&gt;Spoke to Spoke via AzFW&lt;/span&gt;&lt;br style=&quot;color: rgb(0, 0, 0); font-family: &amp;quot;Comic Sans MS&amp;quot;; font-style: normal; font-variant-ligatures: normal; font-variant-caps: normal; letter-spacing: normal; orphans: 2; text-align: center; text-indent: 0px; text-transform: none; widows: 2; word-spacing: 0px; -webkit-text-stroke-width: 0px; background-color: rgb(248, 249, 250); text-decoration-thickness: initial; text-decoration-style: initial; text-decoration-color: initial;&quot;&gt;&lt;span style=&quot;color: rgb(0, 0, 0); font-family: &amp;quot;Comic Sans MS&amp;quot;; font-style: normal; font-variant-ligatures: normal; font-variant-caps: normal; letter-spacing: normal; orphans: 2; text-align: center; text-indent: 0px; text-transform: none; widows: 2; word-spacing: 0px; -webkit-text-stroke-width: 0px; background-color: rgb(248, 249, 250); text-decoration-thickness: initial; text-decoration-style: initial; text-decoration-color: initial; float: none; display: inline !important;&quot;&gt;Associate Subnet Route Table&lt;/span&gt;&lt;br style=&quot;color: rgb(0, 0, 0); font-family: &amp;quot;Comic Sans MS&amp;quot;; font-style: normal; font-variant-ligatures: normal; font-variant-caps: normal; letter-spacing: normal; orphans: 2; text-align: center; text-indent: 0px; text-transform: none; widows: 2; word-spacing: 0px; -webkit-text-stroke-width: 0px; background-color: rgb(248, 249, 250); text-decoration-thickness: initial; text-decoration-style: initial; text-decoration-color: initial;&quot;&gt;&lt;span style=&quot;color: rgb(0, 0, 0); font-family: &amp;quot;Comic Sans MS&amp;quot;; font-style: normal; font-variant-ligatures: normal; font-variant-caps: normal; letter-spacing: normal; orphans: 2; text-align: center; text-indent: 0px; text-transform: none; widows: 2; word-spacing: 0px; -webkit-text-stroke-width: 0px; background-color: rgb(248, 249, 250); text-decoration-thickness: initial; text-decoration-style: initial; text-decoration-color: initial; float: none; display: inline !important;&quot;&gt;Default route 0/0 via FW ( Propaate gateway Routes)&lt;/span&gt;&lt;/b&gt;&lt;/span&gt;&lt;/font&gt;" tags="" id="mA_7jK8cUOhyNdoYcy30-0">
                    <mxCell style="text;whiteSpace=wrap;html=1;fontSize=30;fontFamily=Comic Sans MS;fontColor=#000000;sketch=1;curveFitting=1;jiggle=2;align=center;verticalAlign=middle;fontStyle=0" parent="bhTP2_UY_HiaFr0e0wly-1" vertex="1">
                        <mxGeometry x="-1807" y="-923" width="845" height="91" as="geometry"/>
                    </mxCell>
                </UserObject>
                <UserObject label="" tags="" id="cHquGx5Fdz1bRuiigCZR-20">
                    <mxCell style="edgeStyle=none;rounded=0;jumpStyle=none;jumpSize=2;orthogonalLoop=1;jettySize=auto;html=1;shadow=0;dashed=1;strokeColor=#3399FF;strokeWidth=6;fontFamily=Comic Sans MS;fontSize=25;fontColor=#FF0000;startArrow=none;startFill=0;endArrow=classic;endFill=1;sketch=1;curveFitting=1;jiggle=2;" parent="bhTP2_UY_HiaFr0e0wly-1" source="cHquGx5Fdz1bRuiigCZR-18" edge="1">
                        <mxGeometry relative="1" as="geometry">
                            <mxPoint x="-2067" y="-585" as="targetPoint"/>
                        </mxGeometry>
                    </mxCell>
                </UserObject>
                <UserObject label="" tooltip="" tags="" id="cHquGx5Fdz1bRuiigCZR-18">
                    <mxCell style="shape=image;html=1;verticalAlign=top;verticalLabelPosition=bottom;labelBackgroundColor=#ffffff;imageAspect=0;aspect=fixed;image=https://cdn1.iconfinder.com/data/icons/iconoir-vol-3/24/light-bulb-on-128.png;rounded=0;glass=0;labelBorderColor=#FF0000;fillStyle=auto;strokeColor=#000000;strokeWidth=4;fontFamily=Comic Sans MS;fontSize=25;fontColor=#FF0000;fillColor=none;gradientColor=none;opacity=70;sketch=1;curveFitting=1;jiggle=2;" parent="bhTP2_UY_HiaFr0e0wly-1" vertex="1">
                        <mxGeometry x="-1378" y="-806" width="81" height="81" as="geometry"/>
                    </mxCell>
                </UserObject>
                <UserObject label="" tags="" id="pwfX5CZ8NYh3RSIs-o6F-0">
                    <mxCell style="edgeStyle=none;rounded=0;jumpStyle=none;jumpSize=2;orthogonalLoop=1;jettySize=auto;html=1;shadow=0;dashed=1;strokeColor=#3399FF;strokeWidth=6;fontFamily=Comic Sans MS;fontSize=25;fontColor=#FF0000;startArrow=none;startFill=0;endArrow=classic;endFill=1;exitX=0;exitY=0.25;exitDx=0;exitDy=0;sketch=1;curveFitting=1;jiggle=2;" parent="bhTP2_UY_HiaFr0e0wly-1" edge="1">
                        <mxGeometry relative="1" as="geometry">
                            <mxPoint x="-1820" y="-65" as="targetPoint"/>
                            <mxPoint x="-1647" y="-122.75" as="sourcePoint"/>
                        </mxGeometry>
                    </mxCell>
                </UserObject>
                <mxCell id="0" style="edgeStyle=none;sketch=1;hachureGap=4;jiggle=2;curveFitting=1;html=1;exitX=0.75;exitY=1;exitDx=0;exitDy=0;entryX=0.322;entryY=1.003;entryDx=0;entryDy=0;entryPerimeter=0;fontFamily=Architects Daughter;fontSource=https%3A%2F%2Ffonts.googleapis.com%2Fcss%3Ffamily%3DArchitects%2BDaughter;fontSize=16;curved=1;strokeColor=#FF0000;dashed=1;strokeWidth=5;flowAnimation=1;startArrow=classic;startFill=1;disableMultiStroke=1;sketchStyle=comic;" parent="bhTP2_UY_HiaFr0e0wly-1" source="bhTP2_UY_HiaFr0e0wly-57" target="bhTP2_UY_HiaFr0e0wly-58" edge="1">
                    <mxGeometry relative="1" as="geometry">
                        <Array as="points">
                            <mxPoint x="-2223" y="-195"/>
                        </Array>
                    </mxGeometry>
                </mxCell>
                <mxCell id="1" style="edgeStyle=none;curved=1;sketch=1;hachureGap=4;jiggle=2;disableMultiStroke=1;curveFitting=1;html=1;exitX=0.364;exitY=-0.002;exitDx=0;exitDy=0;entryX=0.5;entryY=0;entryDx=0;entryDy=0;dashed=1;strokeColor=#FF0000;strokeWidth=5;fontFamily=Architects Daughter;fontSource=https%3A%2F%2Ffonts.googleapis.com%2Fcss%3Ffamily%3DArchitects%2BDaughter;fontSize=16;startArrow=classic;startFill=1;flowAnimation=1;orthogonalLoop=1;sketchStyle=comic;exitPerimeter=0;" parent="bhTP2_UY_HiaFr0e0wly-1" source="bhTP2_UY_HiaFr0e0wly-54" target="bhTP2_UY_HiaFr0e0wly-50" edge="1">
                    <mxGeometry relative="1" as="geometry">
                        <Array as="points">
                            <mxPoint x="-2249" y="-494"/>
                        </Array>
                    </mxGeometry>
                </mxCell>
                <mxCell id="I4nSlObdzHv6P_rm0cAF-11" value="Solution-with-AzFW" parent="bhTP2_UY_HiaFr0e0wly-0" visible="0"/>
                <UserObject label="" tags="" id="I4nSlObdzHv6P_rm0cAF-3">
                    <mxCell style="aspect=fixed;html=1;points=[];align=center;image;fontSize=12;image=img/lib/azure2/networking/Web_Application_Firewall_Policies_WAF.svg;rounded=0;glass=0;labelBackgroundColor=default;labelBorderColor=#FF0000;fillStyle=auto;strokeColor=#000000;strokeWidth=4;fontFamily=Comic Sans MS;fontColor=#000000;fillColor=none;gradientColor=none;opacity=70;sketch=1;curveFitting=1;jiggle=2;" parent="I4nSlObdzHv6P_rm0cAF-11" vertex="1">
                        <mxGeometry x="-2249" y="-377" width="68" height="68" as="geometry"/>
                    </mxCell>
                </UserObject>
                <UserObject label="&lt;font style=&quot;font-size: 30px;&quot;&gt;FirewallSubnet&lt;/font&gt;" tags="" id="I4nSlObdzHv6P_rm0cAF-2">
                    <mxCell style="text;html=1;align=center;verticalAlign=middle;resizable=0;points=[];autosize=1;strokeColor=none;fillColor=none;fontSize=30;fontFamily=Comic Sans MS;fontColor=#000000;sketch=1;curveFitting=1;jiggle=2;fontStyle=1" parent="I4nSlObdzHv6P_rm0cAF-11" vertex="1">
                        <mxGeometry x="-2704" y="-351" width="234" height="52" as="geometry"/>
                    </mxCell>
                </UserObject>
                <mxCell id="gkbyzw-yZ3QWMMHyXDN--4" style="edgeStyle=none;orthogonalLoop=1;jettySize=auto;html=1;exitX=0.75;exitY=1;exitDx=0;exitDy=0;entryX=0.358;entryY=0.897;entryDx=0;entryDy=0;entryPerimeter=0;dashed=1;strokeWidth=5;fontColor=#000000;strokeColor=#FF00FF;curved=1;sketch=1;curveFitting=1;jiggle=2;" parent="I4nSlObdzHv6P_rm0cAF-11" edge="1">
                    <mxGeometry relative="1" as="geometry">
                        <mxPoint x="-1944.5" y="-663" as="sourcePoint"/>
                        <mxPoint x="-1647.6" y="-660.2399999999998" as="targetPoint"/>
                        <Array as="points">
                            <mxPoint x="-2509" y="9"/>
                        </Array>
                    </mxGeometry>
                </mxCell>
                <mxCell id="132" style="edgeStyle=none;html=1;exitX=0.75;exitY=1;exitDx=0;exitDy=0;entryX=0.333;entryY=1.012;entryDx=0;entryDy=0;entryPerimeter=0;curved=1;strokeColor=#FF00FF;fontColor=#000000;dashed=1;strokeWidth=5;sketch=1;curveFitting=1;jiggle=2;startArrow=classic;startFill=1;" edge="1" parent="I4nSlObdzHv6P_rm0cAF-11" source="bhTP2_UY_HiaFr0e0wly-57" target="bhTP2_UY_HiaFr0e0wly-58">
                    <mxGeometry relative="1" as="geometry">
                        <Array as="points">
                            <mxPoint x="-2210" y="-104"/>
                        </Array>
                    </mxGeometry>
                </mxCell>
                <mxCell id="gkbyzw-yZ3QWMMHyXDN--3" value="Solution-with-NVA" parent="bhTP2_UY_HiaFr0e0wly-0" visible="0"/>
                <UserObject label="" tags="" id="gkbyzw-yZ3QWMMHyXDN--5">
                    <mxCell style="edgeStyle=none;curved=1;jumpStyle=none;jumpSize=2;orthogonalLoop=1;jettySize=auto;html=1;exitX=0.25;exitY=1;exitDx=0;exitDy=0;shadow=0;dashed=1;strokeColor=#FF00FF;strokeWidth=5;fontFamily=Helvetica;fontSize=11;fontColor=#000000;startArrow=classic;startFill=1;endArrow=classic;endFill=1;sketch=1;curveFitting=1;jiggle=2;disableMultiStroke=1;entryX=0.852;entryY=1.008;entryDx=0;entryDy=0;entryPerimeter=0;" parent="gkbyzw-yZ3QWMMHyXDN--3" source="bhTP2_UY_HiaFr0e0wly-57" edge="1" target="bhTP2_UY_HiaFr0e0wly-58">
                        <mxGeometry relative="1" as="geometry">
                            <mxPoint x="-784" y="-737" as="sourcePoint"/>
                            <mxPoint x="-499.71593533487294" y="-737" as="targetPoint"/>
                            <Array as="points">
                                <mxPoint x="-2457" y="-442"/>
                                <mxPoint x="-2158" y="-312"/>
                                <mxPoint x="-1950" y="-455"/>
                            </Array>
                        </mxGeometry>
                    </mxCell>
                </UserObject>
                <mxCell id="0gOJhNK2u26gjlsnal8y-7" style="edgeStyle=none;orthogonalLoop=1;jettySize=auto;html=1;exitX=0.75;exitY=1;exitDx=0;exitDy=0;entryX=0.358;entryY=0.897;entryDx=0;entryDy=0;entryPerimeter=0;dashed=1;strokeWidth=5;fontColor=#000000;strokeColor=#FF00FF;curved=1;sketch=1;curveFitting=1;jiggle=2;disableMultiStroke=1;" parent="gkbyzw-yZ3QWMMHyXDN--3" source="bhTP2_UY_HiaFr0e0wly-58" target="0gOJhNK2u26gjlsnal8y-0" edge="1">
                    <mxGeometry relative="1" as="geometry">
                        <Array as="points">
                            <mxPoint x="-2535" y="26"/>
                        </Array>
                    </mxGeometry>
                </mxCell>
                <mxCell id="gkbyzw-yZ3QWMMHyXDN--1" value="" style="shape=image;verticalLabelPosition=bottom;labelBackgroundColor=default;verticalAlign=top;aspect=fixed;imageAspect=0;image=data:image/png,iVBORw0KGgoAAAANSUhEUgAAAHoAAAB4CAYAAAA9kebvAAAPLElEQVR4nO2de3AT173Hv7trsGxkW36/8QtsBxQwhQZDQrCdkubRmebezr0ht0xC7r3No8lNoJ07adqbApN7S2f6YPpImmQ6k7rt0CQzbaDNTAgEEDTBhMREYAJ2Co7ANn5jSca2DJbO/UPSWvuSdvVayT6fmTMj7Xns2f3q99uzv7N7xBBCCChzHlbvDlDiAxV6nkCFniekhCrQa7NhxGaLR18oEZJiMMDc2CifSRToaGsjl+rrCQFoSqI0ZTCQo7t3S/SUFbqjrU33DtMUWbJs2xZaaGrJyZ08DEMI4DVYH5LBWJfViurOzlhfTigxhCEEADCyfz+/TSL0KBV5zpAyMMB/lgjtcbni2hlKfKD30fMEKvQ8gQo9T6BCzxOCh0AZRvjdN2yXbKfoQzA9/Hk+lIVmWBBWaPCM2w2A+LZTsfWGcc8AAAjLCTOIh7+X9qMoNGEYeDhhA5zHDRDAw3LUqhMAzie0WCfGAzAej2BbUKHFvxQCnx2zHAgVOmEQ6yS2ZiCo62ZARL8Ur8wEhGNBGDqOSxTEOhHikZTRJrRXZxCWk1y/KfohEdrjlpTR5Lr5PCp0QiHRScbbhuG64XXdCj8CSvyRWLSMEQYXWvJL8TXEcFToBEIyaNZi0YRh4eHE2V6lPRwHIsmj6IVYJ1aLRRMZ183fXnGcjFun6IVEC+q65yYRuW6v0OIKvsEYK5dH0QuxFnLBrBCuWz6bcCn0Gp1ASLSQ8bbBJzUkARO/RcvkUXRDenulwaLl76NnG6ZCJw4R3UeHjoxRoROFyCNjkgZ8rpuJXmQs79zHgu9fzTDhN2XVyFTpMcT1R8xfBgDsHuzFz4b7+e0X6huQn7JAdb+cbjeqL5zmv383vxjPF5Ypln95ZAA/HOhRXT6aRBgwYeBJEWb7J79ISookL1q8N27Hvut2bMktDKu+v193mXIFQrdPT+FuQ5rqdjqnpwTf7zLlKh6z0z0jEBkAfjbcj/8oKEXeAvU/rnCR6CRjJCGeMFGIdbOxjXV/p6cbjRnZqNEgjB9/v2rTjYLth8Yd2JSdr7qdQ+MOwffadKPiMZ+ZGJfd3u6axN2pOar3GS5Si5YOxhRvhv3X6MAkDphEIymxs88WVn3/duOCVOwoq+a3t44M4OKNaVVtOgnBngAL/WlFLYwLUhXL/9U+ypfdXryY//y+cyxq5ynYsUt1ksqqHPVgfLNUAYlvWLQ9kqTEQccoDjqvaa4fmLfBlCvIO+uaUNWntgmnoF5DRpZi2WHPDFoDLhHfLCzlP7cO9+PiDVdUz5cqPWRG3UHCWywImyJIs66bk+SFm8T8sKKW//zw5x3ovXlTU/3AvGUZJkHeX0aHVPXpfccYX2dTdh6WZZgUy/59fPZHsa20CiVpRjwcMAg7OzUZtXOldOzSPA1CE9b7cGBg8rtuD8tJ8sJNYh4qLsemnNlr6S+vXtZUX5z/Ut1KPu/Q2Agu3nAFbW/IPYPfD/bydR4oKA1a/u3R2RfZWnIL4eE4NOcW8NveHh2I2rlSOnbxds2jbrnZKwAxnb0yphrwdMVSHLo2DAD4w0AP7i8owe3Zearqi/tlzhRadcfkdVQZMxXrfzopHFitNuUqHmv35HW+nwCwJCMThOPQkDU7ADt0bRifTU1gWZB9Roqa2asgrltmMCYadcdiMEZYDqtMeXgmwIVvPvsRhmdmVNcPTFXGLHwl4Fbt7aGrQftzOEC4LSUVKPGNtuXSSaedL/tMRS2MCw0gLIdcQzq2lFTwedbrzqidLzWDMW3XaJbhQ518yNM/6mY5SV64SSKUb/sjFUsE2/8y1KepfmD6euBIeHQQl1yTsuV6b07jj1cv82Wb84uD9v25rjOzZQuEZZvzi/m857rOwEk8UTtn4mOX5GkZdRPfpIaw4YBnxmIsdG5aOvauuZPf/r//OIf2cXtYQq/LEwZfzk2My5ZrD7BQALgtr1Cx3+3jwrJLMk2C/JWiS83nUxNxExoykxoaXbev4Ri4H7m21+UX45vlNXzeS190wen2aHLdhOWQm7ZI0M6+gR7ZcvsC7p2frlnGu2K5dGRkMGhZ8T6PjAxS1y0QSpT/ZK2Zzzs8dBXvDPVqtmjCcWgqKhO00y2ysO6pCRweusqXaS4qU2zL6XHj15fOhywbuM9fXzqPkZmbcbFoba5bx8FYYCpelInXbmvm879/9hS6Jyc0WTRhOXw5r0hQ7ty4Q5B/ThTybMgtVGzro7FRQdmazGzZcitzCgTlPnVEN1KmdMzanxmTsRggtvPRcu22lFbg36rqsPeLLgDAj86fxmvr7lJdHwCMXBqeqluBl7rOAgD299lw/+JZ17q/b3Z1xP9btT7o8VmGrwq+N7z7pmJZcb2W0orQBTUi7qvGgIn3cd/ARJjZyJg4L9wkRqncI7Ur+DJHBnrw/uBVTfU9XAo2llQK2jg/7oCHS8H5cQeOBFyfb80tVGyjd9rF/+C0sveLLlyanIj6uZPqFPF9tJdYuJ9QbVdm5eDFgFH4EycOos81pbo+YTlUi2LfZ+yjICyHMwGTEi0lFajLKVBs43TAfXY4fOa4FnPXre0JEzZxXLeff1lqxpH+Kzjqc7OvdlqxeclyvHHxM1X1jVwaXrytCS+csgAAXvjkOO6prMULnxzny9xfWRu0jb/1XOI/P7l8NZ5dsTbkMe38+Bjfx7/1XMJ9VXUh62hB0l9NT5hA7lGi2M9Hh2r3mZXreKEDBVZb35xXLPj+8fCA4PuqglLFNjrHRvh9A8CdZdWqzsOdpVV8X4/22XDBMYZ6lSFdNYj7oPmZMcmkgWhSIxaEarc2rxD/vXoDftL+97DrN5VVw9LbDQD49rF3+LwHa29FYaYJ0reLvZwdGxJ8r87OU3UezAUlknZq88J7gkYOcR8iv4/2NxSDe0EtbX+jfiWayqslddXWv7/mFtm6d1fXK9YZd89gR9thvuzjKxuxKC1d1f5yjBn414BZtB1thzHunonrfbSyRcu4buI3aR1dNwAsMqTjPxvWw9LTHVb9+vxi2e3L8ksU618UhUc3LF6i6RxsWFyDtwJi4xeddqwUWXq4SPqhyaIZaVAkHo8Sqa23oqgcj61aH1b9iux8bFwsnDR5bNV6LDKkK9Y53iv8UVUHGZnLpVtFT4Qe7+2O3ahbyys5IV+Ej9I1+swT/yP4Ll1mRZmn1rbgqbUtYdX/5X2bJduC1Y1kXwCQbcyM6FiDoSZgQt+9mgNE+O6VwmI1mJ3UoCQGEVm07JsacXqum6INyaBZ69IWSmIqDaQo+iDRIuLBGH1tNiGJeDAmibgENByryBhFO2oiYxqv0f6GqOtOJCK8RlPXnSxItKAWPTeJyKK9a5jILyjnDZ7TgEmiINYijMgYDZgkA1Fw3fJzHt6ACV1nLFGIeJ0x8cN3JMB1yz2YR9EHiU6aY91iq+WnKalFJxJ05cB5QvRXDozBfDQlcqQhUK2xbkmw3NcQXd03oYh+ZIxadEIS0e0VndRIHqIwqSHK5l23/IpAFH0Qa0EYzY8SKSzMzsnlUfRCrIWmwZj3Xlk+e+G4E5MF8VnQlCJPyuR1/rPU82p690rq6wfX3InKA29hxcu70Lfh3gi6SYmUvI5TAICRFWulARNN12iWBRGtGntl0z+j+ORhpI0MYMnbr0ehu5RIuJluhO2+zRKdIl6Y/XpZNQ6/+i5KThzEor7LCjUp8WDalIv+9Ztwc1GGNDPy12a99N1B3XYiE7UX4SkJjhqLXmDyrp2ZNtRPgyJJikeNRZc2NAAAsj8/i4XOMUxH8c18SnwoOnUUADBTN7uEBkOI9H/iP7n3Xqw5cACO6ltw5umduFbfEL9eUsImfbAPNftbUbOvFS6DASMXLqCs0rcSE5FhsL+fDBYVEQLQlKTpwz/9SaCprNCEEGIfGyPHnniC9FRW6t5pmtSlKYOBfHzPPaSjrU2ip6zrTiZ6bTaUVVVhoqgM7+5ti8k+lrX+HMta98CyYweadu6MyT5izRyagmJk3yKMWttJDp2CmidQoecJVGgVeBam6t2FiKFCq8Dl+3umlMvJO5FDhZ4nUKFVMFFUrncXIibphZ6we5dunCyK3aNNbt812mizhSiZuCS90HbfyXeJ/r8imkz6LDqPCq0f0wPe9bYnYmjR/sFY3sBAiJKJS9IL7fGNhKc1/Al4OEwUlcPgcqE3Sa066YUuPnAAAOBYuhyMLwoai+RYshwAYLNY9DzcsElqoR12O+qsVrgXpsJuXg2WZWKWRlc1end67Ji+Bx0mSS10p8+6xpZ/CWRhKlggZmm0wbs2eCW1aB1obQXgFYFhmJgmZ60Z0zkFKLPZYE1CsZNWaKvFgrX79mE6pwBfPPitmF6f/enilqcAAGnbt+t89NpJSqEddjsyn3wSAHBpy9NwZ2SBZZiYpyv/9AicS5ejzmqF5cc/1vksaCPphHbY7RhobkZ1Zyfs5tW48o2HwbCISyKGVHR9+wcAgKbnn4cliZ42SSqhrRYLBpqbUWe1wllrRvuevUCqIS7W7E+j61rQ8cIvAABNu3bh2PbtcNjtIXquP0nxzJjVYgF27UKDbxA0XmvGqZf/jJmMLN36VPrOmzC/+CwAwGEywbp1K2557jkUFBWFqKkPCSe0y+VC58mTsFssMH70EcwWCwwuFwBgJiMLlzd/C5c3P6aryH5y2k+g+rc/QU77CX5bd309rjY2Ahs3oqSxEdX19Tr2cJaEEfr4K68gff9+rPFFugKZKi5H/9cexJWHEkNgMRmfn0Nl669QeHCfJK+3shK2piaYHn8c5sZGHXrnRXehuzs7MfnoozCfPMlvu15rxtia2+E0fwljq2/HjdzYzUxFm8yOdmR1fILMc6eR3f4hFo7O/p+lZfduNH3ve7r0S1ehe202ZKxahSy7HTdyC/CP776Ia+tbEtJqw8XYdQ5F77yJ8r2vAgA+2LoVd7we/0UEdBPa5XLhYnMzzCdP4tr6Fpzf/eqcElhMzokjMH/nEbA3pvHB66/jjq1b47p/3YT+4He/wx2PPgpXSTlOv3F0Tovsp/Cvb6Bux3/BYTIhtb8fBoMhbvvW7T6afe89AEDvvz8Ld5YJDMvM+TT0wEOYrFqKLLsdnQFjknigm0U7srORlQSBhlhxbNs2bNyzJ27708Wiu6zWeS0yANTsk96KxRLdb68o8SGpYt2U8Pl/GI0QXxDpcIQAAAAASUVORK5CYII=;sketch=1;curveFitting=1;jiggle=2;" parent="gkbyzw-yZ3QWMMHyXDN--3" vertex="1">
                    <mxGeometry x="-2249" y="-364" width="70" height="68.85" as="geometry"/>
                </mxCell>
                <mxCell id="gkbyzw-yZ3QWMMHyXDN--7" value="&lt;font face=&quot;Comic Sans MS&quot; style=&quot;font-size: 30px;&quot;&gt;NVA Subnet&lt;/font&gt;" style="text;html=1;align=center;verticalAlign=middle;resizable=0;points=[];autosize=1;strokeColor=none;fillColor=none;fontColor=#000000;sketch=1;curveFitting=1;jiggle=2;fontStyle=1" parent="gkbyzw-yZ3QWMMHyXDN--3" vertex="1">
                    <mxGeometry x="-2717" y="-364" width="208" height="52" as="geometry"/>
                </mxCell>
                <mxCell id="I4nSlObdzHv6P_rm0cAF-13" value="Solution-with-ARS" parent="bhTP2_UY_HiaFr0e0wly-0" visible="0"/>
                <UserObject label="&lt;span style=&quot;color: rgb(0, 0, 0); font-family: &amp;quot;Comic Sans MS&amp;quot;; font-style: normal; font-variant-ligatures: normal; font-variant-caps: normal; letter-spacing: normal; orphans: 2; text-align: center; text-indent: 0px; text-transform: none; widows: 2; word-spacing: 0px; -webkit-text-stroke-width: 0px; background-color: rgb(251, 251, 251); text-decoration-thickness: initial; text-decoration-style: initial; text-decoration-color: initial; float: none; display: inline !important;&quot;&gt;&lt;font size=&quot;1&quot; style=&quot;&quot;&gt;&lt;b style=&quot;font-size: 30px;&quot;&gt;RouteServerSubnet&lt;/b&gt;&lt;/font&gt;&lt;/span&gt;" tags="" id="I4nSlObdzHv6P_rm0cAF-1">
                    <mxCell style="text;whiteSpace=wrap;html=1;fontSize=15;fontFamily=Comic Sans MS;fontColor=#000000;sketch=1;curveFitting=1;jiggle=2;" parent="I4nSlObdzHv6P_rm0cAF-13" vertex="1">
                        <mxGeometry x="-2821" y="-260" width="156" height="52" as="geometry"/>
                    </mxCell>
                </UserObject>
                <UserObject label="" tags="" id="I4nSlObdzHv6P_rm0cAF-0">
                    <mxCell style="aspect=fixed;html=1;points=[];align=center;image;fontSize=12;image=img/lib/azure2/networking/Virtual_Router.svg;rounded=0;glass=0;labelBackgroundColor=default;labelBorderColor=#FF0000;fillStyle=auto;strokeColor=#000000;strokeWidth=4;fontFamily=Comic Sans MS;fontColor=#000000;fillColor=none;gradientColor=none;opacity=70;sketch=1;curveFitting=1;jiggle=2;" parent="I4nSlObdzHv6P_rm0cAF-13" vertex="1">
                        <mxGeometry x="-2132" y="-273" width="68" height="68" as="geometry"/>
                    </mxCell>
                </UserObject>
                <UserObject label="" tags="" id="I4nSlObdzHv6P_rm0cAF-15">
                    <mxCell style="edgeStyle=none;curved=1;jumpStyle=none;jumpSize=2;orthogonalLoop=1;jettySize=auto;html=1;exitX=0.109;exitY=-0.019;exitDx=0;exitDy=0;entryX=0.788;entryY=-0.044;entryDx=0;entryDy=0;shadow=0;dashed=1;strokeColor=#FF00FF;strokeWidth=5;fontFamily=Helvetica;fontSize=11;fontColor=#000000;startArrow=classic;startFill=1;endArrow=classic;endFill=1;fillColor=#e51400;entryPerimeter=0;flowAnimation=0;exitPerimeter=0;sketch=1;curveFitting=1;jiggle=2;" parent="I4nSlObdzHv6P_rm0cAF-13" source="bhTP2_UY_HiaFr0e0wly-54" target="bhTP2_UY_HiaFr0e0wly-50" edge="1">
                        <mxGeometry relative="1" as="geometry">
                            <Array as="points">
                                <mxPoint x="-2119" y="-559"/>
                            </Array>
                            <mxPoint x="-1368.25" y="156" as="sourcePoint"/>
                            <mxPoint x="-212.98999999999978" y="173.07000000000016" as="targetPoint"/>
                        </mxGeometry>
                    </mxCell>
                </UserObject>
                <mxCell id="LdFzTjZZUpQZ4FR4s8Bu-2" value="NVA-all-flows" parent="bhTP2_UY_HiaFr0e0wly-0" visible="0"/>
                <mxCell id="LdFzTjZZUpQZ4FR4s8Bu-1" style="edgeStyle=none;curved=1;orthogonalLoop=1;jettySize=auto;html=1;exitX=0;exitY=1;exitDx=0;exitDy=0;entryX=0.25;entryY=0;entryDx=0;entryDy=0;dashed=1;strokeColor=#3333FF;strokeWidth=5;fontFamily=Comic Sans MS;fontSize=25;fontColor=#000000;startArrow=classic;startFill=1;sketch=1;curveFitting=1;jiggle=2;disableMultiStroke=1;" parent="LdFzTjZZUpQZ4FR4s8Bu-2" source="bhTP2_UY_HiaFr0e0wly-57" target="bhTP2_UY_HiaFr0e0wly-54" edge="1">
                    <mxGeometry relative="1" as="geometry">
                        <Array as="points">
                            <mxPoint x="-1729" y="-208"/>
                        </Array>
                    </mxGeometry>
                </mxCell>
                <mxCell id="XLq35cGK2K8w8u2eunkO-0" style="edgeStyle=none;curved=1;orthogonalLoop=1;jettySize=auto;html=1;exitX=0.75;exitY=0;exitDx=0;exitDy=0;entryX=0.75;entryY=1;entryDx=0;entryDy=0;dashed=1;strokeColor=#3333FF;strokeWidth=5;fontFamily=Comic Sans MS;fontSize=25;fontColor=#000000;startArrow=classic;startFill=1;sketch=1;curveFitting=1;jiggle=2;" parent="LdFzTjZZUpQZ4FR4s8Bu-2" source="bhTP2_UY_HiaFr0e0wly-50" target="bhTP2_UY_HiaFr0e0wly-58" edge="1">
                    <mxGeometry relative="1" as="geometry">
                        <Array as="points">
                            <mxPoint x="-2600" y="-273"/>
                        </Array>
                    </mxGeometry>
                </mxCell>
                <mxCell id="U0rL8oDPwYQTjQg7S70s-9" style="edgeStyle=none;curved=1;orthogonalLoop=1;jettySize=auto;html=1;exitX=0.75;exitY=0;exitDx=0;exitDy=0;entryX=0.301;entryY=0.001;entryDx=0;entryDy=0;entryPerimeter=0;dashed=1;strokeColor=#FF8000;strokeWidth=5;fontFamily=Comic Sans MS;fontSize=25;fontColor=#000000;startArrow=classic;startFill=1;sketch=1;curveFitting=1;jiggle=2;disableMultiStroke=1;" parent="LdFzTjZZUpQZ4FR4s8Bu-2" source="bhTP2_UY_HiaFr0e0wly-54" target="bhTP2_UY_HiaFr0e0wly-55" edge="1">
                    <mxGeometry relative="1" as="geometry">
                        <Array as="points">
                            <mxPoint x="-2171" y="-156"/>
                        </Array>
                    </mxGeometry>
                </mxCell>
                <mxCell id="U0rL8oDPwYQTjQg7S70s-10" style="edgeStyle=none;curved=1;orthogonalLoop=1;jettySize=auto;html=1;exitX=0.12;exitY=-0.001;exitDx=0;exitDy=0;entryX=0.75;entryY=0;entryDx=0;entryDy=0;dashed=1;strokeColor=#FF8000;strokeWidth=5;fontFamily=Comic Sans MS;fontSize=25;fontColor=#000000;startArrow=classic;startFill=1;exitPerimeter=0;sketch=1;curveFitting=1;jiggle=2;disableMultiStroke=1;" parent="LdFzTjZZUpQZ4FR4s8Bu-2" source="bhTP2_UY_HiaFr0e0wly-52" target="bhTP2_UY_HiaFr0e0wly-55" edge="1">
                    <mxGeometry relative="1" as="geometry">
                        <Array as="points">
                            <mxPoint x="-2340" y="-143"/>
                        </Array>
                    </mxGeometry>
                </mxCell>
                <UserObject label="" tags="" id="U0rL8oDPwYQTjQg7S70s-11">
                    <mxCell style="aspect=fixed;html=1;points=[];align=center;image;fontSize=12;image=img/lib/azure2/networking/Virtual_Router.svg;rounded=0;glass=0;labelBackgroundColor=default;labelBorderColor=#FF0000;fillStyle=auto;strokeColor=#000000;strokeWidth=4;fontFamily=Comic Sans MS;fontColor=#000000;fillColor=none;gradientColor=none;opacity=70;sketch=1;curveFitting=1;jiggle=2;" parent="LdFzTjZZUpQZ4FR4s8Bu-2" vertex="1">
                        <mxGeometry x="-2249" y="-273" width="68" height="68" as="geometry"/>
                    </mxCell>
                </UserObject>
                <mxCell id="MazJH_MAupsVVYRorkpQ-3" style="edgeStyle=none;curved=1;orthogonalLoop=1;jettySize=auto;html=1;exitX=0.859;exitY=0.989;exitDx=0;exitDy=0;entryX=0.25;entryY=1;entryDx=0;entryDy=0;dashed=1;strokeColor=#FF00FF;strokeWidth=5;fontFamily=Comic Sans MS;fontSize=25;fontColor=#000000;startArrow=classic;startFill=1;exitPerimeter=0;sketch=1;curveFitting=1;jiggle=2;disableMultiStroke=1;" parent="LdFzTjZZUpQZ4FR4s8Bu-2" source="bhTP2_UY_HiaFr0e0wly-57" target="bhTP2_UY_HiaFr0e0wly-58" edge="1">
                    <mxGeometry relative="1" as="geometry">
                        <Array as="points">
                            <mxPoint x="-2236" y="-52"/>
                        </Array>
                    </mxGeometry>
                </mxCell>
                <mxCell id="MazJH_MAupsVVYRorkpQ-1" value="" style="shape=image;verticalLabelPosition=bottom;labelBackgroundColor=default;verticalAlign=top;aspect=fixed;imageAspect=0;image=data:image/png,iVBORw0KGgoAAAANSUhEUgAAAHoAAAB4CAYAAAA9kebvAAAPLElEQVR4nO2de3AT173Hv7trsGxkW36/8QtsBxQwhQZDQrCdkubRmebezr0ht0xC7r3No8lNoJ07adqbApN7S2f6YPpImmQ6k7rt0CQzbaDNTAgEEDTBhMREYAJ2Co7ANn5jSca2DJbO/UPSWvuSdvVayT6fmTMj7Xns2f3q99uzv7N7xBBCCChzHlbvDlDiAxV6nkCFniekhCrQa7NhxGaLR18oEZJiMMDc2CifSRToaGsjl+rrCQFoSqI0ZTCQo7t3S/SUFbqjrU33DtMUWbJs2xZaaGrJyZ08DEMI4DVYH5LBWJfViurOzlhfTigxhCEEADCyfz+/TSL0KBV5zpAyMMB/lgjtcbni2hlKfKD30fMEKvQ8gQo9T6BCzxOCh0AZRvjdN2yXbKfoQzA9/Hk+lIVmWBBWaPCM2w2A+LZTsfWGcc8AAAjLCTOIh7+X9qMoNGEYeDhhA5zHDRDAw3LUqhMAzie0WCfGAzAej2BbUKHFvxQCnx2zHAgVOmEQ6yS2ZiCo62ZARL8Ur8wEhGNBGDqOSxTEOhHikZTRJrRXZxCWk1y/KfohEdrjlpTR5Lr5PCp0QiHRScbbhuG64XXdCj8CSvyRWLSMEQYXWvJL8TXEcFToBEIyaNZi0YRh4eHE2V6lPRwHIsmj6IVYJ1aLRRMZ183fXnGcjFun6IVEC+q65yYRuW6v0OIKvsEYK5dH0QuxFnLBrBCuWz6bcCn0Gp1ASLSQ8bbBJzUkARO/RcvkUXRDenulwaLl76NnG6ZCJw4R3UeHjoxRoROFyCNjkgZ8rpuJXmQs79zHgu9fzTDhN2XVyFTpMcT1R8xfBgDsHuzFz4b7+e0X6huQn7JAdb+cbjeqL5zmv383vxjPF5Ypln95ZAA/HOhRXT6aRBgwYeBJEWb7J79ISookL1q8N27Hvut2bMktDKu+v193mXIFQrdPT+FuQ5rqdjqnpwTf7zLlKh6z0z0jEBkAfjbcj/8oKEXeAvU/rnCR6CRjJCGeMFGIdbOxjXV/p6cbjRnZqNEgjB9/v2rTjYLth8Yd2JSdr7qdQ+MOwffadKPiMZ+ZGJfd3u6axN2pOar3GS5Si5YOxhRvhv3X6MAkDphEIymxs88WVn3/duOCVOwoq+a3t44M4OKNaVVtOgnBngAL/WlFLYwLUhXL/9U+ypfdXryY//y+cyxq5ynYsUt1ksqqHPVgfLNUAYlvWLQ9kqTEQccoDjqvaa4fmLfBlCvIO+uaUNWntgmnoF5DRpZi2WHPDFoDLhHfLCzlP7cO9+PiDVdUz5cqPWRG3UHCWywImyJIs66bk+SFm8T8sKKW//zw5x3ovXlTU/3AvGUZJkHeX0aHVPXpfccYX2dTdh6WZZgUy/59fPZHsa20CiVpRjwcMAg7OzUZtXOldOzSPA1CE9b7cGBg8rtuD8tJ8sJNYh4qLsemnNlr6S+vXtZUX5z/Ut1KPu/Q2Agu3nAFbW/IPYPfD/bydR4oKA1a/u3R2RfZWnIL4eE4NOcW8NveHh2I2rlSOnbxds2jbrnZKwAxnb0yphrwdMVSHLo2DAD4w0AP7i8owe3Zearqi/tlzhRadcfkdVQZMxXrfzopHFitNuUqHmv35HW+nwCwJCMThOPQkDU7ADt0bRifTU1gWZB9Roqa2asgrltmMCYadcdiMEZYDqtMeXgmwIVvPvsRhmdmVNcPTFXGLHwl4Fbt7aGrQftzOEC4LSUVKPGNtuXSSaedL/tMRS2MCw0gLIdcQzq2lFTwedbrzqidLzWDMW3XaJbhQ518yNM/6mY5SV64SSKUb/sjFUsE2/8y1KepfmD6euBIeHQQl1yTsuV6b07jj1cv82Wb84uD9v25rjOzZQuEZZvzi/m857rOwEk8UTtn4mOX5GkZdRPfpIaw4YBnxmIsdG5aOvauuZPf/r//OIf2cXtYQq/LEwZfzk2My5ZrD7BQALgtr1Cx3+3jwrJLMk2C/JWiS83nUxNxExoykxoaXbev4Ri4H7m21+UX45vlNXzeS190wen2aHLdhOWQm7ZI0M6+gR7ZcvsC7p2frlnGu2K5dGRkMGhZ8T6PjAxS1y0QSpT/ZK2Zzzs8dBXvDPVqtmjCcWgqKhO00y2ysO6pCRweusqXaS4qU2zL6XHj15fOhywbuM9fXzqPkZmbcbFoba5bx8FYYCpelInXbmvm879/9hS6Jyc0WTRhOXw5r0hQ7ty4Q5B/ThTybMgtVGzro7FRQdmazGzZcitzCgTlPnVEN1KmdMzanxmTsRggtvPRcu22lFbg36rqsPeLLgDAj86fxmvr7lJdHwCMXBqeqluBl7rOAgD299lw/+JZ17q/b3Z1xP9btT7o8VmGrwq+N7z7pmJZcb2W0orQBTUi7qvGgIn3cd/ARJjZyJg4L9wkRqncI7Ur+DJHBnrw/uBVTfU9XAo2llQK2jg/7oCHS8H5cQeOBFyfb80tVGyjd9rF/+C0sveLLlyanIj6uZPqFPF9tJdYuJ9QbVdm5eDFgFH4EycOos81pbo+YTlUi2LfZ+yjICyHMwGTEi0lFajLKVBs43TAfXY4fOa4FnPXre0JEzZxXLeff1lqxpH+Kzjqc7OvdlqxeclyvHHxM1X1jVwaXrytCS+csgAAXvjkOO6prMULnxzny9xfWRu0jb/1XOI/P7l8NZ5dsTbkMe38+Bjfx7/1XMJ9VXUh62hB0l9NT5hA7lGi2M9Hh2r3mZXreKEDBVZb35xXLPj+8fCA4PuqglLFNjrHRvh9A8CdZdWqzsOdpVV8X4/22XDBMYZ6lSFdNYj7oPmZMcmkgWhSIxaEarc2rxD/vXoDftL+97DrN5VVw9LbDQD49rF3+LwHa29FYaYJ0reLvZwdGxJ8r87OU3UezAUlknZq88J7gkYOcR8iv4/2NxSDe0EtbX+jfiWayqslddXWv7/mFtm6d1fXK9YZd89gR9thvuzjKxuxKC1d1f5yjBn414BZtB1thzHunonrfbSyRcu4buI3aR1dNwAsMqTjPxvWw9LTHVb9+vxi2e3L8ksU618UhUc3LF6i6RxsWFyDtwJi4xeddqwUWXq4SPqhyaIZaVAkHo8Sqa23oqgcj61aH1b9iux8bFwsnDR5bNV6LDKkK9Y53iv8UVUHGZnLpVtFT4Qe7+2O3ahbyys5IV+Ej9I1+swT/yP4Ll1mRZmn1rbgqbUtYdX/5X2bJduC1Y1kXwCQbcyM6FiDoSZgQt+9mgNE+O6VwmI1mJ3UoCQGEVm07JsacXqum6INyaBZ69IWSmIqDaQo+iDRIuLBGH1tNiGJeDAmibgENByryBhFO2oiYxqv0f6GqOtOJCK8RlPXnSxItKAWPTeJyKK9a5jILyjnDZ7TgEmiINYijMgYDZgkA1Fw3fJzHt6ACV1nLFGIeJ0x8cN3JMB1yz2YR9EHiU6aY91iq+WnKalFJxJ05cB5QvRXDozBfDQlcqQhUK2xbkmw3NcQXd03oYh+ZIxadEIS0e0VndRIHqIwqSHK5l23/IpAFH0Qa0EYzY8SKSzMzsnlUfRCrIWmwZj3Xlk+e+G4E5MF8VnQlCJPyuR1/rPU82p690rq6wfX3InKA29hxcu70Lfh3gi6SYmUvI5TAICRFWulARNN12iWBRGtGntl0z+j+ORhpI0MYMnbr0ehu5RIuJluhO2+zRKdIl6Y/XpZNQ6/+i5KThzEor7LCjUp8WDalIv+9Ztwc1GGNDPy12a99N1B3XYiE7UX4SkJjhqLXmDyrp2ZNtRPgyJJikeNRZc2NAAAsj8/i4XOMUxH8c18SnwoOnUUADBTN7uEBkOI9H/iP7n3Xqw5cACO6ltw5umduFbfEL9eUsImfbAPNftbUbOvFS6DASMXLqCs0rcSE5FhsL+fDBYVEQLQlKTpwz/9SaCprNCEEGIfGyPHnniC9FRW6t5pmtSlKYOBfHzPPaSjrU2ip6zrTiZ6bTaUVVVhoqgM7+5ti8k+lrX+HMta98CyYweadu6MyT5izRyagmJk3yKMWttJDp2CmidQoecJVGgVeBam6t2FiKFCq8Dl+3umlMvJO5FDhZ4nUKFVMFFUrncXIibphZ6we5dunCyK3aNNbt812mizhSiZuCS90HbfyXeJ/r8imkz6LDqPCq0f0wPe9bYnYmjR/sFY3sBAiJKJS9IL7fGNhKc1/Al4OEwUlcPgcqE3Sa066YUuPnAAAOBYuhyMLwoai+RYshwAYLNY9DzcsElqoR12O+qsVrgXpsJuXg2WZWKWRlc1end67Ji+Bx0mSS10p8+6xpZ/CWRhKlggZmm0wbs2eCW1aB1obQXgFYFhmJgmZ60Z0zkFKLPZYE1CsZNWaKvFgrX79mE6pwBfPPitmF6f/enilqcAAGnbt+t89NpJSqEddjsyn3wSAHBpy9NwZ2SBZZiYpyv/9AicS5ejzmqF5cc/1vksaCPphHbY7RhobkZ1Zyfs5tW48o2HwbCISyKGVHR9+wcAgKbnn4cliZ42SSqhrRYLBpqbUWe1wllrRvuevUCqIS7W7E+j61rQ8cIvAABNu3bh2PbtcNjtIXquP0nxzJjVYgF27UKDbxA0XmvGqZf/jJmMLN36VPrOmzC/+CwAwGEywbp1K2557jkUFBWFqKkPCSe0y+VC58mTsFssMH70EcwWCwwuFwBgJiMLlzd/C5c3P6aryH5y2k+g+rc/QU77CX5bd309rjY2Ahs3oqSxEdX19Tr2cJaEEfr4K68gff9+rPFFugKZKi5H/9cexJWHEkNgMRmfn0Nl669QeHCfJK+3shK2piaYHn8c5sZGHXrnRXehuzs7MfnoozCfPMlvu15rxtia2+E0fwljq2/HjdzYzUxFm8yOdmR1fILMc6eR3f4hFo7O/p+lZfduNH3ve7r0S1ehe202ZKxahSy7HTdyC/CP776Ia+tbEtJqw8XYdQ5F77yJ8r2vAgA+2LoVd7we/0UEdBPa5XLhYnMzzCdP4tr6Fpzf/eqcElhMzokjMH/nEbA3pvHB66/jjq1b47p/3YT+4He/wx2PPgpXSTlOv3F0Tovsp/Cvb6Bux3/BYTIhtb8fBoMhbvvW7T6afe89AEDvvz8Ld5YJDMvM+TT0wEOYrFqKLLsdnQFjknigm0U7srORlQSBhlhxbNs2bNyzJ27708Wiu6zWeS0yANTsk96KxRLdb68o8SGpYt2U8Pl/GI0QXxDpcIQAAAAASUVORK5CYII=;sketch=1;curveFitting=1;jiggle=2;" parent="LdFzTjZZUpQZ4FR4s8Bu-2" vertex="1">
                    <mxGeometry x="-2249" y="-364" width="70" height="68.85" as="geometry"/>
                </mxCell>
                <mxCell id="MazJH_MAupsVVYRorkpQ-5" style="edgeStyle=none;curved=1;orthogonalLoop=1;jettySize=auto;html=1;exitX=0.5;exitY=0;exitDx=0;exitDy=0;entryX=0.118;entryY=0.01;entryDx=0;entryDy=0;entryPerimeter=0;dashed=1;strokeColor=#3333FF;strokeWidth=5;fontFamily=Comic Sans MS;fontSize=25;fontColor=#000000;startArrow=classic;startFill=1;sketch=1;curveFitting=1;jiggle=2;disableMultiStroke=1;" parent="LdFzTjZZUpQZ4FR4s8Bu-2" source="bhTP2_UY_HiaFr0e0wly-49" target="bhTP2_UY_HiaFr0e0wly-50" edge="1">
                    <mxGeometry relative="1" as="geometry">
                        <Array as="points">
                            <mxPoint x="-2743" y="-910"/>
                        </Array>
                    </mxGeometry>
                </mxCell>
                <mxCell id="MazJH_MAupsVVYRorkpQ-12" style="edgeStyle=none;curved=1;orthogonalLoop=1;jettySize=auto;html=1;exitX=1;exitY=1;exitDx=0;exitDy=0;entryX=0.369;entryY=0.908;entryDx=0;entryDy=0;entryPerimeter=0;dashed=1;strokeColor=#FF33FF;strokeWidth=5;fontFamily=Comic Sans MS;fontSize=25;fontColor=#000000;startArrow=classic;startFill=1;sketch=1;curveFitting=1;jiggle=2;" parent="LdFzTjZZUpQZ4FR4s8Bu-2" source="bhTP2_UY_HiaFr0e0wly-58" target="0gOJhNK2u26gjlsnal8y-0" edge="1">
                    <mxGeometry relative="1" as="geometry">
                        <Array as="points">
                            <mxPoint x="-2600" y="-26"/>
                        </Array>
                    </mxGeometry>
                </mxCell>
                <mxCell id="M0Ocjxh6jK5rQdIQhLeV-0" value="Ipsec-with-two-VNG-instances" parent="bhTP2_UY_HiaFr0e0wly-0"/>
                <UserObject label="" tags="" id="VrAzjePDrt6RbZW5jVcZ-5">
                    <mxCell style="edgeStyle=none;orthogonalLoop=1;jettySize=auto;html=1;shadow=0;strokeColor=#006600;strokeWidth=2;fontFamily=Comic Sans MS;startArrow=classic;startFill=1;endArrow=classic;endFill=1;opacity=0;curved=1;jumpStyle=none;jumpSize=2;sketch=1;curveFitting=1;jiggle=2;" parent="M0Ocjxh6jK5rQdIQhLeV-0" edge="1">
                        <mxGeometry width="80" relative="1" as="geometry">
                            <mxPoint x="-1731" y="118" as="sourcePoint"/>
                            <mxPoint x="-1651" y="118" as="targetPoint"/>
                            <Array as="points"/>
                        </mxGeometry>
                    </mxCell>
                </UserObject>
                <UserObject label="S2S" tags="" id="VrAzjePDrt6RbZW5jVcZ-19">
                    <mxCell style="edgeLabel;html=1;align=center;verticalAlign=middle;resizable=0;points=[];fontSize=30;fontFamily=Comic Sans MS;fontColor=#000000;fontStyle=1;sketch=1;curveFitting=1;jiggle=2;" parent="M0Ocjxh6jK5rQdIQhLeV-0" vertex="1" connectable="0">
                        <mxGeometry x="-0.6178" y="3" relative="1" as="geometry">
                            <mxPoint x="-1365" y="91" as="offset"/>
                        </mxGeometry>
                    </mxCell>
                </UserObject>
                <mxCell id="ff7anAwrImGbUtOLiGLd-146" value="" style="group" parent="M0Ocjxh6jK5rQdIQhLeV-0" vertex="1" connectable="0">
                    <mxGeometry x="-4563" y="-962" width="1326" height="2210" as="geometry"/>
                </mxCell>
                <UserObject label="" tags="" id="M0Ocjxh6jK5rQdIQhLeV-22">
                    <mxCell style="rounded=0;whiteSpace=wrap;html=1;fillColor=#fff2cc;strokeColor=#d6b656;strokeWidth=2;sketch=1;curveFitting=1;jiggle=2;" parent="ff7anAwrImGbUtOLiGLd-146" vertex="1">
                        <mxGeometry x="624" y="1235" width="455" height="507" as="geometry"/>
                    </mxCell>
                </UserObject>
                <UserObject label="&lt;font style=&quot;font-size: 20px;&quot;&gt;ASAv (On-Prem)&lt;br&gt;NIC Public IP: 20.124.209.56&lt;br&gt;NIC Private IP: 10.10.3.4&lt;br&gt;Inside NIC IP: 10.10.2.4&lt;br&gt;Inside VM: 10.10.2.5&lt;br&gt;route hub-vnet-east-i0 10.1.0.0 255.255.0.0 20.25.39.186 1&lt;br&gt;route hub-vnet-east-i0 10.9.0.0 255.255.0.0 20.25.39.186 1&lt;br&gt;route hub-vnet-east-i0 10.100.0.0 255.255.0.0 20.25.39.186 1&lt;br&gt;route hub-vnet-east-i0 172.16.0.0 255.255.0.0 20.25.39.186 1&lt;br&gt;route hub-vnet-east-i0 192.168.99.0 255.255.255.0 20.25.39.186 1&lt;br&gt;&lt;br&gt;nehali@asav-inside-vm:~$ curl ifconfig.io&lt;br&gt;20.124.209.56&lt;/font&gt;" tags="" id="M0Ocjxh6jK5rQdIQhLeV-20">
                    <mxCell style="text;whiteSpace=wrap;html=1;fontSize=25;fontFamily=Comic Sans MS;fontColor=#000000;sketch=1;curveFitting=1;jiggle=2;" parent="ff7anAwrImGbUtOLiGLd-146" vertex="1">
                        <mxGeometry x="624" y="1781" width="702" height="429" as="geometry"/>
                    </mxCell>
                </UserObject>
                <UserObject label="" tags="" id="M0Ocjxh6jK5rQdIQhLeV-23">
                    <mxCell style="edgeStyle=none;rounded=0;jumpStyle=none;jumpSize=2;orthogonalLoop=1;jettySize=auto;html=1;shadow=0;strokeColor=#009900;strokeWidth=4;fontFamily=Comic Sans MS;fontSize=17;fontColor=#000000;startArrow=none;startFill=0;endArrow=classic;endFill=1;sketch=1;curveFitting=1;jiggle=2;disableMultiStroke=1;" parent="ff7anAwrImGbUtOLiGLd-146" edge="1">
                        <mxGeometry relative="1" as="geometry">
                            <mxPoint x="756" y="1228" as="targetPoint"/>
                            <mxPoint x="379" y="1260" as="sourcePoint"/>
                        </mxGeometry>
                    </mxCell>
                </UserObject>
                <UserObject label="" tags="" id="M0Ocjxh6jK5rQdIQhLeV-24">
                    <mxCell style="shape=image;html=1;verticalAlign=top;verticalLabelPosition=bottom;labelBackgroundColor=#ffffff;imageAspect=0;aspect=fixed;image=https://cdn1.iconfinder.com/data/icons/iconoir-vol-3/24/light-bulb-on-128.png;rounded=0;glass=0;labelBorderColor=#FF0000;fillStyle=auto;strokeColor=#000000;strokeWidth=4;fontFamily=Comic Sans MS;fontSize=25;fontColor=#FF0000;fillColor=none;gradientColor=none;opacity=70;sketch=1;curveFitting=1;jiggle=2;" parent="ff7anAwrImGbUtOLiGLd-146" vertex="1">
                        <mxGeometry x="314" y="1241" width="65" height="65" as="geometry"/>
                    </mxCell>
                </UserObject>
                <UserObject label="" tags="" id="M0Ocjxh6jK5rQdIQhLeV-38">
                    <mxCell style="aspect=fixed;html=1;points=[];align=center;image;fontSize=12;image=img/lib/azure2/compute/Virtual_Machine.svg;rounded=0;glass=0;labelBackgroundColor=default;fillStyle=hachure;strokeWidth=0;fontFamily=Comic Sans MS;fontColor=#000000;fillColor=none;opacity=70;sketch=1;curveFitting=1;jiggle=2;" parent="ff7anAwrImGbUtOLiGLd-146" vertex="1">
                        <mxGeometry x="808" y="1462" width="69" height="64" as="geometry"/>
                    </mxCell>
                </UserObject>
                <UserObject label="&lt;font style=&quot;font-size: 30px;&quot;&gt;&lt;b&gt;Assymetric Routing with Active-Active VPN GW&lt;/b&gt;&lt;/font&gt;" tags="" id="M0Ocjxh6jK5rQdIQhLeV-39">
                    <mxCell style="text;html=1;align=center;verticalAlign=middle;resizable=0;points=[];autosize=1;strokeColor=none;fillColor=none;fontSize=25;fontFamily=Comic Sans MS;fontColor=#000000;sketch=1;curveFitting=1;jiggle=2;" parent="ff7anAwrImGbUtOLiGLd-146" vertex="1">
                        <mxGeometry x="7" y="1313" width="728" height="52" as="geometry"/>
                    </mxCell>
                </UserObject>
                <UserObject label="" link="https://learn.microsoft.com/en-us/azure/vpn-gateway/vpn-gateway-highlyavailable" tags="" id="VrAzjePDrt6RbZW5jVcZ-0">
                    <mxCell style="shape=image;verticalLabelPosition=bottom;labelBackgroundColor=default;verticalAlign=top;aspect=fixed;imageAspect=0;image=https://learn.microsoft.com/en-us/azure/vpn-gateway/media/vpn-gateway-highlyavailable/active-active.png;sketch=1;curveFitting=1;jiggle=2;" parent="ff7anAwrImGbUtOLiGLd-146" vertex="1">
                        <mxGeometry y="1495" width="520" height="159" as="geometry"/>
                    </mxCell>
                </UserObject>
                <UserObject label="Azure Documentation" tags="" id="VrAzjePDrt6RbZW5jVcZ-14">
                    <mxCell style="text;html=1;align=center;verticalAlign=middle;resizable=0;points=[];autosize=1;strokeColor=none;fillColor=none;fontSize=30;fontFamily=Comic Sans MS;fontColor=#000000;sketch=1;curveFitting=1;jiggle=2;fontStyle=1" parent="ff7anAwrImGbUtOLiGLd-146" vertex="1">
                        <mxGeometry x="77" y="1437" width="338" height="52" as="geometry"/>
                    </mxCell>
                </UserObject>
                <UserObject label="" tags="" id="M0Ocjxh6jK5rQdIQhLeV-17">
                    <mxCell style="jumpStyle=none;jumpSize=2;orthogonalLoop=1;jettySize=auto;html=1;shadow=0;dashed=1;strokeColor=#009900;strokeWidth=4;fontFamily=Comic Sans MS;fontSize=21;fontColor=#000000;startArrow=none;startFill=0;endArrow=none;endFill=0;targetPerimeterSpacing=1;sketch=1;curveFitting=1;jiggle=2;" parent="ff7anAwrImGbUtOLiGLd-146" edge="1">
                        <mxGeometry relative="1" as="geometry">
                            <mxPoint x="899" y="929" as="sourcePoint"/>
                            <mxPoint x="847.0133779264215" y="1331" as="targetPoint"/>
                        </mxGeometry>
                    </mxCell>
                </UserObject>
                <UserObject label="" tags="" id="VrAzjePDrt6RbZW5jVcZ-18">
                    <mxCell style="edgeStyle=none;jumpStyle=none;jumpSize=2;orthogonalLoop=1;jettySize=auto;html=1;entryX=0.5;entryY=0;entryDx=0;entryDy=0;entryPerimeter=0;shadow=0;dashed=1;strokeColor=#009900;strokeWidth=4;fontFamily=Comic Sans MS;fontSize=21;fontColor=#000000;startArrow=none;startFill=0;endArrow=none;endFill=0;sketch=1;curveFitting=1;jiggle=2;" parent="ff7anAwrImGbUtOLiGLd-146" edge="1">
                        <mxGeometry relative="1" as="geometry">
                            <mxPoint x="808" y="929" as="sourcePoint"/>
                            <mxPoint x="841" y="1332" as="targetPoint"/>
                        </mxGeometry>
                    </mxCell>
                </UserObject>
                <UserObject label="" tags="" id="M0Ocjxh6jK5rQdIQhLeV-6">
                    <mxCell style="edgeStyle=none;orthogonalLoop=1;jettySize=auto;html=1;shadow=0;strokeColor=#006600;strokeWidth=2;fontFamily=Comic Sans MS;startArrow=classic;startFill=1;endArrow=classic;endFill=1;opacity=0;curved=1;jumpStyle=none;jumpSize=2;sketch=1;curveFitting=1;jiggle=2;" parent="ff7anAwrImGbUtOLiGLd-146" edge="1">
                        <mxGeometry width="80" relative="1" as="geometry">
                            <mxPoint x="897" y="1008" as="sourcePoint"/>
                            <mxPoint x="977" y="1008" as="targetPoint"/>
                            <Array as="points"/>
                        </mxGeometry>
                    </mxCell>
                </UserObject>
                <UserObject label="" tags="" id="M0Ocjxh6jK5rQdIQhLeV-9">
                    <mxCell style="aspect=fixed;html=1;points=[];align=center;image;fontSize=12;image=img/lib/azure2/networking/Virtual_Network_Gateways.svg;rounded=0;glass=0;labelBackgroundColor=#66B2FF;fillStyle=hachure;fontFamily=Comic Sans MS;fontColor=#000000;opacity=70;sketch=1;curveFitting=1;jiggle=2;" parent="ff7anAwrImGbUtOLiGLd-146" vertex="1">
                        <mxGeometry x="782" y="897" width="52" height="69" as="geometry"/>
                    </mxCell>
                </UserObject>
                <UserObject label="" tags="" id="M0Ocjxh6jK5rQdIQhLeV-11">
                    <mxCell style="aspect=fixed;html=1;points=[];align=center;image;fontSize=12;image=img/lib/azure2/networking/Virtual_Network_Gateways.svg;rounded=0;glass=0;labelBackgroundColor=default;fillStyle=auto;strokeColor=#000000;strokeWidth=4;fontFamily=Comic Sans MS;fontColor=#000000;fillColor=none;gradientColor=none;opacity=70;sketch=1;curveFitting=1;jiggle=2;" parent="ff7anAwrImGbUtOLiGLd-146" vertex="1">
                        <mxGeometry x="871" y="897" width="52" height="69" as="geometry"/>
                    </mxCell>
                </UserObject>
                <UserObject label="&lt;span style=&quot;font-size: 30px;&quot;&gt;&lt;span style=&quot;background-color: rgb(255, 255, 102);&quot;&gt;Active-Active VPN GW&lt;/span&gt;&lt;br&gt;First public IP address&lt;br&gt;20.25.39.186&amp;nbsp;&lt;br&gt;Second public IP address&lt;br&gt;20.25.39.30&amp;nbsp;&lt;br&gt;ASN: 65515&lt;br&gt;172.16.0.14&amp;nbsp;&lt;br&gt;172.16.0.15&lt;/span&gt;" tags="" id="M0Ocjxh6jK5rQdIQhLeV-40">
                    <mxCell style="text;whiteSpace=wrap;html=1;fontSize=25;fontFamily=Comic Sans MS;fontColor=#000000;sketch=1;curveFitting=1;jiggle=2;" parent="ff7anAwrImGbUtOLiGLd-146" vertex="1">
                        <mxGeometry x="39" y="572" width="442" height="299" as="geometry"/>
                    </mxCell>
                </UserObject>
                <UserObject label="" tags="" id="VrAzjePDrt6RbZW5jVcZ-51">
                    <mxCell style="rounded=0;whiteSpace=wrap;html=1;fillColor=#dae8fc;strokeColor=#007FFF;strokeWidth=4;fontFamily=Comic Sans MS;disableMultiStroke=1;disableMultiStrokeFill=1;sketch=1;curveFitting=1;jiggle=2;" parent="ff7anAwrImGbUtOLiGLd-146" vertex="1">
                        <mxGeometry x="624" y="585" width="480" height="413" as="geometry"/>
                    </mxCell>
                </UserObject>
                <UserObject label="" tags="" id="VrAzjePDrt6RbZW5jVcZ-49">
                    <mxCell style="rounded=0;whiteSpace=wrap;html=1;fillColor=#dae8fc;strokeColor=#007FFF;strokeWidth=4;fontFamily=Comic Sans MS;disableMultiStrokeFill=1;disableMultiStroke=1;sketch=1;curveFitting=1;jiggle=2;" parent="ff7anAwrImGbUtOLiGLd-146" vertex="1">
                        <mxGeometry x="494" y="118" width="300" height="250" as="geometry"/>
                    </mxCell>
                </UserObject>
                <UserObject label="" tags="" id="VrAzjePDrt6RbZW5jVcZ-50">
                    <mxCell style="rounded=0;whiteSpace=wrap;html=1;fillColor=#dae8fc;strokeColor=#007FFF;strokeWidth=4;fontFamily=Comic Sans MS;disableMultiStrokeFill=1;disableMultiStroke=1;sketch=1;curveFitting=1;jiggle=2;" parent="ff7anAwrImGbUtOLiGLd-146" vertex="1">
                        <mxGeometry x="914" y="118" width="290" height="250" as="geometry"/>
                    </mxCell>
                </UserObject>
                <UserObject label="&lt;b&gt;HUB&lt;/b&gt;" tags="" id="VrAzjePDrt6RbZW5jVcZ-52">
                    <mxCell style="text;html=1;align=center;verticalAlign=middle;resizable=0;points=[];autosize=1;strokeColor=none;fillColor=none;fontSize=25;fontFamily=Comic Sans MS;fontColor=#000000;sketch=1;curveFitting=1;jiggle=2;" parent="ff7anAwrImGbUtOLiGLd-146" vertex="1">
                        <mxGeometry x="648" y="605.5" width="78" height="39" as="geometry"/>
                    </mxCell>
                </UserObject>
                <UserObject label="" tags="" id="VrAzjePDrt6RbZW5jVcZ-53">
                    <mxCell style="aspect=fixed;html=1;points=[];align=center;image;fontSize=12;image=img/lib/azure2/compute/Kubernetes_Services.svg;rounded=0;glass=0;labelBackgroundColor=default;fillStyle=hachure;strokeWidth=0;fontFamily=Comic Sans MS;fontColor=#000000;fillColor=none;opacity=70;sketch=1;curveFitting=1;jiggle=2;" parent="ff7anAwrImGbUtOLiGLd-146" vertex="1">
                        <mxGeometry x="515" y="127" width="68" height="60" as="geometry"/>
                    </mxCell>
                </UserObject>
                <UserObject label="" tags="" id="VrAzjePDrt6RbZW5jVcZ-54">
                    <mxCell style="aspect=fixed;html=1;points=[];align=center;image;fontSize=12;image=img/lib/azure2/networking/Virtual_Networks.svg;rounded=0;glass=0;labelBackgroundColor=#66B2FF;fillStyle=hachure;fontFamily=Comic Sans MS;fontColor=#000000;opacity=70;sketch=1;curveFitting=1;jiggle=2;" parent="ff7anAwrImGbUtOLiGLd-146" vertex="1">
                        <mxGeometry x="697" y="140" width="67" height="40" as="geometry"/>
                    </mxCell>
                </UserObject>
                <UserObject label="" tags="" id="VrAzjePDrt6RbZW5jVcZ-55">
                    <mxCell style="aspect=fixed;html=1;points=[];align=center;image;fontSize=12;image=img/lib/azure2/compute/Virtual_Machine.svg;rounded=0;glass=0;labelBackgroundColor=default;fillStyle=hachure;strokeWidth=0;fontFamily=Comic Sans MS;fontColor=#000000;fillColor=none;opacity=70;sketch=1;curveFitting=1;jiggle=2;" parent="ff7anAwrImGbUtOLiGLd-146" vertex="1">
                        <mxGeometry x="944" y="127" width="69" height="64" as="geometry"/>
                    </mxCell>
                </UserObject>
                <UserObject label="" tags="" id="VrAzjePDrt6RbZW5jVcZ-56">
                    <mxCell style="aspect=fixed;html=1;points=[];align=center;image;fontSize=12;image=img/lib/azure2/networking/Virtual_Networks.svg;rounded=0;glass=0;labelBackgroundColor=#66B2FF;fillStyle=hachure;fontFamily=Comic Sans MS;fontColor=#000000;opacity=70;sketch=1;curveFitting=1;jiggle=2;" parent="ff7anAwrImGbUtOLiGLd-146" vertex="1">
                        <mxGeometry x="1100" y="140" width="67" height="40" as="geometry"/>
                    </mxCell>
                </UserObject>
                <UserObject label="&lt;font face=&quot;Comic Sans MS&quot; style=&quot;font-size: 25px;&quot;&gt;&lt;b&gt;Spoke1&lt;/b&gt;&lt;/font&gt;" tags="" id="VrAzjePDrt6RbZW5jVcZ-57">
                    <mxCell style="text;html=1;align=center;verticalAlign=middle;resizable=0;points=[];autosize=1;strokeColor=none;fillColor=none;sketch=1;curveFitting=1;jiggle=2;" parent="ff7anAwrImGbUtOLiGLd-146" vertex="1">
                        <mxGeometry x="574" y="183" width="117" height="39" as="geometry"/>
                    </mxCell>
                </UserObject>
                <UserObject label="&lt;font face=&quot;Comic Sans MS&quot; style=&quot;font-size: 25px;&quot;&gt;Spoke2&lt;/font&gt;" tags="" id="VrAzjePDrt6RbZW5jVcZ-58">
                    <mxCell style="text;html=1;align=center;verticalAlign=middle;resizable=0;points=[];autosize=1;strokeColor=none;fillColor=none;sketch=1;curveFitting=1;jiggle=2;fontStyle=1" parent="ff7anAwrImGbUtOLiGLd-146" vertex="1">
                        <mxGeometry x="1009" y="196" width="117" height="39" as="geometry"/>
                    </mxCell>
                </UserObject>
                <UserObject label="" tags="" id="VrAzjePDrt6RbZW5jVcZ-60">
                    <mxCell style="aspect=fixed;html=1;points=[];align=center;image;fontSize=12;image=img/lib/azure2/networking/Virtual_Networks.svg;rounded=0;glass=0;labelBackgroundColor=#66B2FF;fillStyle=hachure;fontFamily=Comic Sans MS;fontColor=#000000;opacity=70;sketch=1;curveFitting=1;jiggle=2;" parent="ff7anAwrImGbUtOLiGLd-146" vertex="1">
                        <mxGeometry x="1014" y="605" width="67" height="40" as="geometry"/>
                    </mxCell>
                </UserObject>
                <UserObject label="&lt;font style=&quot;font-size: 20px;&quot;&gt;&lt;b&gt;Gateway Subnet&lt;/b&gt;&lt;/font&gt;" tags="" id="VrAzjePDrt6RbZW5jVcZ-67">
                    <mxCell style="text;html=1;align=center;verticalAlign=middle;resizable=0;points=[];autosize=1;strokeColor=none;fillColor=none;fontSize=25;fontFamily=Comic Sans MS;fontColor=#000000;sketch=1;curveFitting=1;jiggle=2;" parent="ff7anAwrImGbUtOLiGLd-146" vertex="1">
                        <mxGeometry x="429" y="923" width="182" height="39" as="geometry"/>
                    </mxCell>
                </UserObject>
                <UserObject label="&lt;b&gt;Internet&lt;/b&gt;" tags="" id="VrAzjePDrt6RbZW5jVcZ-68">
                    <mxCell style="ellipse;shape=cloud;whiteSpace=wrap;html=1;rounded=0;glass=0;labelBackgroundColor=default;fillStyle=auto;strokeColor=#000000;strokeWidth=4;fontFamily=Comic Sans MS;fontSize=25;fontColor=#000000;fillColor=none;gradientColor=none;opacity=70;sketch=1;curveFitting=1;jiggle=2;" parent="ff7anAwrImGbUtOLiGLd-146" vertex="1">
                        <mxGeometry x="779" width="300" height="80" as="geometry"/>
                    </mxCell>
                </UserObject>
                <UserObject label="" tags="" id="VrAzjePDrt6RbZW5jVcZ-69">
                    <mxCell style="edgeStyle=none;shape=connector;rounded=0;orthogonalLoop=1;jettySize=auto;html=1;exitX=0.5;exitY=1;exitDx=0;exitDy=0;entryX=0.634;entryY=0.001;entryDx=0;entryDy=0;entryPerimeter=0;labelBackgroundColor=default;strokeColor=#3399FF;strokeWidth=4;fontFamily=Comic Sans MS;fontSize=25;fontColor=default;startArrow=diamond;startFill=1;endArrow=diamond;endFill=1;sketch=1;curveFitting=1;jiggle=2;disableMultiStroke=1;" parent="ff7anAwrImGbUtOLiGLd-146" source="VrAzjePDrt6RbZW5jVcZ-50" target="VrAzjePDrt6RbZW5jVcZ-51" edge="1">
                        <mxGeometry relative="1" as="geometry"/>
                    </mxCell>
                </UserObject>
                <UserObject label="" tags="" id="VrAzjePDrt6RbZW5jVcZ-70">
                    <mxCell style="edgeStyle=none;shape=connector;rounded=0;orthogonalLoop=1;jettySize=auto;html=1;exitX=0.5;exitY=1;exitDx=0;exitDy=0;entryX=0.267;entryY=0.001;entryDx=0;entryDy=0;entryPerimeter=0;labelBackgroundColor=default;strokeColor=#3399FF;strokeWidth=4;fontFamily=Comic Sans MS;fontSize=25;fontColor=default;startArrow=diamond;startFill=1;endArrow=diamond;endFill=1;sketch=1;curveFitting=1;jiggle=2;disableMultiStroke=1;" parent="ff7anAwrImGbUtOLiGLd-146" source="VrAzjePDrt6RbZW5jVcZ-49" target="VrAzjePDrt6RbZW5jVcZ-51" edge="1">
                        <mxGeometry relative="1" as="geometry"/>
                    </mxCell>
                </UserObject>
                <UserObject label="" tags="" id="VrAzjePDrt6RbZW5jVcZ-73">
                    <mxCell style="edgeStyle=none;jumpStyle=none;jumpSize=2;orthogonalLoop=1;jettySize=auto;html=1;exitX=0;exitY=0.5;exitDx=0;exitDy=0;entryX=1;entryY=0.5;entryDx=0;entryDy=0;shadow=0;strokeColor=#3399FF;strokeWidth=3;fontFamily=Comic Sans MS;fontSize=25;fontColor=#000000;startArrow=none;startFill=0;endArrow=none;endFill=0;rounded=0;sketch=1;curveFitting=1;jiggle=2;" parent="ff7anAwrImGbUtOLiGLd-146" edge="1">
                        <mxGeometry relative="1" as="geometry">
                            <mxPoint x="620" y="858" as="sourcePoint"/>
                            <mxPoint x="1100" y="858" as="targetPoint"/>
                        </mxGeometry>
                    </mxCell>
                </UserObject>
                <UserObject label="" tags="" id="VrAzjePDrt6RbZW5jVcZ-80">
                    <mxCell style="edgeStyle=none;jumpStyle=none;jumpSize=2;orthogonalLoop=1;jettySize=auto;html=1;exitX=0;exitY=0.5;exitDx=0;exitDy=0;entryX=1;entryY=0.5;entryDx=0;entryDy=0;shadow=0;strokeColor=#3399FF;strokeWidth=3;fontFamily=Comic Sans MS;fontSize=25;fontColor=#000000;startArrow=none;startFill=0;endArrow=none;endFill=0;rounded=0;sketch=1;curveFitting=1;jiggle=2;" parent="ff7anAwrImGbUtOLiGLd-146" edge="1">
                        <mxGeometry relative="1" as="geometry">
                            <mxPoint x="620" y="767" as="sourcePoint"/>
                            <mxPoint x="1100" y="767" as="targetPoint"/>
                        </mxGeometry>
                    </mxCell>
                </UserObject>
                <UserObject label="" tags="" id="VrAzjePDrt6RbZW5jVcZ-81">
                    <mxCell style="edgeStyle=none;jumpStyle=none;jumpSize=2;orthogonalLoop=1;jettySize=auto;html=1;exitX=0;exitY=0.5;exitDx=0;exitDy=0;entryX=1;entryY=0.5;entryDx=0;entryDy=0;shadow=0;strokeColor=#3399FF;strokeWidth=3;fontFamily=Comic Sans MS;fontSize=25;fontColor=#000000;startArrow=none;startFill=0;endArrow=none;endFill=0;rounded=0;sketch=1;curveFitting=1;jiggle=2;" parent="ff7anAwrImGbUtOLiGLd-146" edge="1">
                        <mxGeometry relative="1" as="geometry">
                            <mxPoint x="620" y="689" as="sourcePoint"/>
                            <mxPoint x="1100" y="689" as="targetPoint"/>
                        </mxGeometry>
                    </mxCell>
                </UserObject>
                <UserObject label="&lt;span style=&quot;font-size: 25px;&quot;&gt;Instance-0&lt;/span&gt;" tags="" id="VrAzjePDrt6RbZW5jVcZ-82">
                    <mxCell style="text;html=1;align=center;verticalAlign=middle;resizable=0;points=[];autosize=1;strokeColor=none;fillColor=none;fontSize=25;fontFamily=Comic Sans MS;fontColor=#000000;disableMultiStroke=1;disableMultiStrokeFill=1;strokeWidth=25;sketch=1;curveFitting=1;jiggle=2;fontStyle=1" parent="ff7anAwrImGbUtOLiGLd-146" vertex="1">
                        <mxGeometry x="689" y="858" width="169" height="39" as="geometry"/>
                    </mxCell>
                </UserObject>
                <UserObject label="&lt;span style=&quot;font-size: 25px;&quot;&gt;Instance-1&lt;/span&gt;" tags="" id="VrAzjePDrt6RbZW5jVcZ-83">
                    <mxCell style="text;html=1;align=center;verticalAlign=middle;resizable=0;points=[];autosize=1;strokeColor=none;fillColor=none;fontSize=25;fontFamily=Comic Sans MS;fontColor=#000000;sketch=1;curveFitting=1;jiggle=2;fontStyle=1" parent="ff7anAwrImGbUtOLiGLd-146" vertex="1">
                        <mxGeometry x="855" y="858" width="169" height="39" as="geometry"/>
                    </mxCell>
                </UserObject>
                <UserObject label="&lt;b style=&quot;color: rgb(0, 0, 0); font-family: &amp;quot;Comic Sans MS&amp;quot;; font-size: 26px; font-style: normal; font-variant-ligatures: normal; font-variant-caps: normal; letter-spacing: normal; orphans: 2; text-align: center; text-indent: 0px; text-transform: none; widows: 2; word-spacing: 0px; -webkit-text-stroke-width: 0px; background-color: rgb(248, 249, 250); text-decoration-thickness: initial; text-decoration-style: initial; text-decoration-color: initial;&quot;&gt;VPN GW&lt;/b&gt;" tags="" id="VrAzjePDrt6RbZW5jVcZ-84">
                    <mxCell style="text;whiteSpace=wrap;html=1;fontSize=26;fontFamily=Comic Sans MS;fontColor=#000000;sketch=1;curveFitting=1;jiggle=2;" parent="ff7anAwrImGbUtOLiGLd-146" vertex="1">
                        <mxGeometry x="799.5" y="923" width="195" height="52" as="geometry"/>
                    </mxCell>
                </UserObject>
                <UserObject label="" tags="" id="VrAzjePDrt6RbZW5jVcZ-79">
                    <mxCell style="edgeStyle=none;orthogonalLoop=1;jettySize=auto;html=1;shadow=0;dashed=1;strokeColor=#FF0000;strokeWidth=4;fontFamily=Comic Sans MS;fontSize=21;fontColor=#000000;startArrow=none;startFill=0;endArrow=none;endFill=1;jumpStyle=none;jumpSize=2;curved=1;sketch=1;curveFitting=1;jiggle=2;disableMultiStroke=1;" parent="ff7anAwrImGbUtOLiGLd-146" edge="1">
                        <mxGeometry width="80" relative="1" as="geometry">
                            <mxPoint x="640" y="169" as="sourcePoint"/>
                            <mxPoint x="923" y="1287" as="targetPoint"/>
                            <Array as="points">
                                <mxPoint x="769" y="1345"/>
                                <mxPoint x="848" y="1677"/>
                            </Array>
                        </mxGeometry>
                    </mxCell>
                </UserObject>
                <UserObject label="&lt;span style=&quot;color: rgb(0, 0, 0); font-family: &amp;quot;Comic Sans MS&amp;quot;; font-size: 30px; font-style: normal; font-variant-ligatures: normal; font-variant-caps: normal; letter-spacing: normal; orphans: 2; text-align: center; text-indent: 0px; text-transform: none; widows: 2; word-spacing: 0px; -webkit-text-stroke-width: 0px; background-color: rgb(248, 249, 250); text-decoration-thickness: initial; text-decoration-style: initial; text-decoration-color: initial;&quot;&gt;10.10.0.0/16&lt;br&gt;VM: 10.10.2.5&lt;/span&gt;" tags="" id="bVmakvY4JORwRqf2uU1Y-0">
                    <mxCell style="text;whiteSpace=wrap;html=1;fontSize=25;fontFamily=Comic Sans MS;fontColor=#000000;sketch=1;curveFitting=1;jiggle=2;fontStyle=1" parent="ff7anAwrImGbUtOLiGLd-146" vertex="1">
                        <mxGeometry x="741" y="1612" width="286" height="91" as="geometry"/>
                    </mxCell>
                </UserObject>
                <mxCell id="FMytKJnADL6UDUm3uzk5-9" value="" style="image;html=1;image=img/lib/clip_art/networking/Firewall_02_128x128.png;sketch=1;hachureGap=4;jiggle=2;disableMultiStroke=1;disableMultiStrokeFill=1;curveFitting=1;fontFamily=Architects Daughter;fontSource=https%3A%2F%2Ffonts.googleapis.com%2Fcss%3Ffamily%3DArchitects%2BDaughter;fontSize=30;" parent="ff7anAwrImGbUtOLiGLd-146" vertex="1">
                    <mxGeometry x="819" y="1330" width="80" height="80" as="geometry"/>
                </mxCell>
                <mxCell id="VrAzjePDrt6RbZW5jVcZ-48" value="Solution-with-vti-zone" parent="bhTP2_UY_HiaFr0e0wly-0" visible="0"/>
                <UserObject label="" tags="" id="VrAzjePDrt6RbZW5jVcZ-12">
                    <mxCell style="shape=image;html=1;verticalAlign=top;verticalLabelPosition=bottom;labelBackgroundColor=#ffffff;imageAspect=0;aspect=fixed;image=https://cdn1.iconfinder.com/data/icons/iconoir-vol-3/24/light-bulb-on-128.png;rounded=0;glass=0;labelBorderColor=#FF0000;fillStyle=auto;strokeColor=#000000;strokeWidth=4;fontFamily=Comic Sans MS;fontSize=25;fontColor=#FF0000;fillColor=none;gradientColor=none;opacity=70;sketch=1;curveFitting=1;jiggle=2;" parent="VrAzjePDrt6RbZW5jVcZ-48" vertex="1">
                        <mxGeometry x="-2652" y="108" width="65" height="65" as="geometry"/>
                    </mxCell>
                </UserObject>
                <UserObject label="&lt;b&gt;Use VTI Zone with ASAv&lt;/b&gt;" tags="" id="VrAzjePDrt6RbZW5jVcZ-3">
                    <mxCell style="text;html=1;align=center;verticalAlign=middle;resizable=0;points=[];autosize=1;strokeColor=none;fillColor=none;fontSize=25;fontFamily=Comic Sans MS;fontColor=#000000;sketch=1;curveFitting=1;jiggle=2;" parent="VrAzjePDrt6RbZW5jVcZ-48" vertex="1">
                        <mxGeometry x="-2684" y="156" width="338" height="39" as="geometry"/>
                    </mxCell>
                </UserObject>
                <UserObject label="" tags="" id="VrAzjePDrt6RbZW5jVcZ-2">
                    <mxCell style="edgeStyle=none;orthogonalLoop=1;jettySize=auto;html=1;shadow=0;dashed=1;strokeColor=#009900;strokeWidth=4;fontFamily=Comic Sans MS;fontSize=25;fontColor=#000000;startArrow=none;startFill=0;endArrow=classic;endFill=1;targetPerimeterSpacing=1;jumpStyle=none;jumpSize=2;entryX=1;entryY=0.5;entryDx=0;entryDy=0;sketch=1;curveFitting=1;jiggle=2;" parent="VrAzjePDrt6RbZW5jVcZ-48" edge="1">
                        <mxGeometry width="80" relative="1" as="geometry">
                            <mxPoint x="-2652" y="199.51" as="sourcePoint"/>
                            <mxPoint x="-2944" y="244.51" as="targetPoint"/>
                            <Array as="points"/>
                        </mxGeometry>
                    </mxCell>
                </UserObject>
                <UserObject label="" tags="" id="VrAzjePDrt6RbZW5jVcZ-35">
                    <mxCell style="ellipse;whiteSpace=wrap;html=1;disableMultiStroke=1;disableMultiStrokeFill=1;strokeWidth=4;fontFamily=Comic Sans MS;fontSize=20;fontColor=#000000;fillColor=#00CC00;gradientColor=none;strokeColor=#009900;sketch=1;curveFitting=1;jiggle=2;" parent="VrAzjePDrt6RbZW5jVcZ-48" vertex="1">
                        <mxGeometry x="-3020" y="244.51" width="117" height="46" as="geometry"/>
                    </mxCell>
                </UserObject>
                <UserObject label="&lt;b&gt;ExR&lt;/b&gt;" tags="" id="bVmakvY4JORwRqf2uU1Y-1">
                    <mxCell style="edgeLabel;html=1;align=center;verticalAlign=middle;resizable=0;points=[];fontSize=25;fontFamily=Comic Sans MS;fontColor=#000000;sketch=1;curveFitting=1;jiggle=2;" parent="VrAzjePDrt6RbZW5jVcZ-48" vertex="1" connectable="0">
                        <mxGeometry x="-698" y="113" as="geometry">
                            <mxPoint x="300" y="-17" as="offset"/>
                        </mxGeometry>
                    </mxCell>
                </UserObject>
                <UserObject label="&lt;b&gt;ExR&lt;/b&gt;" tags="" id="bVmakvY4JORwRqf2uU1Y-2">
                    <mxCell style="edgeLabel;html=1;align=center;verticalAlign=middle;resizable=0;points=[];fontSize=25;fontFamily=Comic Sans MS;fontColor=#000000;sketch=1;curveFitting=1;jiggle=2;" parent="VrAzjePDrt6RbZW5jVcZ-48" vertex="1" connectable="0">
                        <mxGeometry x="-685" y="126" as="geometry">
                            <mxPoint x="579" y="-24" as="offset"/>
                        </mxGeometry>
                    </mxCell>
                </UserObject>
                <UserObject label="&lt;span style=&quot;color: rgb(250, 0, 0); font-family: &amp;quot;Comic Sans MS&amp;quot;; font-style: normal; font-variant-ligatures: normal; font-variant-caps: normal; letter-spacing: normal; orphans: 2; text-align: left; text-indent: 0px; text-transform: none; widows: 2; word-spacing: 0px; -webkit-text-stroke-width: 0px; background-color: rgb(251, 251, 251); text-decoration-thickness: initial; text-decoration-style: initial; text-decoration-color: initial; float: none; display: inline !important;&quot;&gt;&lt;font style=&quot;font-size: 20px;&quot;&gt;&lt;b&gt;ASN: 12076&lt;/b&gt;&lt;/font&gt;&lt;/span&gt;" tags="" id="y0XvrM9CyRKuzTgxJN3f-0">
                    <mxCell style="text;whiteSpace=wrap;html=1;fontSize=15;fontFamily=Comic Sans MS;fontColor=#000000;sketch=1;curveFitting=1;jiggle=2;" parent="VrAzjePDrt6RbZW5jVcZ-48" vertex="1">
                        <mxGeometry x="-260" y="87" width="130" height="52" as="geometry"/>
                    </mxCell>
                </UserObject>
                <mxCell id="xdwYOMf5n0mw4Xo9QNA6-0" value="TODO: BGP over IPSec" parent="bhTP2_UY_HiaFr0e0wly-0" visible="0"/>
                <mxCell id="cHquGx5Fdz1bRuiigCZR-15" value="TODO: Configuration" parent="bhTP2_UY_HiaFr0e0wly-0" visible="0"/>
                <UserObject label="&lt;font style=&quot;font-size: 20px;&quot;&gt;ASAv (On-Prem)&lt;br&gt;NIC Public IP: 20.124.209.56&lt;br&gt;NIC Private IP: 10.10.3.4&lt;br&gt;Inside NIC IP: 10.10.2.4&lt;br&gt;Inside VM: 10.10.2.5&lt;br&gt;route hub-vnet-east-i0 10.1.0.0 255.255.0.0 20.25.39.186 1&lt;br&gt;route hub-vnet-east-i0 10.9.0.0 255.255.0.0 20.25.39.186 1&lt;br&gt;route hub-vnet-east-i0 10.100.0.0 255.255.0.0 20.25.39.186 1&lt;br&gt;route hub-vnet-east-i0 172.16.0.0 255.255.0.0 20.25.39.186 1&lt;br&gt;route hub-vnet-east-i0 192.168.99.0 255.255.255.0 20.25.39.186 1&lt;br&gt;&lt;br&gt;nehali@asav-inside-vm:~$ curl ifconfig.io&lt;br&gt;20.124.209.56&lt;/font&gt;" tags="" id="cHquGx5Fdz1bRuiigCZR-25">
                    <mxCell style="text;whiteSpace=wrap;html=1;fontSize=25;fontFamily=Comic Sans MS;fontColor=#000000;sketch=1;curveFitting=1;jiggle=2;" parent="cHquGx5Fdz1bRuiigCZR-15" vertex="1">
                        <mxGeometry x="-2849" y="679" width="598" height="429" as="geometry"/>
                    </mxCell>
                </UserObject>
                <UserObject label="&lt;font style=&quot;font-size: 20px;&quot;&gt;Strongswan (On-Prem)&lt;br&gt;NIC Public IP: 20.228.251.249&lt;br&gt;NIC Private IP: 10.8.1.4&lt;br&gt;# ipsec.conf&lt;br&gt;# basic configuration&lt;br&gt;config setup&lt;br&gt;&amp;nbsp; &amp;nbsp; &amp;nbsp; &amp;nbsp; charondebug=&quot;all&quot;&lt;br&gt;&amp;nbsp; &amp;nbsp; &amp;nbsp; &amp;nbsp; uniqueids=yes&lt;br&gt;&amp;nbsp; &amp;nbsp; &amp;nbsp; &amp;nbsp; strictcrlpolicy=no&lt;br&gt;&lt;br&gt;&lt;br&gt;# connection to amsterdam datacenter&lt;br&gt;conn azure&lt;br&gt;&amp;nbsp; &amp;nbsp; &amp;nbsp; &amp;nbsp; authby=secret&lt;br&gt;&amp;nbsp; &amp;nbsp; &amp;nbsp; &amp;nbsp; left=%defaultroute&lt;br&gt;&amp;nbsp; &amp;nbsp; &amp;nbsp; &amp;nbsp; leftid=20.228.251.249&lt;br&gt;&amp;nbsp; &amp;nbsp; &amp;nbsp; &amp;nbsp; leftsubnet=10.8.1.0/24&lt;br&gt;&amp;nbsp; &amp;nbsp; &amp;nbsp; &amp;nbsp; right=20.25.39.186&lt;br&gt;&amp;nbsp; &amp;nbsp; &amp;nbsp; &amp;nbsp; rightsubnet=172.16.1.0/24&lt;/font&gt;" tags="" id="cHquGx5Fdz1bRuiigCZR-26">
                    <mxCell style="text;whiteSpace=wrap;html=1;fontSize=15;fontFamily=Comic Sans MS;fontColor=#000000;sketch=1;curveFitting=1;jiggle=2;" parent="cHquGx5Fdz1bRuiigCZR-15" vertex="1">
                        <mxGeometry x="-3393" y="663" width="312" height="364" as="geometry"/>
                    </mxCell>
                </UserObject>
                <UserObject label="vCenter:&lt;br&gt;https://10.100.0.2/&lt;br&gt;username:cloudadmin@vsphere.local&lt;br&gt;&lt;br&gt;&lt;br&gt;NSX:&lt;br&gt;https://10.100.0.3/&lt;br&gt;username: cloudadmin" tags="" id="cHquGx5Fdz1bRuiigCZR-27">
                    <mxCell style="text;whiteSpace=wrap;html=1;fontSize=15;fontFamily=Comic Sans MS;fontColor=#000000;sketch=1;curveFitting=1;jiggle=2;" parent="cHquGx5Fdz1bRuiigCZR-15" vertex="1">
                        <mxGeometry x="-1529" y="702" width="366" height="286" as="geometry"/>
                    </mxCell>
                </UserObject>
                <UserObject label="&lt;span style=&quot;font-family: &amp;quot;Comic Sans MS&amp;quot;; font-style: normal; font-variant-ligatures: normal; font-variant-caps: normal; letter-spacing: normal; orphans: 2; text-align: left; text-indent: 0px; text-transform: none; widows: 2; word-spacing: 0px; -webkit-text-stroke-width: 0px; background-color: rgb(251, 251, 251); text-decoration-thickness: initial; text-decoration-style: initial; text-decoration-color: initial; float: none; display: inline !important;&quot;&gt;&lt;font style=&quot;font-size: 20px;&quot;&gt;&lt;b&gt;ASN:65515&lt;/b&gt;&lt;/font&gt;&lt;/span&gt;" tags="" id="cHquGx5Fdz1bRuiigCZR-35">
                    <mxCell style="text;whiteSpace=wrap;html=1;fontSize=15;fontFamily=Comic Sans MS;fontColor=#000000;sketch=1;curveFitting=1;jiggle=2;" parent="cHquGx5Fdz1bRuiigCZR-15" vertex="1">
                        <mxGeometry x="-2359" y="-195" width="108" height="26" as="geometry"/>
                    </mxCell>
                </UserObject>
                <UserObject label="&lt;span style=&quot;font-family: &amp;quot;Comic Sans MS&amp;quot;; font-size: 20px; font-style: normal; font-variant-ligatures: normal; font-variant-caps: normal; letter-spacing: normal; orphans: 2; text-align: left; text-indent: 0px; text-transform: none; widows: 2; word-spacing: 0px; -webkit-text-stroke-width: 0px; background-color: rgb(251, 251, 251); text-decoration-thickness: initial; text-decoration-style: initial; text-decoration-color: initial; float: none; display: inline !important;&quot;&gt;ASN:65515&lt;/span&gt;" tags="" id="cHquGx5Fdz1bRuiigCZR-34">
                    <mxCell style="text;whiteSpace=wrap;html=1;fontSize=20;fontFamily=Comic Sans MS;fontColor=#000000;fontStyle=1;sketch=1;curveFitting=1;jiggle=2;" parent="cHquGx5Fdz1bRuiigCZR-15" vertex="1">
                        <mxGeometry x="-2138" y="-190" width="130" height="39" as="geometry"/>
                    </mxCell>
                </UserObject>
                <mxCell id="59CgIa_AByDFIOM2VV5D-127" style="edgeStyle=none;disableMultiStroke=1;html=1;exitX=0.75;exitY=0;exitDx=0;exitDy=0;entryX=0.5;entryY=0;entryDx=0;entryDy=0;fontFamily=Comic Sans MS;fontSize=37;startArrow=none;startFill=0;endArrow=none;endFill=0;" parent="cHquGx5Fdz1bRuiigCZR-15" source="cHquGx5Fdz1bRuiigCZR-35" target="cHquGx5Fdz1bRuiigCZR-35" edge="1">
                    <mxGeometry relative="1" as="geometry"/>
                </mxCell>
                <mxCell id="59CgIa_AByDFIOM2VV5D-139" value="&lt;font style=&quot;font-size: 60px;&quot;&gt;Hybrid Connectivity Architecture:&amp;nbsp; HUB-Spoke Design&lt;/font&gt;" style="text;strokeColor=none;fillColor=none;html=1;fontSize=24;fontStyle=1;verticalAlign=middle;align=center;labelBorderColor=none;sketch=1;fillStyle=solid;fontFamily=Comic Sans MS;fontColor=#000000;" parent="cHquGx5Fdz1bRuiigCZR-15" vertex="1">
                    <mxGeometry x="-3022" y="-1339" width="1729" height="143" as="geometry"/>
                </mxCell>
                <UserObject label="ExR" tags="" id="ff7anAwrImGbUtOLiGLd-128">
                    <mxCell style="edgeLabel;html=1;align=center;verticalAlign=middle;resizable=0;points=[];fontSize=30;fontFamily=Comic Sans MS;fontColor=#000000;fontStyle=1;sketch=1;curveFitting=1;jiggle=2;" parent="cHquGx5Fdz1bRuiigCZR-15" vertex="1" connectable="0">
                        <mxGeometry x="-2695" y="191" as="geometry">
                            <mxPoint x="793" as="offset"/>
                        </mxGeometry>
                    </mxCell>
                </UserObject>
                <mxCell id="ff7anAwrImGbUtOLiGLd-141" value="" style="group" parent="cHquGx5Fdz1bRuiigCZR-15" vertex="1" connectable="0">
                    <mxGeometry x="-3217" y="-520" width="494" height="490" as="geometry"/>
                </mxCell>
                <UserObject label="&lt;font style=&quot;font-size: 20px;&quot;&gt;&lt;span style=&quot;background-color: rgb(255, 255, 102);&quot;&gt;VPN GW&lt;/span&gt;&lt;br&gt;First public IP address&lt;br&gt;20.25.39.186&amp;nbsp;&lt;br&gt;Second public IP address&lt;br&gt;20.25.39.30&amp;nbsp;&lt;br&gt;ASN: 65515&lt;br&gt;172.16.0.14&amp;nbsp;&lt;br&gt;172.16.0.15&lt;br&gt;&lt;br&gt;&lt;span style=&quot;background-color: rgb(255, 255, 102);&quot;&gt;Local Network Gateway&lt;/span&gt;&lt;br&gt;VPN Peer: IP address: 20.124.209.56&lt;br&gt;Address Space(s)10.10.2.0/24&lt;br&gt;&lt;br&gt;VPN Peer: IP address: 20.228.251.249&lt;br&gt;Address Space(s)10.8.1.0/24&lt;/font&gt;" tags="" id="Lrex--2l1uIk7FwFQTnm-0">
                    <mxCell style="text;whiteSpace=wrap;html=1;fontSize=25;fontFamily=Comic Sans MS;fontColor=#000000;sketch=1;curveFitting=1;jiggle=2;" parent="ff7anAwrImGbUtOLiGLd-141" vertex="1">
                        <mxGeometry width="494" height="490" as="geometry"/>
                    </mxCell>
                </UserObject>
                <mxCell id="ff7anAwrImGbUtOLiGLd-136" value="" style="aspect=fixed;html=1;points=[];align=center;image;fontSize=12;image=img/lib/azure2/networking/Local_Network_Gateways.svg;labelBackgroundColor=none;labelBorderColor=none;sketch=1;fillStyle=solid;fontFamily=Comic Sans MS;fontColor=#000000;container=1;" parent="ff7anAwrImGbUtOLiGLd-141" vertex="1">
                    <mxGeometry x="368" y="283" width="68" height="68" as="geometry"/>
                </mxCell>
                <mxCell id="j9oCdi_VxKx7eaR4tZM7-5" value="TODO: Multi-region" parent="bhTP2_UY_HiaFr0e0wly-0" visible="0"/>
            </root>
        </mxGraphModel>
    </diagram>
</mxfile>